<svg width="205" height="40" viewBox="0 0 205 40" fill="none" xmlns="http://www.w3.org/2000/svg">
<path d="M190.758 29.6249V23.4442H191.622V28.9176H195V29.6249H190.758Z" fill="white"/>
<path d="M188.53 29.6249L188.043 28.2872H185.302L184.815 29.6249H183.951L186.237 23.4442H187.101L189.394 29.6249H188.53ZM185.561 27.58H187.784L186.677 24.5358L185.561 27.58Z" fill="white"/>
<path d="M180.804 29.6249V24.1514H178.769V23.4442H183.71V24.1514H181.668V29.6249H180.804Z" fill="white"/>
<path d="M176.512 29.6249V23.4442H177.376V29.6249H176.512Z" fill="white"/>
<path d="M169.547 26.5345C169.547 24.8894 170.427 23.3212 172.297 23.3212C173.773 23.3212 174.63 24.3052 174.928 25.3506H174.056C173.797 24.6818 173.239 24.0284 172.297 24.0284C170.985 24.0284 170.411 25.2815 170.411 26.5345C170.411 27.7952 170.985 29.0483 172.297 29.0483C173.239 29.0483 173.852 28.3795 174.064 27.5031V27.2494H172.587V26.5422H174.928V29.6249H174.064V28.6793C173.71 29.3097 173.09 29.7555 172.21 29.7555C170.427 29.7555 169.547 28.1796 169.547 26.5345Z" fill="white"/>
<path d="M167.094 29.6249V23.4442H167.958V29.6249H167.094Z" fill="white"/>
<path d="M162.764 23.4442H161.127C161.263 23.671 161.384 23.9072 161.49 24.1514H162.764C164.068 24.1514 164.649 25.22 164.649 26.5345C164.649 27.8491 164.068 28.9176 162.764 28.9176H161.503C161.399 29.1617 161.28 29.3979 161.145 29.6249H162.764C164.625 29.6249 165.513 28.2334 165.513 26.5345C165.513 24.8279 164.625 23.4442 162.764 23.4442Z" fill="white"/>
<path d="M136.393 22.755C136.393 27.4678 138.789 29.6249 144.203 29.6249C146.605 29.6249 148.412 29.1967 149.678 28.305C149.509 27.7488 149.418 27.1597 149.418 26.5499C149.418 24.5126 150.431 22.7068 151.99 21.5876V10.3752H148.396V23.0363C148.396 25.6858 146.431 26.7175 144.203 26.7175C141.951 26.7175 139.987 25.6858 139.987 23.0363V10.3752H136.393V22.755Z" fill="white"/>
<path d="M118.115 29.6249V10.3752H121.709V17.8546H130.956V10.3752H134.55V29.6249H130.956V20.762H121.709V29.6249H118.115Z" fill="white"/>
<path d="M108.531 30C103.524 30 101.032 27.4678 100.193 23.4584H104.075C104.65 25.9672 106.566 26.8347 108.89 26.8347C110.902 26.8347 112.819 25.9203 112.819 24.3494C112.819 21.3013 100.744 22.4033 100.744 15.4631C100.744 11.9461 103.643 10 108.435 10C112.675 10 115.478 11.8992 115.981 15.4865H112.268C111.909 13.6811 109.8 13.1653 107.908 13.1653C105.823 13.1653 104.554 13.9156 104.554 15.5334C104.554 19.3083 116.508 17.6905 116.508 23.7163C116.508 27.7022 113.49 30 108.531 30Z" fill="white"/>
<path d="M82.7399 29.6249V10.3752H86.3814L95.0061 23.2005V10.3752H98.5996V29.6249H95.0061L86.3335 17.0106V29.6249H82.7399Z" fill="white"/>
<path d="M78.3518 29.6249L77.13 26.1313H69.2481L68.0262 29.6249H64.4327L71.3803 10.3752H74.9738L81.9454 29.6249H78.3518ZM70.2782 23.2239H76.0998L73.201 14.9472L70.2782 23.2239Z" fill="white"/>
<path d="M57.287 29.6249V13.2825H51.1539V10.3752H67.0376V13.2825H60.8806V29.6249H57.287Z" fill="white"/>
<path d="M46.4634 29.6249V10.3752H50.0569V29.6249H46.4634Z" fill="white"/>
<path d="M27.9217 29.6249V10.3752H31.5153V17.8546H40.7628V10.3752H44.3564V29.6249H40.7628V20.762H31.5153V29.6249H27.9217Z" fill="white"/>
<path d="M18.3371 30C13.3301 30 10.8385 27.4678 10 23.4584H13.8811C14.4561 25.9672 16.3726 26.8347 18.6965 26.8347C20.7089 26.8347 22.6255 25.9203 22.6255 24.3494C22.6255 21.3013 10.551 22.4033 10.551 15.4631C10.551 11.9461 13.4498 10 18.2413 10C22.4817 10 25.2847 11.8992 25.7878 15.4865H22.0745C21.7151 13.6811 19.6069 13.1653 17.7142 13.1653C15.63 13.1653 14.3602 13.9156 14.3602 15.5334C14.3602 19.3083 26.3149 17.6905 26.3149 23.7163C26.3149 27.7022 23.2963 30 18.3371 30Z" fill="white"/>
<path d="M158.844 26.5499C158.844 28.2481 157.437 29.6249 155.702 29.6249C153.967 29.6249 152.56 28.2481 152.56 26.5499C152.56 24.8516 153.967 23.4749 155.702 23.4749C157.437 23.4749 158.844 24.8516 158.844 26.5499Z" fill="#FF9900"/>
</svg>
