<svg width="99" height="20" viewBox="0 0 99 20" fill="none" xmlns="http://www.w3.org/2000/svg">
<g id="etrjdq7scmrm874z589 1" clip-path="url(#clip0_38_1116)">
<path id="Vector" d="M8.08428 13.9457V9.86505C7.76406 9.47657 7.34239 9.15717 6.8205 8.90748C6.298 8.65778 5.92584 8.53293 5.28478 8.53293C4.69995 8.53293 4.16034 8.68505 3.66595 8.99051C3.17381 9.29381 2.76785 9.71665 2.4865 10.219C2.1936 10.7331 2.04208 11.3146 2.04711 11.9051C2.04711 12.516 2.19378 13.0778 2.48589 13.5911C2.76597 14.0921 3.17291 14.5119 3.66656 14.8093C4.15361 15.1056 4.71465 15.2605 5.286 15.2566C5.92645 15.2566 6.29861 15.1317 6.82111 14.882C7.343 14.6323 7.76406 14.3196 8.08489 13.9451L8.08428 13.9457ZM10.0478 16.922H8.08428V15.9438C7.26234 16.7208 6.45506 17.1093 5.24261 17.1093C4.32147 17.1162 3.41566 16.8753 2.62156 16.4123C1.82965 15.9559 1.1711 15.303 0.710613 14.5178C0.238969 13.7272 -0.00672612 12.8242 -0.00010883 11.9057C-0.00685591 10.9867 0.23884 10.0833 0.710613 9.29232C1.1712 8.50734 1.82974 7.85467 2.62156 7.39839C3.41581 6.93514 4.32182 6.69406 5.24323 6.70081C6.48256 6.70081 7.29045 7.08929 8.08428 7.86626V2.89111H10.0478V16.922ZM13.9736 10.6978H19.4882C19.3495 9.9899 19.0287 9.43475 18.5276 9.03232C18.0265 8.6299 17.4276 8.42869 16.7309 8.42869C16.0342 8.42869 15.4359 8.6299 14.9342 9.03232C14.4331 9.43475 14.1129 9.9899 13.9736 10.6978ZM19.8329 16.4851C19.0323 16.9014 18.1377 17.1093 17.1489 17.1093C16.1467 17.1093 15.2373 16.8911 14.4233 16.4535C13.6218 16.0292 12.9559 15.391 12.5008 14.6111C12.0345 13.8202 11.8017 12.9251 11.8017 11.9263C11.8017 10.899 12.0204 9.9899 12.4592 9.19899C12.898 8.40808 13.4932 7.79354 14.2455 7.35657C14.9972 6.9196 15.8258 6.70081 16.7309 6.70081C17.6366 6.70081 18.4646 6.91899 19.2169 7.35657C19.9686 7.79354 20.5644 8.40808 21.0032 9.19899C21.4413 9.9899 21.6607 10.899 21.6607 11.9263V12.4257H13.8691C13.9668 13.2863 14.3182 13.9729 14.9244 14.4863C15.5295 15.0002 16.2713 15.2566 17.1489 15.2566C18.4579 15.2566 19.4186 14.6947 20.0315 13.5705L21.7237 14.6529C21.2641 15.4578 20.6341 16.0687 19.8329 16.4851ZM36.5749 10.6147V16.9214H34.6114V10.656C34.6114 9.9202 34.4409 9.38929 34.0999 9.06323C33.7589 8.73717 33.3861 8.57414 32.9822 8.57414C32.6063 8.57414 32.2342 8.68929 31.8651 8.91778C31.5142 9.1286 31.2174 9.41716 30.9979 9.76081V16.922H29.0344V10.656C29.0344 9.9202 28.8572 9.38929 28.5015 9.06323C28.1465 8.73717 27.767 8.57414 27.363 8.57414C27.0012 8.57414 26.6358 8.68505 26.2667 8.90748C25.915 9.11274 25.6177 9.39821 25.3995 9.7402V16.922H23.436V6.88808H25.3995V7.82505C25.702 7.48094 26.0716 7.20118 26.4861 7.00263C26.9092 6.80022 27.3736 6.69696 27.8433 6.70081C28.3591 6.70081 28.8462 6.81536 29.3057 7.04445C29.7653 7.27354 30.1411 7.64445 30.4338 8.15778C30.7771 7.72035 31.2118 7.36182 31.708 7.10687C32.2232 6.83596 32.8019 6.70081 33.4417 6.70081C34.2912 6.70081 35.0257 6.9996 35.6454 7.59596C36.2651 8.19233 36.5749 9.19899 36.5749 10.6141V10.6147ZM46.434 13.5911C46.7266 13.0769 46.8779 12.4955 46.8727 11.9051C46.8779 11.3146 46.7266 10.7332 46.434 10.219C46.1523 9.71667 45.7462 9.29386 45.2539 8.99051C44.7691 8.68797 44.2072 8.5292 43.6345 8.53293C43.0621 8.52926 42.5006 8.68803 42.0162 8.99051C41.5239 9.29379 41.1178 9.71662 40.8362 10.219C40.5435 10.7332 40.3922 11.3146 40.3974 11.9051C40.3974 12.516 40.5435 13.0778 40.8362 13.5911C41.116 14.0919 41.5225 14.5117 42.0156 14.8093C42.5027 15.1056 43.0637 15.2605 43.6351 15.2566C44.2199 15.2566 44.7595 15.1075 45.2539 14.8093C45.7472 14.5117 46.1539 14.0919 46.434 13.5911ZM39.0603 14.5178C38.5889 13.7272 38.3434 12.8242 38.3502 11.9057C38.3502 10.9614 38.5867 10.0905 39.0603 9.29232C39.5229 8.50522 40.1856 7.85219 40.9822 7.39839C41.7895 6.93293 42.6744 6.70081 43.6345 6.70081C44.5957 6.70081 45.48 6.93293 46.2879 7.39778C47.0846 7.85175 47.7473 8.505 48.2098 9.29232C48.6815 10.0831 48.927 10.9863 48.92 11.9051C48.9269 12.8236 48.6814 13.7266 48.2098 14.5172C47.7474 15.3047 47.0847 15.9582 46.2879 16.4123C45.48 16.8772 44.5957 17.1093 43.6351 17.1093C42.6744 17.1093 41.7895 16.8772 40.9822 16.4123C40.1856 15.9583 39.5229 15.3051 39.0603 14.5178Z" fill="#94A3B8"/>
<path id="Vector_2" d="M56.991 14.6689C56.496 14.9677 56.2021 15.0925 55.6661 15.0925C55.0532 15.0925 54.4904 14.9719 53.9929 14.7343C53.5163 14.5058 53.1294 14.2204 52.8434 13.8858V9.9222C53.1294 9.57493 53.5156 9.28281 53.9929 9.05432C54.4904 8.81675 55.0532 8.69614 55.6661 8.69614C56.2015 8.69614 56.4948 8.82341 56.9898 9.12947C57.4584 9.41871 57.8453 9.82118 58.1143 10.2992C58.3919 10.7892 58.5356 11.3426 58.531 11.9046C58.531 12.4834 58.3905 13.024 58.1136 13.5107C57.8467 13.9867 57.4599 14.3853 56.991 14.6689ZM60.1737 9.20826C59.6979 8.39998 59.0191 7.72765 58.2035 7.25675C57.4591 6.82463 56.7539 6.53675 55.7285 6.53675C54.5912 6.53675 53.622 6.86038 52.8434 7.49857V2.72705H50.5518V17.0852H52.8434V16.304C53.6428 16.9464 54.612 17.2725 55.7285 17.2725C56.7539 17.2725 57.4591 16.9846 58.2035 16.5531C59.0192 16.0818 59.698 15.4091 60.1737 14.6004C60.6591 13.784 60.9123 12.8524 60.9064 11.9046C60.9121 10.9568 60.6587 10.0252 60.1731 9.20887L60.1737 9.20826ZM88.6197 10.8452L87.6902 10.3786C87.285 10.1804 87.0308 10.0222 86.9275 9.90341C86.8309 9.80001 86.7771 9.66437 86.7766 9.52341C86.7766 9.3416 86.856 9.19129 87.0149 9.0725C87.1738 8.95372 87.3963 8.89069 87.6902 8.89069C88.2145 8.89069 88.7939 9.20705 89.4374 9.84038L91.0104 8.26463C90.6217 7.74036 90.1159 7.31242 89.5327 7.01432C88.9556 6.72837 88.3194 6.5794 87.6743 6.57917C86.713 6.57917 85.9192 6.86402 85.2995 7.43372C84.6799 8.00341 84.37 8.6925 84.37 9.4919C84.37 10.7343 85.1883 11.7713 86.8322 12.6028L87.6902 13.0301C88.429 13.4022 88.7939 13.7816 88.7939 14.1774C88.7939 14.3913 88.6912 14.5737 88.4926 14.7398C88.286 14.898 88.0159 14.9767 87.6823 14.9767C87.3724 14.9767 87.0149 14.8664 86.6177 14.6525C86.2178 14.4382 85.8622 14.1509 85.5696 13.8058L84.0046 15.5149C84.8864 16.6707 86.0701 17.2567 87.5472 17.2567C88.6588 17.2567 89.5486 16.9561 90.208 16.3464C90.8674 15.7446 91.2004 14.9931 91.2004 14.0907C91.2004 13.4101 91.0183 12.824 90.6529 12.318C90.2715 11.8271 89.5963 11.3361 88.6197 10.8452ZM97.2926 14.2883C97.086 14.4471 96.5935 14.787 96.0374 14.7083C95.5772 14.6446 95.2038 14.3125 95.1482 13.1883V8.97008H98.142V6.78402H95.1482V3.94402H92.6066V12.8567C92.6066 14.1864 92.9403 17.2731 96.0374 17.2731C97.6024 17.2489 98.5472 16.4022 98.9444 16.0701L99 16.0307L97.4753 14.1543C97.4674 14.1543 97.3641 14.241 97.2926 14.2883ZM67.3274 14.618C65.7874 14.618 64.5315 13.3664 64.5315 11.824C64.5315 10.2816 65.7874 9.03069 67.3274 9.03069C68.8674 9.03069 70.1226 10.2816 70.1226 11.8246C70.1146 13.3664 68.8594 14.618 67.3274 14.618ZM71.9541 9.22402C71.0429 7.60584 69.3092 6.51251 67.3274 6.51251C64.3977 6.51251 62.0131 8.88887 62.0131 11.8246C62.0131 14.7519 64.3977 17.1361 67.3274 17.1361C69.3092 17.1361 71.0435 16.0392 71.9541 14.4204C71.5066 13.6273 71.2721 12.7334 71.2733 11.8246C71.2733 10.8798 71.5208 9.99251 71.9541 9.22402ZM77.7285 14.618C76.1885 14.618 74.9326 13.3664 74.9326 11.824C74.9326 10.2816 76.1885 9.03069 77.7285 9.03069C79.2679 9.03069 80.5237 10.2816 80.5237 11.8246C80.5158 13.3664 79.2599 14.618 77.7285 14.618ZM77.7285 6.51251C75.7411 6.51251 74.0056 7.60584 73.0944 9.22463C72.6468 10.0192 72.4126 10.9145 72.4143 11.8246C72.4143 12.7664 72.6611 13.6525 73.0944 14.4204C74.0056 16.0398 75.7411 17.1355 77.7285 17.1355C80.6502 17.1355 83.0348 14.7519 83.0348 11.8246C83.0348 8.88947 80.6502 6.51251 77.7285 6.51251Z" fill="#94A3B8"/>
</g>
<defs>
<clipPath id="clip0_38_1116">
<rect width="99" height="20" fill="white"/>
</clipPath>
</defs>
</svg>
