<?xml version="1.0" encoding="UTF-8"?>
<svg version="1.1" xmlns="http://www.w3.org/2000/svg" width="2560" height="922">
<path d="M0 0 C1.47247967 -0.00734716 2.94495358 -0.01593527 4.41741943 -0.02566528 C8.40313774 -0.0478243 12.38864896 -0.05081473 16.3744204 -0.04891777 C19.70915809 -0.04879779 23.04385234 -0.05737343 26.37857789 -0.06569529 C34.25095008 -0.0849099 42.12321625 -0.08782058 49.99560547 -0.08105469 C58.09878636 -0.07441814 66.20151156 -0.09726693 74.30460006 -0.13436842 C81.2772655 -0.16512776 88.24978484 -0.17641863 95.22251672 -0.1725316 C99.38007004 -0.17047019 103.5372688 -0.1758484 107.69475746 -0.20042419 C111.6077641 -0.22279183 115.52003353 -0.22073149 119.43304443 -0.20049667 C120.86241931 -0.19710398 122.29184479 -0.20210015 123.72115135 -0.21648026 C133.40853076 -0.3071556 141.3202808 0.59930807 148.6418047 7.40970612 C154.21828862 13.25545084 156.87080693 19.03551262 156.76635742 27.078125 C156.7412207 27.83029297 156.71608398 28.58246094 156.69018555 29.35742188 C156.67665039 30.13666016 156.66311523 30.91589844 156.64916992 31.71875 C156.61418779 33.61944592 156.56039514 35.51978022 156.50268555 37.41992188 C157.63781837 37.40992912 157.63781837 37.40992912 158.79588318 37.3997345 C165.95982236 37.3393928 173.12363671 37.29383113 180.28776455 37.26448536 C183.97011171 37.24889074 187.65224725 37.22776754 191.33447266 37.19360352 C194.8941713 37.16078646 198.45366758 37.14302232 202.01350594 37.13529015 C204.01911729 37.12712478 206.02464828 37.10374171 208.03013611 37.08003235 C218.33076728 37.07815097 225.83716263 38.92064772 234.50268555 44.41992188 C235.34831055 44.95617187 236.19393555 45.49242187 237.06518555 46.04492188 C242.52996327 51.3695771 247.19657111 59.21318581 247.75568521 66.89673543 C247.76727952 68.26143707 247.7679522 69.62625842 247.75995445 70.99098587 C247.76346053 71.74876176 247.7669666 72.50653765 247.77057892 73.28727645 C247.77990786 75.83508402 247.77496577 78.38266378 247.77011108 80.93048096 C247.7738466 82.77216966 247.77844772 84.61385678 247.78384173 86.45554137 C247.79609948 91.52339071 247.79580799 96.59117418 247.79345298 101.65903497 C247.79304551 107.12203001 247.80407729 112.58500373 247.81356812 118.04798889 C247.8301945 128.75389132 247.83567841 139.45977173 247.83679287 150.16568598 C247.83774261 158.86686666 247.84184917 167.56804007 247.84819412 176.26921844 C247.86581131 200.92996498 247.87504443 225.59069634 247.87353317 250.2514489 C247.87349328 250.91620046 247.87345339 251.58095201 247.87341229 252.26584755 C247.87333142 253.61013782 247.87324782 254.95442808 247.87316151 256.29871834 C247.87193614 277.2113804 247.88694618 298.1239776 247.91430664 319.03662109 C247.94503172 342.53066591 247.96221352 366.02467841 247.9603802 389.51874614 C247.9597158 401.95872744 247.96522967 414.3986356 247.9867363 426.83860016 C248.0049301 437.43038997 248.00931024 448.02207348 247.99571745 458.61387214 C247.98917863 464.01850744 247.98910367 469.4229387 248.00642395 474.8275547 C248.02211922 479.77598218 248.01932719 484.72404325 248.00185569 489.6724616 C247.99877797 491.46182948 248.00244714 493.25122447 248.01357584 495.04056039 C248.1129697 512.1564144 248.1129697 512.1564144 243.50268555 519.41992188 C242.72538086 520.72509766 242.72538086 520.72509766 241.93237305 522.05664062 C236.21897268 529.59316121 228.91048331 534.65951447 219.50268555 536.41992188 C215.2351219 536.7141888 210.97674508 536.69833403 206.70037842 536.68734741 C205.40767257 536.69187853 204.11496672 536.69640964 202.78308797 536.70107806 C199.20581542 536.71328304 195.62863657 536.71305056 192.05134797 536.71068931 C188.18890592 536.7102805 184.32649366 536.72132636 180.46406555 536.73080444 C172.90072098 536.74740184 165.33740759 536.75291343 157.77404633 536.7540292 C151.62441719 536.7549803 145.47479832 536.7590937 139.32517242 536.76543045 C121.88025004 536.78303966 104.43535224 536.79226986 86.99042091 536.7907695 C85.58037618 536.79064963 85.58037618 536.79064963 84.1418457 536.79052734 C82.73007427 536.7904047 82.73007427 536.7904047 81.2897822 536.79027958 C66.03984681 536.78946684 50.79001022 536.8086023 35.54010341 536.83680408 C19.87219971 536.86554963 4.20434417 536.87934344 -11.46358657 536.87761652 C-20.25614454 536.87695319 -29.04859893 536.88242083 -37.84113312 536.90397263 C-45.32787321 536.92220646 -52.81446278 536.92651374 -60.3012155 536.91295378 C-64.11833455 536.90643511 -67.935165 536.90626672 -71.75225639 536.92366028 C-75.89741229 536.94235384 -80.04190341 536.92980786 -84.18707275 536.91439819 C-85.38368727 536.92468532 -86.58030179 536.93497245 -87.81317735 536.9455713 C-98.39473051 536.85881522 -107.26312381 534.32299438 -115.48950195 527.48242188 C-122.16726153 520.6227778 -125.81037151 512.36124497 -125.75458336 502.86726856 C-125.75984247 501.73358668 -125.75984247 501.73358668 -125.76520783 500.57700214 C-125.77453656 498.03594708 -125.76959472 495.49512047 -125.76473999 492.95405579 C-125.76847552 491.11720457 -125.77307665 489.28035494 -125.77847064 487.44350785 C-125.7907283 482.38899065 -125.79043691 477.3345395 -125.78808188 472.28001082 C-125.78767441 466.83131169 -125.79870628 461.38263392 -125.80819702 455.9339447 C-125.82482363 445.25578074 -125.83030734 434.57763886 -125.83142178 423.89946304 C-125.83237155 415.22022077 -125.83647833 406.54098579 -125.84282303 397.86174583 C-125.86044069 373.26140214 -125.86967333 348.66107489 -125.86816208 324.06072495 C-125.86812219 323.39759753 -125.8680823 322.73447011 -125.8680412 322.05124793 C-125.86796033 320.71024169 -125.86787673 319.36923545 -125.86779042 318.02822921 C-125.8665652 297.16926359 -125.88157219 276.31036302 -125.90893555 255.45141602 C-125.93966569 232.01632394 -125.9568421 208.58126754 -125.9550091 185.14615315 C-125.95434485 172.73799796 -125.95985237 160.32991612 -125.9813652 147.92177773 C-125.99956551 137.35636684 -126.00393382 126.79106254 -125.99034636 116.22564278 C-125.98381069 110.83506025 -125.98372125 105.44468226 -126.00105286 100.05411911 C-126.0167621 95.11735844 -126.01394173 90.18096485 -125.99648459 85.24421325 C-125.99340996 83.46021111 -125.99706451 81.67618172 -126.00820474 79.89221171 C-126.08075973 67.44713505 -125.21848094 57.53225291 -116.2668457 48.16601562 C-115.68290039 47.58980469 -115.09895508 47.01359375 -114.49731445 46.41992188 C-113.16700195 45.05867188 -113.16700195 45.05867188 -111.80981445 43.66992188 C-103.2264698 36.97824468 -92.1234846 36.86402992 -81.76293945 37.02929688 C-80.39004348 37.0367799 -79.01713665 37.04246305 -77.64422607 37.04644775 C-74.07333607 37.0615426 -70.50312236 37.10067853 -66.93249512 37.14526367 C-63.2719029 37.18657084 -59.61119877 37.20453349 -55.95043945 37.22460938 C-48.79912521 37.2671937 -41.64826455 37.33524185 -34.49731445 37.41992188 C-34.52051758 36.25799316 -34.5437207 35.09606445 -34.56762695 33.89892578 C-34.5863947 32.35645177 -34.60459382 30.81397077 -34.62231445 29.27148438 C-34.63907227 28.50779541 -34.65583008 27.74410645 -34.6730957 26.95727539 C-34.73881672 19.32131484 -32.81199507 14.06052297 -27.63012695 8.36914062 C-19.08118025 0.33579188 -11.33756452 -0.02674222 0 0 Z " fill="#0C3154" transform="translate(182.497314453125,68.580078125)"/>
<path d="M0 0 C1.37289597 0.00748302 2.7458028 0.01316617 4.11871338 0.01715088 C7.68960339 0.03224572 11.25981709 0.07138165 14.83044434 0.1159668 C18.49103489 0.15727395 22.15174061 0.17545764 25.8125 0.1953125 C32.96413415 0.23576292 40.11392408 0.31409075 47.265625 0.390625 C47.265625 15.900625 47.265625 31.410625 47.265625 47.390625 C28.785625 47.390625 10.305625 47.390625 -8.734375 47.390625 C-8.734375 181.040625 -8.734375 314.690625 -8.734375 452.390625 C91.255625 452.390625 191.245625 452.390625 294.265625 452.390625 C294.265625 319.070625 294.265625 185.750625 294.265625 48.390625 C275.785625 48.390625 257.305625 48.390625 238.265625 48.390625 C238.265625 32.550625 238.265625 16.710625 238.265625 0.390625 C246.18705557 0.32755257 254.10756608 0.26746664 262.02902985 0.23537445 C265.71860094 0.21959352 269.40796214 0.1985377 273.09741211 0.16430664 C276.65711075 0.13148959 280.21660703 0.11372544 283.77644539 0.10599327 C285.78205674 0.0978279 287.78758773 0.07444483 289.79307556 0.05073547 C300.09370674 0.0488541 307.60010208 1.89135084 316.265625 7.390625 C317.11125 7.926875 317.956875 8.463125 318.828125 9.015625 C324.29290273 14.34028022 328.95951057 22.18388893 329.51862466 29.86743855 C329.53021898 31.23214019 329.53089166 32.59696154 329.52289391 33.961689 C329.52639998 34.71946489 329.52990605 35.47724078 329.53351837 36.25797957 C329.54284731 38.80578715 329.53790522 41.3533669 329.53305054 43.90118408 C329.53678605 45.74287279 329.54138717 47.5845599 329.54678118 49.4262445 C329.55903893 54.49409384 329.55874745 59.5618773 329.55639243 64.62973809 C329.55598496 70.09273314 329.56701674 75.55570686 329.57650757 81.01869202 C329.59313396 91.72459444 329.59861786 102.43047485 329.59973232 113.13638911 C329.60068206 121.83756979 329.60478863 130.53874319 329.61113358 139.23992157 C329.62875076 163.9006681 329.63798389 188.56139947 329.63647263 213.22215202 C329.63643274 213.88690358 329.63639285 214.55165514 329.63635175 215.23655068 C329.63627087 216.58084094 329.63618728 217.92513121 329.63610096 219.26942147 C329.63487559 240.18208353 329.64988563 261.09468072 329.67724609 282.00732422 C329.70797117 305.50136903 329.72515297 328.99538153 329.72331965 352.48944926 C329.72265526 364.92943057 329.72816913 377.36933872 329.74967575 389.80930328 C329.76786956 400.4010931 329.77224969 410.99277661 329.7586569 421.58457527 C329.75211809 426.98921056 329.75204312 432.39364182 329.7693634 437.79825783 C329.78505868 442.74668531 329.78226664 447.69474637 329.76479514 452.64316472 C329.76171743 454.43253261 329.76538659 456.2219276 329.77651529 458.01126352 C329.87590915 475.12711752 329.87590915 475.12711752 325.265625 482.390625 C324.48832031 483.69580078 324.48832031 483.69580078 323.6953125 485.02734375 C317.98191213 492.56386433 310.67342276 497.63021759 301.265625 499.390625 C296.99806136 499.68489193 292.73968453 499.66903716 288.46331787 499.65805054 C286.5242591 499.66484721 286.5242591 499.66484721 284.54602742 499.67178118 C280.96875488 499.68398617 277.39157603 499.68375368 273.81428742 499.68139243 C269.95184537 499.68098363 266.08943311 499.69202948 262.227005 499.70150757 C254.66366044 499.71810496 247.10034704 499.72361655 239.53698578 499.72473232 C233.38735664 499.72568343 227.23773777 499.72979683 221.08811188 499.73613358 C203.64318949 499.75374279 186.1982917 499.76297298 168.75336036 499.76147263 C167.34331563 499.76135276 167.34331563 499.76135276 165.90478516 499.76123047 C164.49301372 499.76110783 164.49301372 499.76110783 163.05272165 499.76098271 C147.80278626 499.76016997 132.55294967 499.77930543 117.30304286 499.8075072 C101.63513916 499.83625276 85.96728362 499.85004657 70.29935288 499.84831965 C61.50679491 499.84765631 52.71434052 499.85312395 43.92180634 499.87467575 C36.43506624 499.89290959 28.94847667 499.89721686 21.46172395 499.8836569 C17.6446049 499.87713823 13.82777445 499.87696985 10.01068306 499.8943634 C5.86552716 499.91305697 1.72103604 499.90051099 -2.4241333 499.88510132 C-3.62074782 499.89538844 -4.81736233 499.90567557 -6.05023789 499.91627443 C-16.63179106 499.82951834 -25.50018436 497.2936975 -33.7265625 490.453125 C-40.40432207 483.59348092 -44.04743205 475.33194809 -43.99164391 465.83797169 C-43.99690302 464.70428981 -43.99690302 464.70428981 -44.00226837 463.54770526 C-44.01159711 461.00665021 -44.00665527 458.46582359 -44.00180054 455.92475891 C-44.00553607 454.0879077 -44.0101372 452.25105807 -44.01553118 450.41421098 C-44.02778885 445.35969378 -44.02749745 440.30524263 -44.02514243 435.25071394 C-44.02473496 429.80201481 -44.03576683 424.35333705 -44.04525757 418.90464783 C-44.06188418 408.22648387 -44.06736788 397.54834198 -44.06848232 386.87016616 C-44.0694321 378.19092389 -44.07353887 369.51168892 -44.07988358 360.83244896 C-44.09750124 336.23210526 -44.10673387 311.63177801 -44.10522263 287.03142808 C-44.10518274 286.36830066 -44.10514285 285.70517324 -44.10510175 285.02195105 C-44.10502087 283.68094481 -44.10493728 282.33993857 -44.10485096 280.99893233 C-44.10362574 260.13996671 -44.11863274 239.28106614 -44.14599609 218.42211914 C-44.17672624 194.98702707 -44.19390265 171.55197066 -44.19206965 148.11685628 C-44.1914054 135.70870109 -44.19691292 123.30061924 -44.21842575 110.89248085 C-44.23662606 100.32706997 -44.24099437 89.76176566 -44.2274069 79.1963459 C-44.22087123 73.80576337 -44.2207818 68.41538538 -44.2381134 63.02482224 C-44.25382264 58.08806156 -44.25100228 53.15166797 -44.23354514 48.21491637 C-44.23047051 46.43091423 -44.23412506 44.64688484 -44.24526529 42.86291484 C-44.31782028 30.41783817 -43.45554148 20.50295604 -34.50390625 11.13671875 C-33.91996094 10.56050781 -33.33601563 9.98429687 -32.734375 9.390625 C-31.8475 8.483125 -30.960625 7.575625 -30.046875 6.640625 C-21.46353034 -0.0510522 -10.36054515 -0.16526696 0 0 Z " fill="#CCD0D3" transform="translate(100.734375,105.609375)"/>
<path d="M0 0 C796.62 0 1593.24 0 2414 0 C2414 5.61 2414 11.22 2414 17 C1617.38 17 820.76 17 0 17 C0 11.39 0 5.78 0 0 Z " fill="#2D2F2F" transform="translate(73,653)"/>
<path d="M0 0 C83.49 0 166.98 0 253 0 C253 19.8 253 39.6 253 60 C224.29 60 195.58 60 166 60 C166 146.13 166 232.26 166 321 C139.93 321 113.86 321 87 321 C87 234.54 87 148.08 87 59 C58.29 59 29.58 59 0 59 C0 39.53 0 20.06 0 0 Z " fill="#FCFCFC" transform="translate(121,190)"/>
<path d="M0 0 C1.22992676 0.00829834 2.45985352 0.01659668 3.72705078 0.02514648 C26.33886564 0.44410468 44.66211862 9.41357732 61 24.8125 C81.83712636 46.98731842 89.19963617 74.75969702 88.53515625 104.58984375 C87.48694156 131.49694462 77.39751819 156.42338253 57.75390625 175.28125 C37.90245116 192.37641881 16.94742755 197.91503498 -8.83691406 196.66943359 C-14.83050205 196.1922371 -20.19736018 194.78109694 -25.75 192.4375 C-26.65363281 192.06367188 -27.55726562 191.68984375 -28.48828125 191.3046875 C-37.45337432 187.19625335 -49.22249833 179.49250334 -53.75 170.4375 C-54.08 208.3875 -54.41 246.3375 -54.75 285.4375 C-74.55 285.4375 -94.35 285.4375 -114.75 285.4375 C-114.75 191.7175 -114.75 97.9975 -114.75 1.4375 C-95.28 1.4375 -75.81 1.4375 -55.75 1.4375 C-54.13219843 3.05530157 -54.52727853 4.89385518 -54.43359375 7.12890625 C-54.39169922 8.07314453 -54.34980469 9.01738281 -54.30664062 9.99023438 C-54.26732422 10.98345703 -54.22800781 11.97667969 -54.1875 13 C-54.14431641 13.99708984 -54.10113281 14.99417969 -54.05664062 16.02148438 C-53.95019702 18.4933415 -53.84818072 20.9653031 -53.75 23.4375 C-53.09 22.4475 -52.43 21.4575 -51.75 20.4375 C-51.09 20.4375 -50.43 20.4375 -49.75 20.4375 C-49.35554688 19.53451172 -49.35554688 19.53451172 -48.953125 18.61328125 C-44.36334429 10.31293107 -31.73031939 5.37883937 -23.10644531 2.5793457 C-15.36454755 0.4234796 -8.0106643 -0.06994049 0 0 Z M-45.859375 66.6875 C-55.16490631 78.77673726 -56.19433227 93.75242208 -54.75 108.4375 C-53.23362359 116.83720301 -50.12166083 123.81722067 -44.75 130.4375 C-44.24855469 131.06269531 -43.74710938 131.68789063 -43.23046875 132.33203125 C-36.94602703 139.35042237 -27.6352269 144.03727833 -18.24609375 144.67578125 C-5.96789305 145.0121288 3.92772315 142.99721842 13.25 134.4375 C22.67828284 125.4244076 27.31261206 114.20300065 27.68139648 101.14624023 C27.71934693 87.41273388 25.29425085 74.54683239 15.25 64.4375 C14.70472656 63.87804687 14.15945313 63.31859375 13.59765625 62.7421875 C4.34084367 54.07345477 -5.96871725 51.95272573 -18.2265625 52.16796875 C-29.14708762 52.62280392 -38.49819156 58.835571 -45.859375 66.6875 Z " fill="#2D2F2F" transform="translate(1899.75,288.5625)"/>
<path d="M0 0 C19.8 0 39.6 0 60 0 C60.33 45.87 60.66 91.74 61 139 C70.93986849 126.07617912 70.93986849 126.07617912 80.5625 112.9375 C86.58697009 104.53164622 92.76806364 96.25266799 99 88 C101.10626929 85.20991094 103.21000356 82.41793279 105.3125 79.625 C106.01354858 78.69856689 106.01354858 78.69856689 106.72875977 77.75341797 C107.18565186 77.14643066 107.64254395 76.53944336 108.11328125 75.9140625 C108.56567673 75.3372171 109.0180722 74.7603717 109.48417664 74.16604614 C111.08186132 72.01833002 111.08186132 72.01833002 112.17388916 69.46459961 C113.812286 66.29772822 115.25178756 64.29776075 118 62 C124.0600558 60.56872642 129.99203135 60.833205 136.18359375 61.0234375 C137.96716843 61.04210554 139.75079465 61.05633225 141.53443909 61.0663147 C146.21295544 61.10436821 150.88833139 61.20247346 155.56561279 61.31335449 C160.34474197 61.41593925 165.12438237 61.461384 169.90429688 61.51171875 C179.27090576 61.61873698 188.63519105 61.78924126 198 62 C196.48735131 66.03693874 194.85465903 68.54691861 191.875 71.6875 C188.82722992 74.97792694 185.90163756 78.29007135 183.125 81.8125 C178.23782446 88.0061482 173.11356646 93.99378232 168 100 C162.78756448 106.12985284 157.58171552 112.26088308 152.5 118.5 C146.95340296 125.30987893 141.2612077 131.99493334 135.56787109 138.68212891 C129.59467367 145.69875078 123.70357636 152.76021683 118 160 C118.30679688 160.61359375 118.61359375 161.2271875 118.9296875 161.859375 C119.953125 163.90625 120.9765625 165.953125 122 168 C122.66 168 123.32 168 124 168 C125.35097374 169.51151546 126.62927345 171.08813313 127.875 172.6875 C131.42452073 177.13296085 135.10557065 181.35497582 139 185.5 C143.43911624 190.23788951 147.5914808 195.12126593 151.65625 200.1875 C154.33208278 203.39849934 157.14359707 206.45027636 160 209.5 C164.45550447 214.25743042 168.6313357 219.15818292 172.71484375 224.2421875 C176.13469083 228.36938756 179.77995308 232.27648717 183.421875 236.20703125 C186.68704573 239.74429954 189.86274825 243.34937979 193 247 C193.50660156 247.5775 194.01320313 248.155 194.53515625 248.75 C198 252.76497214 198 252.76497214 198 255 C187.92548095 255.37253002 177.85262602 255.65588522 167.77259541 255.82899475 C163.09028923 255.91213496 158.41272824 256.02462215 153.7331543 256.20703125 C120.91130882 257.4538253 120.91130882 257.4538253 113.72460938 251.55175781 C110.76038761 248.32808047 108.68773643 244.89530598 106.90368652 240.90948486 C105.61932385 238.1956333 103.80829367 236.02933552 101.875 233.75 C100.91248411 232.50321776 99.95375028 231.25350037 99 230 C98.44570313 229.30390625 97.89140625 228.6078125 97.3203125 227.890625 C96 226 96 226 96 224 C95.34 224 94.68 224 94 224 C92.437349 222.15906868 90.99412577 220.31456859 89.5625 218.375 C88.65568236 217.17132134 87.74810469 215.96821496 86.83984375 214.765625 C86.37046387 214.14107422 85.90108398 213.51652344 85.41748047 212.87304688 C77.50143726 202.41285336 69.19203846 192.24004808 61 182 C60.67 206.09 60.34 230.18 60 255 C40.2 255 20.4 255 0 255 C0 170.85 0 86.7 0 0 Z " fill="#2D2F2F" transform="translate(884,228)"/>
<path d="M0 0 C1.3921875 1.11375 1.3921875 1.11375 2.8125 2.25 C2.8125 2.91 2.8125 3.57 2.8125 4.25 C4.7925 5.24 4.7925 5.24 6.8125 6.25 C6.8125 6.91 6.8125 7.57 6.8125 8.25 C7.4725 8.25 8.1325 8.25 8.8125 8.25 C9.1425 8.91 9.4725 9.57 9.8125 10.25 C10.1425 2.99 10.4725 -4.27 10.8125 -11.75 C30.6125 -11.75 50.4125 -11.75 70.8125 -11.75 C70.8125 51.94 70.8125 115.63 70.8125 181.25 C51.0125 181.25 31.2125 181.25 10.8125 181.25 C10.4825 173.33 10.1525 165.41 9.8125 157.25 C8.36875 158.9 6.925 160.55 5.4375 162.25 C3.94246047 163.9586166 2.40921399 165.63599308 0.8125 167.25 C0.1525 167.25 -0.5075 167.25 -1.1875 167.25 C-1.1875 167.91 -1.1875 168.57 -1.1875 169.25 C-19.04914841 182.49276061 -38.9129608 185.43883548 -60.68994141 182.96582031 C-82.43757618 179.3725234 -101.4208094 165.1408595 -114.25 147.6875 C-131.70387852 123.04107089 -135.63236287 91.44583977 -130.66601562 62.09423828 C-125.86473626 37.04615417 -112.08572511 14.8450473 -91.12890625 0.09765625 C-63.45350714 -17.7435074 -27.40426751 -18.54300735 0 0 Z M-61.5 53.6875 C-70.62232849 65.07781071 -72.22214987 79.10506072 -71.1875 93.25 C-69.20111929 106.40014825 -63.84988762 116.67617224 -53.2109375 124.75 C-43.47792654 131.26452527 -33.64114134 132.25928127 -22.1875 131.25 C-10.64077485 128.75150324 -2.1340487 121.57381203 4.8125 112.25 C11.88499872 99.94636317 12.94249971 84.03749859 10.125 70.2734375 C8.24675267 63.59000741 5.48940596 58.36766149 0.8125 53.25 C-0.3321875 51.950625 -0.3321875 51.950625 -1.5 50.625 C-10.05081502 43.06846579 -18.56175714 38.65603569 -30.0625 38.8125 C-31.24767212 38.82494751 -31.24767212 38.82494751 -32.45678711 38.83764648 C-44.59170797 39.18813603 -53.41462531 44.81182553 -61.5 53.6875 Z " fill="#2D2F2F" transform="translate(573.1875,301.75)"/>
<path d="M0 0 C2.09123944 -0.00961489 4.18145501 -0.04065854 6.27246094 -0.07226562 C33.02821111 -0.28290041 56.51159613 9.73786574 75.81152344 28.11523438 C95.93292484 49.00278132 101.03910306 76.43168445 100.79199219 104.42773438 C100.51343767 116.35082014 100.51343767 116.35082014 98.62402344 118.24023438 C96.94110647 118.33640244 95.25412783 118.36211128 93.56846619 118.36048889 C91.92564415 118.36255089 91.92564415 118.36255089 90.24963379 118.36465454 C89.03763306 118.36105927 87.82563232 118.35746399 86.5769043 118.35375977 C84.674739 118.35397881 84.674739 118.35397881 82.73414612 118.35420227 C79.24669922 118.35449023 75.75928643 118.34859382 72.27184749 118.34162831 C68.6309862 118.33539445 64.99012422 118.33479095 61.34925842 118.33360291 C54.45025372 118.33048969 47.55126479 118.32227642 40.65226704 118.31225342 C32.79991659 118.30109199 24.9475654 118.29558175 17.095209 118.29055798 C0.9381379 118.2800938 -15.21891732 118.26249454 -31.37597656 118.24023438 C-30.91482215 119.67632016 -30.44908692 121.11093544 -29.98144531 122.54492188 C-29.72258545 123.34397949 -29.46372559 124.14303711 -29.19702148 124.96630859 C-26.27971932 133.04592571 -19.46058848 139.07684806 -11.81347656 142.67773438 C-2.2416885 146.09939051 9.38788957 145.45527001 18.62402344 141.24023438 C22.2959259 139.17744747 24.9739371 137.21978922 27.32086182 133.6834259 C29.62402344 131.24023438 29.62402344 131.24023438 32.57269287 130.63896179 C34.29144623 130.65561638 34.29144623 130.65561638 36.04492188 130.67260742 C37.996492 130.6731739 37.996492 130.6731739 39.98748779 130.67375183 C41.4028011 130.69928337 42.81810461 130.72536332 44.23339844 130.75195312 C45.68498517 130.76128253 47.13658768 130.76839805 48.5881958 130.77339172 C52.40264611 130.79245213 56.21613937 130.84154267 60.0302124 130.89691162 C63.9246323 130.94812597 67.81920736 130.9709103 71.71386719 130.99609375 C79.35102152 131.04966407 86.98738821 131.13496305 94.62402344 131.24023438 C94.16128615 132.99876796 93.69401882 134.7561099 93.22485352 136.51293945 C92.83527214 137.98105827 92.83527214 137.98105827 92.43782043 139.47883606 C89.86002879 148.22586944 84.43020975 156.28145525 78.62402344 163.24023438 C78.05296875 163.95566406 77.48191406 164.67109375 76.89355469 165.40820312 C65.16491163 179.45839203 49.03466605 188.35523393 31.62402344 193.24023438 C30.00560547 193.72169922 30.00560547 193.72169922 28.35449219 194.21289062 C11.12505 198.52526556 -10.37589735 198.52161889 -27.37597656 193.24023438 C-28.33818115 192.94221924 -28.33818115 192.94221924 -29.31982422 192.63818359 C-44.73788538 187.72222667 -56.97890491 179.60446145 -68.37597656 168.24023438 C-69.10558594 167.53382813 -69.83519531 166.82742188 -70.58691406 166.09960938 C-89.9983418 145.99765654 -93.77361688 118.06450697 -93.52050781 91.41601562 C-93.07601372 67.46754124 -85.31578067 46.26622962 -69.37597656 28.24023438 C-68.8590625 27.64082031 -68.34214844 27.04140625 -67.80957031 26.42382812 C-50.10987851 7.30461217 -25.33399535 0.07008021 0 0 Z M-24.62597656 63.55273438 C-28.65500594 68.50645902 -31.37597656 73.82023345 -31.37597656 80.24023438 C-8.27597656 80.24023438 14.82402344 80.24023438 38.62402344 80.24023438 C35.97108485 68.30201073 31.90852603 61.84529014 21.62402344 55.24023438 C5.71435831 46.60265171 -12.69777833 50.70010077 -24.62597656 63.55273438 Z " fill="#2D2F2F" transform="translate(2103.3759765625,288.759765625)"/>
<path d="M0 0 C24.069375 -0.020625 48.13875 -0.04125 72.9375 -0.0625 C80.55062256 -0.071604 88.16374512 -0.08070801 96.00756836 -0.09008789 C105.27062988 -0.09460449 105.27062988 -0.09460449 109.6006012 -0.09544373 C112.63889794 -0.09637918 115.67717739 -0.10014172 118.71546936 -0.10557556 C122.583704 -0.11240275 126.45191325 -0.11449711 130.32015336 -0.11307228 C131.74435255 -0.11337049 133.16855257 -0.11537219 134.59274662 -0.11921513 C136.50749839 -0.12414424 138.42226396 -0.12240365 140.33702087 -0.12025452 C141.41275329 -0.12117631 142.4884857 -0.1220981 143.59681606 -0.12304783 C146 0 146 0 147 1 C147.0928726 2.41225046 147.11746772 3.82908934 147.11352539 5.24438477 C147.11340454 6.15788696 147.11328369 7.07138916 147.11315918 8.01257324 C147.10804321 8.97908813 147.10292725 9.94560303 147.09765625 10.94140625 C147.09664917 11.82501831 147.09564209 12.70863037 147.09460449 13.61901855 C147.08935531 16.93352549 147.07539417 20.24801399 147.0625 23.5625 C147.041875 30.966875 147.02125 38.37125 147 46 C118.29 46 89.58 46 60 46 C60 62.83 60 79.66 60 97 C85.41 97 110.82 97 137 97 C137 111.85 137 126.7 137 142 C111.59 142 86.18 142 60 142 C60 160.15 60 178.3 60 197 C88.71 197 117.42 197 147 197 C147 212.18 147 227.36 147 243 C98.49 243 49.98 243 0 243 C0 162.81 0 82.62 0 0 Z " fill="#2D2F2F" transform="translate(1401,240)"/>
<path d="M0 0 C0.64727051 0.20898926 1.29454102 0.41797852 1.96142578 0.63330078 C19.30054541 6.34174091 33.24777641 16.86716995 42 33 C45.73478089 41.31626676 48 49.87544708 48 59 C27.87 59 7.74 59 -13 59 C-14.32 55.7 -15.64 52.4 -17 49 C-23.02748172 43.39304026 -31.41569711 42.55123035 -39.37890625 42.75 C-45.56640642 43.34016395 -51.0351414 44.65156763 -56.1875 48.1875 C-58.13891874 51.21556357 -58.74666186 53.39644979 -58.4609375 57.015625 C-57.61323601 60.66505175 -55.92478642 62.83134177 -53 65 C-44.29125728 69.6461971 -34.99978911 71.51419571 -25.42288208 73.39553833 C26.39400838 83.64953007 26.39400838 83.64953007 40.6875 102.6875 C49.09751075 115.36866228 50.21770374 129.00744998 47.72265625 143.8125 C45.43446714 153.90526926 39.6505428 163.07808032 32 170 C31.47277344 170.51949219 30.94554687 171.03898438 30.40234375 171.57421875 C13.25818816 187.77198783 -9.82892731 192.43700638 -32.6875 192.3125 C-33.39720947 192.31034485 -34.10691895 192.3081897 -34.83813477 192.30596924 C-59.1557663 192.18730315 -82.58156414 186.55992572 -100.74609375 169.38671875 C-111.6624845 157.82707447 -117 143.86116054 -117 128 C-96.87 128 -76.74 128 -56 128 C-54.68 130.97 -53.36 133.94 -52 137 C-47.93400282 142.66775365 -42.5680119 143.77206734 -36 145 C-29.16335406 145.73249778 -21.61282746 144.31981553 -15.7734375 140.5703125 C-12.81508142 138.12327722 -11.23448625 136.70345876 -10 133 C-9.65150413 129.23624459 -9.60872892 126.78254215 -11.3125 123.375 C-18.11457159 117.36386696 -27.39494513 115.07670821 -36.0625 113.0625 C-37.08472656 112.81435547 -38.10695313 112.56621094 -39.16015625 112.31054688 C-44.68628773 110.97931253 -50.22686399 109.72146214 -55.77734375 108.49609375 C-88.94347473 101.15062309 -88.94347473 101.15062309 -102 90 C-102.99773438 89.18595703 -102.99773438 89.18595703 -104.015625 88.35546875 C-112.61264233 80.67422066 -116.43572194 69.52550544 -117.1796875 58.28515625 C-117.58268124 42.32212643 -112.3296223 29.97036248 -101.5625 18.375 C-100.716875 17.59125 -99.87125 16.8075 -99 16 C-98.49726562 15.48050781 -97.99453125 14.96101563 -97.4765625 14.42578125 C-74.40006636 -7.99570518 -29.0939579 -9.79974867 0 0 Z " fill="#2D2F2F" transform="translate(798,293)"/>
<path d="M0 0 C2.15648313 0.01613878 4.31110069 0.00000373 6.4675293 -0.01904297 C16.02739579 -0.03357154 24.79412461 1.12396135 34.09057617 3.39111328 C35.25496216 3.67317627 35.25496216 3.67317627 36.44287109 3.9609375 C52.75537728 8.25425342 68.20664801 18.4594558 77.52416992 32.64111328 C83.21363317 42.62959738 84.54010547 51.76258301 86.09057617 63.39111328 C65.63057617 63.39111328 45.17057617 63.39111328 24.09057617 63.39111328 C23.10057617 60.42111328 22.11057617 57.45111328 21.09057617 54.39111328 C17.24132912 49.33394351 12.10398832 48.48664182 6.09057617 47.39111328 C-1.78969314 46.62888485 -9.22331312 47.58156802 -16.34692383 51.07861328 C-19.66308515 54.07124667 -20.38465197 55.96803622 -20.90942383 60.39111328 C-19.73111767 65.02578417 -18.64409292 66.87252333 -14.72192383 69.64111328 C-6.59393687 73.61861651 1.64040372 75.48470071 10.46557617 77.26611328 C59.33852712 87.50164991 59.33852712 87.50164991 72.09057617 100.39111328 C72.79182617 101.06787109 73.49307617 101.74462891 74.21557617 102.44189453 C84.9519268 113.553228 86.58952944 125.52817888 86.36401367 140.29345703 C85.81517702 155.02781923 78.49998935 166.97820284 68.01245117 176.97314453 C50.22092586 191.69634529 28.11732517 197.04491008 5.40307617 196.82861328 C4.70980225 196.82523956 4.01652832 196.82186584 3.30224609 196.81838989 C-20.83222407 196.64911629 -44.74041552 191.2210116 -62.72192383 174.01611328 C-69.74043492 166.59654441 -73.89860479 159.13284989 -76.90942383 149.39111328 C-77.13629883 148.67826172 -77.36317383 147.96541016 -77.59692383 147.23095703 C-79.10921169 141.94845151 -78.90942383 138.22591793 -78.90942383 132.39111328 C-58.77942383 132.39111328 -38.64942383 132.39111328 -17.90942383 132.39111328 C-16.58942383 135.69111328 -15.26942383 138.99111328 -13.90942383 142.39111328 C-8.13096595 147.82966187 -2.26586914 148.98773872 5.46557617 149.70361328 C13.47671611 149.01299777 20.50912701 147.40190468 26.09057617 141.39111328 C27.97470513 138.27820457 28.09348344 136.5539202 28.02807617 132.89111328 C26.91631185 128.74052648 25.6748714 126.6338008 22.09057617 124.39111328 C13.31058219 120.41052729 4.28996864 118.05477475 -5.09692383 116.01611328 C-7.73777205 115.41987977 -10.37632029 114.8137356 -13.01489258 114.20751953 C-13.67512421 114.05647263 -14.33535583 113.90542572 -15.01559448 113.74980164 C-60.46920285 103.33257969 -60.46920285 103.33257969 -72.90942383 84.39111328 C-79.85017731 72.7097798 -80.67695667 59.20626234 -77.78442383 46.07861328 C-74.89354318 36.15549739 -69.56994879 27.3787543 -61.90942383 20.39111328 C-61.24942383 20.39111328 -60.58942383 20.39111328 -59.90942383 20.39111328 C-59.90942383 19.73111328 -59.90942383 19.07111328 -59.90942383 18.39111328 C-42.27465735 4.80500659 -21.94666155 -0.19441676 0 0 Z " fill="#2D2F2F" transform="translate(1173.909423828125,288.60888671875)"/>
<path d="M0 0 C8.48408311 -0.23221558 16.96682887 -0.40962888 25.45330906 -0.51812172 C29.39457876 -0.57020868 33.33366746 -0.64077866 37.27368164 -0.75439453 C41.07995247 -0.86346047 44.8841336 -0.92292007 48.69184685 -0.94877243 C50.14055223 -0.96718054 51.58914925 -1.00313444 53.03695869 -1.05730057 C64.35459089 -1.46368555 64.35459089 -1.46368555 68.37953186 2.11672974 C70.1931721 4.67277387 71.60963495 7.19523274 73 10 C74.04372611 11.67860706 75.10045511 13.34927111 76.17578125 15.0078125 C77.22441698 16.71166045 78.26992748 18.41743528 79.3125 20.125 C80.43704128 21.95731286 81.56204692 23.7893408 82.6875 25.62109375 C83.51701172 26.97243408 83.51701172 26.97243408 84.36328125 28.35107422 C85.9137525 30.86041387 87.48265971 33.35672661 89.0625 35.84765625 C89.52873779 36.58419434 89.99497559 37.32073242 90.4753418 38.07958984 C91.34835136 39.45581124 92.2246731 40.8299387 93.10473633 42.20166016 C96 46.77849491 96 46.77849491 96 49 C96.66 49 97.32 49 98 49 C98.40835083 47.91041992 98.40835083 47.91041992 98.82495117 46.79882812 C99.96290772 44.08834944 101.2646457 41.7215245 102.80078125 39.21875 C103.36732422 38.29191406 103.93386719 37.36507812 104.51757812 36.41015625 C105.10990234 35.44980469 105.70222656 34.48945313 106.3125 33.5 C106.86228516 32.60152344 107.41207031 31.70304687 107.97851562 30.77734375 C109.21057761 28.76720933 110.47587873 26.77724525 111.76538086 24.8034668 C113.61914565 21.84072632 114.96118814 18.80106405 116.31469727 15.58129883 C119.03617091 9.62242177 121.75590969 4.10630937 127 0 C135.98878601 -3.16500432 145.88044896 -2.09027222 155.24279785 -1.44195557 C158.71318868 -1.22488984 162.18685243 -1.1307758 165.66210938 -1.02539062 C172.44936894 -0.80186229 179.22373715 -0.44488455 186 0 C185.21793759 3.45861534 184.01084201 5.82809847 182.0625 8.8125 C181.43085937 9.78316406 180.79921875 10.75382812 180.1484375 11.75390625 C179.08496094 13.36072266 179.08496094 13.36072266 178 15 C177.62133789 15.57218262 177.24267578 16.14436523 176.85253906 16.73388672 C174.34561943 20.51692526 171.82420903 24.29014222 169.29833984 28.06054688 C167.19410581 31.20384043 165.09735507 34.35211425 163 37.5 C162.16670425 38.75002505 161.33337087 40.00002503 160.5 41.25 C160.0875 41.86875 159.675 42.4875 159.25 43.125 C145.5 63.75 145.5 63.75 144.24804688 65.62768555 C143.420923 66.86853316 142.59409644 68.10957902 141.76757812 69.35083008 C139.59172921 72.61761115 137.40970131 75.88004355 135.21875 79.13671875 C134.76371094 79.81476563 134.30867188 80.4928125 133.83984375 81.19140625 C132.96935294 82.48825991 132.09705725 83.78390456 131.22265625 85.078125 C130.13075121 86.70703252 129.0640532 88.3527638 128 90 C127.50242187 90.66515625 127.00484375 91.3303125 126.4921875 92.015625 C125.72802182 94.22210241 125.72802182 94.22210241 127.3515625 97.00390625 C128.09289497 98.20047278 128.85226775 99.38596689 129.625 100.5625 C130.03524414 101.21524902 130.44548828 101.86799805 130.86816406 102.54052734 C131.76278179 103.95972545 132.66480914 105.37427315 133.57324219 106.78466797 C135.00334754 109.00519773 136.41434779 111.23677509 137.8203125 113.47265625 C139.82035656 116.65127964 141.82778578 119.82506267 143.83984375 122.99609375 C147.03241596 128.03840139 150.17695839 133.10958748 153.3125 138.1875 C158.06853594 145.88425807 162.83618697 153.57358246 167.625 161.25 C168.25067871 162.25401855 168.87635742 163.25803711 169.52099609 164.29248047 C172.43536992 168.95502096 175.37343191 173.59716908 178.39453125 178.19140625 C178.91128418 178.97805664 179.42803711 179.76470703 179.96044922 180.57519531 C180.91788123 182.02542787 181.881392 183.47167272 182.85205078 184.91308594 C186 189.67316306 186 189.67316306 186 193 C177.52539053 193.56031176 169.05867358 193.98435433 160.57003689 194.24349213 C156.62566896 194.36801149 152.69407749 194.53598768 148.75708008 194.81054688 C123.4728634 196.52760852 123.4728634 196.52760852 116.16775513 190.76629639 C111.3025209 185.10199172 108.18221046 178.70548665 105.26657104 171.87512207 C103.66555996 168.24081959 101.71530923 165.18638076 99.47265625 161.9140625 C98.88935547 161.00785156 98.30605469 160.10164062 97.70507812 159.16796875 C96.55360766 157.38531174 95.39975712 155.60419088 94.24414062 153.82421875 C93.68017578 152.94636719 93.11621094 152.06851563 92.53515625 151.1640625 C92.044104 150.40561035 91.55305176 149.6471582 91.04711914 148.86572266 C90 147 90 147 90 145 C86.9709349 147.8245209 84.84245912 150.62387772 82.75 154.19140625 C82.14027344 155.22072266 81.53054688 156.25003906 80.90234375 157.31054688 C80.27457031 158.38369141 79.64679688 159.45683594 79 160.5625 C77.10500694 163.78562535 75.2027672 166.99110301 73.21386719 170.1574707 C71.46659924 173.0251518 70.16696598 175.93299928 68.88769531 179.03588867 C66.4169096 184.49936132 63.94329633 189.41160088 59 193 C49.98193933 195.89797666 40.15953658 194.88747992 30.8258667 194.30462646 C27.34835824 194.10841528 23.86819304 194.02311572 20.38671875 193.92773438 C13.58465651 193.72537074 6.79309964 193.40225712 0 193 C0.82143007 189.27273023 2.26364545 186.84986789 4.4375 183.6875 C7.53305494 179.16559347 10.59726309 174.62485747 13.6328125 170.0625 C14.06340469 169.41600998 14.49399689 168.76951996 14.93763733 168.10343933 C17.57298609 164.14610641 20.20602002 160.18723354 22.83894348 156.22828674 C24.13893071 154.27396626 25.43954666 152.32006528 26.74023438 150.36621094 C28.58922988 147.58865915 30.4349554 144.8089642 32.27929688 142.02832031 C37.01603971 134.89849652 41.80203609 127.81299922 46.72265625 120.80859375 C48.05548682 118.89790238 49.38730184 116.98650628 50.71902466 115.07504272 C51.56850386 113.86476507 52.42464022 112.65913101 53.28756714 111.45840454 C54.47843284 109.80128104 55.64610984 108.12756623 56.8125 106.453125 C57.47894531 105.51629883 58.14539062 104.57947266 58.83203125 103.61425781 C60.30668584 101.04538062 60.30668584 101.04538062 59.30810547 98.35302734 C57.62697006 95.32899169 55.92701995 92.32833248 54.125 89.375 C53.73135254 88.7245874 53.33770508 88.0741748 52.93212891 87.40405273 C48.80802544 80.62348976 44.55619426 73.92373306 40.3046875 67.22265625 C36.67601876 61.4986673 33.08753747 55.74982631 29.5 50 C24.91504545 42.65440056 20.31581677 35.31835606 15.6875 28 C15.20764648 27.23945313 14.72779297 26.47890625 14.23339844 25.6953125 C11.84684722 21.91347122 9.44975493 18.13900348 7.03515625 14.375 C6.10668336 12.91672235 5.17829411 11.45839146 4.25 10 C3.81905029 9.33484375 3.38810059 8.6696875 2.9440918 7.984375 C0 3.33921173 0 3.33921173 0 0 Z " fill="#2D2F2F" transform="translate(1573,290)"/>
<path d="M0 0 C19.47 0 38.94 0 59 0 C59 15.18 59 30.36 59 46 C71.46083695 45.96039654 71.46083695 45.96039654 83.92163086 45.90991211 C85.47770113 45.90699295 87.03377216 45.90444439 88.58984375 45.90234375 C89.40521606 45.89722778 90.22058838 45.89211182 91.06066895 45.88684082 C93.04080523 45.8865306 95.02084654 45.93761904 97 46 C98.6140925 47.6140925 98.12734318 49.36476408 98.12939453 51.59570312 C98.13254669 52.57341675 98.13569885 53.55113037 98.13894653 54.55847168 C98.13591019 56.15374695 98.13591019 56.15374695 98.1328125 57.78125 C98.13376923 58.86506958 98.13472595 59.94888916 98.13571167 61.06555176 C98.13639365 63.3622239 98.13453811 65.65889795 98.13037109 67.95556641 C98.12502312 71.48474428 98.1303155 75.01379487 98.13671875 78.54296875 C98.13605797 80.76822945 98.13477682 82.99349007 98.1328125 85.21875 C98.13483673 86.28226685 98.13686096 87.34578369 98.13894653 88.44152832 C98.13421829 89.90809875 98.13421829 89.90809875 98.12939453 91.40429688 C98.12859894 92.26953979 98.12780334 93.13478271 98.12698364 94.02624512 C98 96 98 96 97 97 C94.1883662 97.08861992 91.40141745 97.11522355 88.58984375 97.09765625 C87.74780899 97.0962413 86.90577423 97.09482635 86.03822327 97.09336853 C83.33794665 97.08775263 80.63775172 97.07519748 77.9375 97.0625 C76.11132932 97.05748705 74.28515734 97.05292379 72.45898438 97.04882812 C67.97262458 97.03777804 63.48632616 97.02050279 59 97 C59.06125817 107.457637 59.13839847 117.9150254 59.23571491 128.37239265 C59.28040797 133.22838806 59.3196665 138.08429977 59.34643555 142.94042969 C59.37247907 147.62845843 59.41288902 152.31616493 59.46318626 157.00399399 C59.47984786 158.7908718 59.49136655 160.57780534 59.49761391 162.36474991 C59.50726273 164.8712757 59.53533075 167.37697841 59.56762695 169.88330078 C59.56619186 170.61913895 59.56475677 171.35497711 59.5632782 172.1131134 C59.64825595 176.78822083 60.46137833 180.06030708 63 184 C69.91543433 187.82469187 77.25126211 187.5431919 85 187.6875 C89.29 187.790625 93.58 187.89375 98 188 C98 204.83 98 221.66 98 239 C91.895 239.04125 85.79 239.0825 79.5 239.125 C77.60958984 239.14320801 75.71917969 239.16141602 73.77148438 239.18017578 C50.97833039 239.30814331 29.69207693 236.92035892 12.328125 220.67578125 C-0.22314445 206.25024505 -0.43457257 188.11609777 -0.29296875 170.046875 C-0.28736394 167.93410546 -0.28309803 165.82133198 -0.28010559 163.70855713 C-0.26872652 158.18480402 -0.23931995 152.66129274 -0.20599365 147.13763428 C-0.1751422 141.4863207 -0.16156822 135.83496752 -0.14648438 130.18359375 C-0.11444282 119.12227324 -0.06173248 108.06119469 0 97 C-5.94 97 -11.88 97 -18 97 C-18 80.17 -18 63.34 -18 46 C-12.06 46 -6.12 46 0 46 C0 30.82 0 15.64 0 0 Z " fill="#2D2F2F" transform="translate(2391,244)"/>
<path d="M0 0 C0 19.8 0 39.6 0 60 C-10.395 60.495 -10.395 60.495 -21 61 C-31.66372927 62.63395852 -41.07217206 65.07425214 -47.94140625 74.03515625 C-53.04548961 83.50878699 -54.13819189 94.22323074 -54.20532227 104.76904297 C-54.21522186 105.73552261 -54.22512146 106.70200226 -54.23532104 107.69776917 C-54.26680459 110.87921737 -54.29164136 114.06068049 -54.31640625 117.2421875 C-54.33698713 119.45322041 -54.3579839 121.66424948 -54.37937927 123.87527466 C-54.43448278 129.68502694 -54.48394364 135.49481403 -54.53222656 141.30462646 C-54.59137646 148.28061722 -54.65753978 155.25654456 -54.72252655 162.23248291 C-54.82038853 172.82161643 -54.90934557 183.41079127 -55 194 C-74.8 194 -94.6 194 -115 194 C-115.0225445 168.98357911 -115.0409777 143.96716641 -115.05181217 118.95073795 C-115.05697577 107.33605143 -115.06401967 95.72137165 -115.07543945 84.10668945 C-115.08538436 73.98726489 -115.09185296 63.8678452 -115.09408849 53.74841589 C-115.09539593 48.3867202 -115.09848386 43.02503847 -115.10573006 37.66334724 C-115.11248722 32.62295454 -115.11461759 27.58258164 -115.11310768 22.54218483 C-115.11338415 20.68655032 -115.11539106 18.83091519 -115.11920547 16.97528458 C-115.12413799 14.45327056 -115.12299994 11.93133258 -115.12025452 9.40931702 C-115.12316736 8.66516779 -115.1260802 7.92101855 -115.12908131 7.15431935 C-115.11412121 2.11412121 -115.11412121 2.11412121 -114 1 C-112.15881971 0.90618698 -110.31402359 0.88256046 -108.47045898 0.88647461 C-107.28931015 0.88655014 -106.10816132 0.88662567 -104.89122009 0.88670349 C-103.6058284 0.89186478 -102.32043671 0.89702606 -100.99609375 0.90234375 C-99.0338662 0.90446617 -99.0338662 0.90446617 -97.03199768 0.90663147 C-93.54837141 0.9104559 -90.06478661 0.92028554 -86.58117676 0.93133545 C-83.02873302 0.94155118 -79.47628241 0.94618414 -75.92382812 0.95117188 C-68.94918209 0.96137768 -61.97465003 0.98094936 -55 1 C-54.67 11.56 -54.34 22.12 -54 33 C-52.494375 30.834375 -50.98875 28.66875 -49.4375 26.4375 C-36.96799667 8.90138132 -21.8139105 0 0 0 Z " fill="#2D2F2F" transform="translate(2355,289)"/>
<path d="M0 0 C2.81437684 2.19112384 5.4415106 4.51636003 8 7 C8.33 4.03 8.66 1.06 9 -2 C13.95 -2 18.9 -2 24 -2 C24.09061852 8.38836751 24.16389855 18.77646953 24.20724869 29.16514397 C24.22806184 33.98980349 24.25626401 38.81417695 24.30175781 43.63867188 C24.34544043 48.30063792 24.3691842 52.96233 24.37950897 57.62448502 C24.38686031 59.39697706 24.4012152 61.16945529 24.42292023 62.94182968 C24.56247804 74.8175244 24.34726214 85.28033043 15.765625 94.46875 C6.64415829 102.37940255 -4.26928914 103.84460218 -15.96191406 103.1953125 C-24.58680385 102.36877778 -32.90073947 99.26491946 -39 93 C-42.84097288 88.20166751 -43.90113301 82.95219617 -45 77 C-39.72 77 -34.44 77 -29 77 C-28.443125 78.093125 -27.88625 79.18625 -27.3125 80.3125 C-25.05400673 84.26286808 -22.60619018 86.19196724 -18.2109375 87.5546875 C-12.40166622 88.72475274 -6.2135536 88.6841893 -0.5625 86.9375 C3.61514762 83.77879083 6.46524436 80.36678883 7.6328125 75.19921875 C8.02191469 71.80906245 8.09731061 68.53643964 8.0625 65.125 C8.05347656 63.97257813 8.04445313 62.82015625 8.03515625 61.6328125 C8.02355469 60.76398437 8.01195312 59.89515625 8 59 C7.34 59.721875 6.68 60.44375 6 61.1875 C0.18963787 66.99786213 -5.91328434 70.10635483 -14.125 70.25 C-24.20962105 70.1024856 -31.78633532 67.13074899 -39 60 C-47.61866339 49.6877128 -48.984027 39.13374397 -48.19824219 26.09863281 C-47.27485769 16.32349343 -42.21000263 9.39225473 -35 3 C-25.24620191 -3.77779899 -10.64779771 -6.62631188 0 0 Z M-27.875 17.9375 C-32.7433456 24.95364514 -32.75650358 31.65009172 -32 40 C-30.40416136 45.75771327 -26.72439874 50.40045811 -22 54 C-16.65493672 56.61314205 -10.51601057 57.10899258 -4.8203125 55.3125 C1.31676483 52.53344611 5.35519422 48.24624343 8 42 C9.62214701 33.57215349 9.42503011 26.3082793 4.70703125 18.99609375 C0.9076913 14.11704862 -3.11651732 11.50847564 -9.38671875 10.6875 C-16.89978133 10.31932542 -22.81859752 12.2324628 -27.875 17.9375 Z " fill="#2D2F2F" transform="translate(962,759)"/>
<path d="M0 0 C2.62482365 2.47375466 4.86939964 5.09335315 7 8 C7.61875 7.43732422 7.61875 7.43732422 8.25 6.86328125 C17.12336006 -0.99994184 23.6430827 -4.40758876 35.609375 -4.2734375 C43.13074853 -3.66687512 49.41031556 -0.83055474 54.41705322 4.88552856 C59.94699961 12.2723301 60.56405642 20.19500287 60.390625 29.1328125 C60.38496521 30.25066132 60.37930542 31.36851013 60.37347412 32.52023315 C60.3512622 36.05560961 60.30109311 39.58993504 60.25 43.125 C60.22991543 45.53644359 60.21166811 47.94790323 60.1953125 50.359375 C60.15144701 56.23998213 60.08252448 62.11981349 60 68 C55.05 68 50.1 68 45 68 C44.98541748 66.74453369 44.97083496 65.48906738 44.95581055 64.19555664 C44.897511 59.50435976 44.82028141 54.81362706 44.73754883 50.12280273 C44.70444772 48.09879126 44.67637043 46.07469076 44.65356445 44.05053711 C44.61974463 41.12836027 44.56741659 38.20698842 44.51171875 35.28515625 C44.50532883 34.39103531 44.4989389 33.49691437 44.49235535 32.57569885 C44.33150615 25.58553082 43.61716366 18.61716366 38.5 13.5 C33.47233294 10.48339976 28.70957406 10.51900624 23 11 C17.78410192 12.73863269 15.59350287 15.19721691 13 20 C11.62960421 24.85950687 11.77514968 29.88317502 11.68359375 34.89453125 C11.6524221 36.31556404 11.6524221 36.31556404 11.62062073 37.76530457 C11.55542222 40.7809651 11.49637868 43.7967101 11.4375 46.8125 C11.39428652 48.86133674 11.35067134 50.91016504 11.30664062 52.95898438 C11.19977134 57.97257047 11.09842069 62.98624123 11 68 C6.05 68 1.1 68 -4 68 C-4.01458252 66.77482666 -4.02916504 65.54965332 -4.04418945 64.28735352 C-4.10250298 59.70796661 -4.17973219 55.12905452 -4.26245117 50.55004883 C-4.2955458 48.57454174 -4.32362504 46.59894361 -4.34643555 44.62329102 C-4.38026756 41.77060428 -4.4325957 38.91874035 -4.48828125 36.06640625 C-4.49467117 35.19415909 -4.5010611 34.32191193 -4.50764465 33.42323303 C-4.67854079 26.16929838 -5.76727631 19.67926843 -10.5 14 C-15.39137956 10.08689636 -20.9880612 10.37214373 -27 11 C-30.98174566 12.99087283 -33.72044197 15.16074436 -36 19 C-36.88561994 21.90024824 -37.14584796 24.56026792 -37.20532227 27.58496094 C-37.22526749 28.48559265 -37.24521271 29.38622437 -37.26576233 30.31414795 C-37.29083107 31.75966034 -37.29083107 31.75966034 -37.31640625 33.234375 C-37.33718735 34.22753723 -37.35796844 35.22069946 -37.37937927 36.24395752 C-37.44469749 39.41256882 -37.50367739 42.58126211 -37.5625 45.75 C-37.60570207 47.89974802 -37.64931691 50.04948778 -37.69335938 52.19921875 C-37.80036077 57.46606208 -37.90167822 62.73298778 -38 68 C-43.28 68 -48.56 68 -54 68 C-54 44.57 -54 21.14 -54 -3 C-48.72 -3 -43.44 -3 -38 -3 C-37.67 -0.69 -37.34 1.62 -37 4 C-36.175 3.236875 -35.35 2.47375 -34.5 1.6875 C-24.90277913 -6.1506015 -10.45525481 -6.65334397 0 0 Z " fill="#2D2F2F" transform="translate(726,760)"/>
<path d="M0 0 C4.95 0 9.9 0 15 0 C15 31.35 15 62.7 15 95 C10.05 95 5.1 95 0 95 C-0.33 91.7 -0.66 88.4 -1 85 C-2.03125 86.093125 -3.0625 87.18625 -4.125 88.3125 C-9.94476219 94.1205288 -15.63176104 95.96094852 -23.6875 96.25 C-32.74954294 96.14195776 -40.36001675 93.34092183 -47 87.12890625 C-54.68329001 79.20551343 -57.50097024 70.23593146 -58.25 59.375 C-58.04858253 48.82072434 -54.4535782 38.4433078 -46.92578125 30.9296875 C-39.00429533 24.32153694 -31.45646647 22.37748106 -21.21484375 22.65234375 C-12.30793056 23.61554578 -7.85834788 27.1214161 -1 33 C-0.67 22.11 -0.34 11.22 0 0 Z M-37.375 44.5 C-41.94432668 51.52973335 -41.8116578 58.9003315 -41 67 C-38.90133288 73.72697766 -34.98089108 77.52020883 -29 81 C-23.57292478 82.67316943 -18.65696907 82.53360021 -13.3125 80.8125 C-7.4275232 77.59241835 -3.46239358 73.2385953 -1.26953125 66.8828125 C0.74104627 59.25480323 -0.32312714 52.0317159 -4.0390625 45.046875 C-7.67926688 40.14374257 -12.75902739 37.50551614 -18.6796875 36.58203125 C-26.87089985 36.16225998 -31.80706806 38.63901901 -37.375 44.5 Z " fill="#2D2F2F" transform="translate(1450,733)"/>
<path d="M0 0 C2.27699958 1.87463821 4.06148981 3.75540926 6 6 C6.33 3.03 6.66 0.06 7 -3 C12.28 -3 17.56 -3 23 -3 C23 20.43 23 43.86 23 68 C17.72 68 12.44 68 7 68 C6.505 63.545 6.505 63.545 6 59 C4.96875 59.928125 3.9375 60.85625 2.875 61.8125 C-4.83667926 68.41805961 -12.11109053 69.69695772 -22 69 C-30.62078633 67.60168793 -37.15092049 63.52981191 -42.7890625 56.89453125 C-50.49277631 46.17384577 -51.55010006 33.8173004 -49.53125 21.03125 C-47.251656 12.23853027 -41.4858365 5.05032482 -34 0 C-23.61291191 -6.00474392 -10.35307998 -6.25735603 0 0 Z M-30 18 C-34.15899475 24.08995659 -34.58933221 29.76431011 -34 37 C-32.71777114 43.07428755 -29.62265442 47.88855677 -25 52 C-19.76895071 55.05967034 -14.93547407 55.90055469 -9 55 C-2.87391609 53.12193048 1.64090808 49.43642508 5 44 C7.95063756 36.79363519 7.67850188 29.46174697 5.04296875 22.2109375 C2.78610771 17.42673019 -0.43205718 14.13037738 -4.6875 11.0625 C-14.84660711 7.80391848 -22.97519843 10.02590092 -30 18 Z " fill="#2D2F2F" transform="translate(312,760)"/>
<path d="M0 0 C2.27699958 1.87463821 4.06148981 3.75540926 6 6 C6.33 3.03 6.66 0.06 7 -3 C12.28 -3 17.56 -3 23 -3 C23 20.43 23 43.86 23 68 C17.72 68 12.44 68 7 68 C6.67 64.7 6.34 61.4 6 58 C5.525625 58.721875 5.05125 59.44375 4.5625 60.1875 C-0.16230993 65.37326699 -6.43097081 68.62046403 -13.4453125 69.203125 C-23.46609202 69.3784156 -31.18721655 67.56307015 -38.9609375 61.01171875 C-47.17525392 52.907556 -50.11961314 43.7951323 -50.3125 32.4375 C-50.02617005 21.04156783 -48.02466728 13.55473457 -40.1796875 5.01953125 C-29.33048979 -5.28061799 -13.12503274 -7.9327121 0 0 Z M-29.3125 16.3125 C-33.90993069 23.63433406 -34.84876692 29.35908125 -34 38 C-31.93874753 44.98535561 -27.9535725 50.27243873 -21.6875 53.9375 C-15.73699727 55.65205163 -10.59196618 55.98164101 -4.8125 53.5 C0.75839883 50.34204537 4.54621254 45.2872152 6.4375 39.1875 C7.63922076 32.97043445 6.89670164 26.64028816 4.875 20.6875 C1.49954706 15.84935079 -3.1278525 11.3656157 -9 10 C-17.17024369 9.09219515 -23.40715275 10.40715275 -29.3125 16.3125 Z " fill="#2D2F2F" transform="translate(1606,760)"/>
<path d="M0 0 C2.19294441 1.5513214 4.04281575 3.14582545 6 5 C6.33 2.36 6.66 -0.28 7 -3 C12.28 -3 17.56 -3 23 -3 C23 20.43 23 43.86 23 68 C17.72 68 12.44 68 7 68 C6.505 63.545 6.505 63.545 6 59 C5.52691406 59.47050781 5.05382813 59.94101562 4.56640625 60.42578125 C-1.92353911 66.53619765 -7.57267745 69.06372655 -16.5 69.375 C-26.63755409 69.06307526 -34.15079318 65.1703029 -41.125 57.875 C-48.46902722 49.33739284 -50.78242768 39.13454777 -50 28 C-48.75449949 18.11482504 -45.32823681 9.90707377 -38 3 C-26.88780956 -5.55480242 -12.32930137 -6.95328167 0 0 Z M-29.671875 17.1484375 C-34.00901063 23.19491482 -34.53518184 30.21087055 -33.5625 37.39453125 C-31.99503659 44.65493468 -28.94228261 48.61647271 -22.90234375 52.87109375 C-18.43363853 55.52295372 -14.03394258 55.43773414 -9 55 C-2.54014294 53.21797047 1.26022943 49.38763781 5 44 C8.00958021 37.9707741 7.81528057 31.57230563 7 25 C4.58775922 18.62003905 1.0671588 14.10099228 -5 11 C-14.31912047 7.89362651 -23.00610986 10.02659369 -29.671875 17.1484375 Z " fill="#2D2F2F" transform="translate(2203,760)"/>
<path d="M0 0 C7.40297904 6.12089887 12.05360901 12.86756518 13.72265625 22.421875 C13.98994822 26.77144433 14.06358201 31.07507152 13.72265625 35.421875 C12.72265625 36.421875 12.72265625 36.421875 10.59031677 36.54212952 C9.65099808 36.53990891 8.71167938 36.53768829 7.74389648 36.53540039 C6.68287216 36.53532486 5.62184784 36.53524933 4.52867126 36.53517151 C2.79744774 36.52742958 2.79744774 36.52742958 1.03125 36.51953125 C-0.14372543 36.5181163 -1.31870087 36.51670135 -2.52928162 36.51524353 C-6.29949439 36.50962492 -10.06964879 36.49706926 -13.83984375 36.484375 C-16.38867102 36.4793624 -18.93749922 36.47479908 -21.48632812 36.47070312 C-27.75002008 36.45964944 -34.01367774 36.44289321 -40.27734375 36.421875 C-39.67976673 38.02948915 -39.07077263 39.63286226 -38.45703125 41.234375 C-38.11913574 42.12769531 -37.78124023 43.02101563 -37.43310547 43.94140625 C-35.26416185 48.59634228 -32.0450652 50.55765562 -27.46484375 52.796875 C-21.71808688 53.92369007 -17.07279003 53.38609615 -11.90234375 50.609375 C-9.23628483 48.66938784 -9.23628483 48.66938784 -8.15625 46.30078125 C-5.92612716 44.07065841 -5.3166739 44.12791893 -2.265625 44.03125 C-0.70655236 44.05778741 0.85227456 44.10541901 2.41015625 44.171875 C3.60608398 44.19894531 3.60608398 44.19894531 4.82617188 44.2265625 C6.79218074 44.27365253 8.75757119 44.34539601 10.72265625 44.421875 C9.72214536 50.89108744 6.57703572 55.89978016 1.67578125 60.23046875 C-7.19078476 66.5345343 -16.5165483 68.44807006 -27.27734375 67.421875 C-36.23585261 65.84790565 -43.94556602 61.70143132 -49.65234375 54.546875 C-56.61581068 44.47781755 -57.70879049 32.39874437 -55.81640625 20.53125 C-53.39348517 11.46667466 -48.06364343 3.69755953 -40.27734375 -1.578125 C-28.24097721 -8.15044506 -11.31361048 -7.83996335 0 0 Z M-36.15234375 14.171875 C-38.87250282 17.94432674 -38.87250282 17.94432674 -40.27734375 25.421875 C-28.06734375 25.421875 -15.85734375 25.421875 -3.27734375 25.421875 C-3.27734375 19.16501315 -3.56470866 18.03758349 -7.27734375 13.421875 C-12.13681901 8.93620553 -16.43899652 6.90647206 -23.16015625 7.109375 C-28.51538836 7.89981516 -32.30292803 10.48982519 -36.15234375 14.171875 Z " fill="#2D2F2F" transform="translate(1534.27734375,761.578125)"/>
<path d="M0 0 C6.11839744 5.09290333 9.34460885 11.0394074 11.07421875 18.7265625 C11.07421875 24.0065625 11.07421875 29.2865625 11.07421875 34.7265625 C-6.41578125 34.7265625 -23.90578125 34.7265625 -41.92578125 34.7265625 C-38.60621165 44.87073352 -38.60621165 44.87073352 -30.67578125 50.6015625 C-24.83216217 52.35464822 -20.26354328 51.60873685 -14.61328125 49.4765625 C-11.78264576 47.90176081 -11.78264576 47.90176081 -10.3046875 45.13671875 C-7.69064163 42.48833402 -7.31636335 42.36979715 -3.81640625 42.23828125 C-2.26877518 42.27135029 -0.72152209 42.33075143 0.82421875 42.4140625 C2.01337891 42.44790039 2.01337891 42.44790039 3.2265625 42.48242188 C5.17659495 42.54115779 7.12565187 42.63083596 9.07421875 42.7265625 C6.26646354 51.5282647 1.31388769 58.19588563 -6.82421875 62.80078125 C-16.24349455 67.01683265 -28.22548794 67.21430841 -37.92578125 63.7265625 C-46.25624846 59.73293028 -52.73823622 53.68214863 -56.1484375 45.046875 C-60.17885805 33.01637347 -59.95860325 21.65907478 -54.671875 9.94921875 C-50.29828641 2.02432389 -44.23856552 -2.76359525 -35.92578125 -6.2734375 C-23.12878105 -9.4895553 -10.6997565 -7.58132834 0 0 Z M-39.48828125 13.6015625 C-41.33721153 17.22969535 -41.33721153 17.22969535 -41.92578125 23.7265625 C-29.71578125 23.7265625 -17.50578125 23.7265625 -4.92578125 23.7265625 C-6.88602917 14.05136588 -6.88602917 14.05136588 -13.78515625 8.5390625 C-23.12024687 3.32877936 -32.4349035 5.68801673 -39.48828125 13.6015625 Z " fill="#2D2F2F" transform="translate(2133.92578125,763.2734375)"/>
<path d="M0 0 C8.7838906 6.15207605 14.01856461 13.21550578 16.546875 23.55859375 C17.79227488 36.26167256 16.21905286 47.10830159 8.234375 57.37109375 C1.41738771 64.87493114 -7.12635018 68.22264041 -17.01953125 68.9609375 C-27.81601038 69.30565267 -36.83036941 66.82291623 -45.140625 59.74609375 C-52.8869217 51.7591354 -55.7193365 43.31524592 -55.578125 32.30859375 C-55.57055176 31.47674561 -55.56297852 30.64489746 -55.55517578 29.7878418 C-55.38502681 23.44203022 -54.47808103 18.24613812 -51.140625 12.74609375 C-50.71652344 12.03324219 -50.29242187 11.32039062 -49.85546875 10.5859375 C-45.09953889 3.49840971 -37.96204911 -1.37934539 -29.78515625 -3.78515625 C-19.75663477 -5.56273761 -8.93344639 -5.23291294 0 0 Z M-35.640625 16.18359375 C-40.16611496 23.9146391 -40.47984365 33.4371184 -38.640625 42.1015625 C-36.40880904 47.84595245 -31.66908639 52.23315675 -26.140625 54.74609375 C-20.28093146 56.33690899 -15.70314242 55.927473 -10.28515625 53.17578125 C-5.34663831 49.88343596 -2.0197801 45.81019702 0.296875 40.37109375 C1.61473264 31.8782334 1.3993966 25.24829337 -3.140625 17.74609375 C-7.4316101 12.38236237 -12.77643926 9.30679137 -19.515625 8.18359375 C-25.75765706 9.15218493 -31.11217947 11.76835935 -35.640625 16.18359375 Z " fill="#2D2F2F" transform="translate(1166.140625,760.25390625)"/>
<path d="M0 0 C8.34999511 6.19736911 13.7180008 13.21353698 16.31640625 23.390625 C17.25372906 34.87282937 16.3820257 45.82696169 9.3671875 55.41796875 C1.98990339 63.75541999 -6.44595911 67.82764912 -17.4765625 68.69140625 C-28.74348431 68.9573336 -38.13045281 66.31925852 -46.43359375 58.453125 C-54.34509421 50.11008815 -55.92472966 40.92211189 -55.85766602 29.78588867 C-55.54702111 20.37763646 -52.50806639 12.64657944 -46.43359375 5.453125 C-45.77359375 5.453125 -45.11359375 5.453125 -44.43359375 5.453125 C-44.10359375 4.463125 -43.77359375 3.473125 -43.43359375 2.453125 C-40.8515625 0.8828125 -40.8515625 0.8828125 -37.62109375 -0.671875 C-36.03361328 -1.44917969 -36.03361328 -1.44917969 -34.4140625 -2.2421875 C-24.02873011 -6.78832252 -9.62245644 -6.11636075 0 0 Z M-35.1484375 15.4609375 C-40.00625608 23.09264089 -40.19756188 30.63195811 -39.43359375 39.453125 C-37.89657965 45.03377901 -35.44323384 49.15531909 -30.68359375 52.515625 C-25.58910895 55.19190219 -20.66537244 56.35464891 -15.0390625 54.78515625 C-9.00903673 52.33514578 -5.00035883 49.139008 -1.68359375 43.453125 C1.51557633 35.77511681 1.41873338 28.28959765 -1.46875 20.55859375 C-4.24200871 14.50682678 -8.15084975 11.50627216 -14.1796875 9.15234375 C-21.8069803 6.78616453 -29.93998089 9.36265346 -35.1484375 15.4609375 Z " fill="#2D2F2F" transform="translate(594.43359375,760.546875)"/>
<path d="M0 0 C8.7838906 6.15207605 14.01856461 13.21550578 16.546875 23.55859375 C17.78414593 36.17875726 16.59242199 46.38964058 8.859375 56.74609375 C1.87380682 64.45227843 -6.5017965 68.30132935 -16.82421875 68.90234375 C-27.74571217 69.23624928 -36.70564497 66.92067446 -45.140625 59.74609375 C-53.65993224 50.59434886 -55.56828547 40.76758159 -55.3515625 28.5390625 C-54.86600585 19.80803463 -51.91020955 12.39959793 -46.140625 5.74609375 C-45.480625 5.74609375 -44.820625 5.74609375 -44.140625 5.74609375 C-44.140625 5.08609375 -44.140625 4.42609375 -44.140625 3.74609375 C-32.15534271 -6.14911207 -13.45609914 -7.88213106 0 0 Z M-36.140625 17.74609375 C-40.35536768 24.43154765 -39.97447031 32.07311334 -39.140625 39.74609375 C-37.58109794 45.32717903 -35.15862737 49.44238407 -30.390625 52.80859375 C-25.2961402 55.48487094 -20.37240369 56.64761766 -14.74609375 55.078125 C-8.04273726 52.35453903 -3.40634711 48.27753797 -0.140625 41.74609375 C2.24460987 34.15671007 1.3831704 26.18472935 -1.80859375 19.01171875 C-4.57728947 14.30250023 -8.23549832 11.61927681 -13.140625 9.37109375 C-22.67688691 7.38437252 -29.98880892 10.18814827 -36.140625 17.74609375 Z " fill="#2D2F2F" transform="translate(1964.140625,760.25390625)"/>
<path d="M0 0 C5.61 0 11.22 0 17 0 C19.70543965 5.96248098 22.19048962 11.94311941 24.453125 18.0859375 C24.75820984 18.90953766 25.06329468 19.73313782 25.37762451 20.58169556 C26.01435073 22.30373476 26.64952943 24.02634691 27.28320312 25.74951172 C28.25595372 28.39116826 29.23712233 31.02959996 30.21875 33.66796875 C30.83905256 35.34876988 31.45886218 37.02975302 32.078125 38.7109375 C32.37180969 39.49842377 32.66549438 40.28591003 32.96807861 41.09725952 C34.09795545 44.18844084 35 46.6814594 35 50 C35.66 50 36.32 50 37 50 C37.39445312 48.78828125 37.78890625 47.5765625 38.1953125 46.328125 C40.27802777 40.08242083 42.57937211 33.91993082 44.875 27.75 C45.29652344 26.61175781 45.71804687 25.47351563 46.15234375 24.30078125 C48.33259483 18.42677145 50.53294888 12.56038639 52.7578125 6.703125 C53.16402832 5.63223633 53.57024414 4.56134766 53.98876953 3.45800781 C55 1 55 1 56 0 C58.69654854 -0.07319621 61.36691458 -0.09242537 64.0625 -0.0625 C64.82111328 -0.05798828 65.57972656 -0.05347656 66.36132812 -0.04882812 C68.24091871 -0.0370068 70.12046899 -0.01907078 72 0 C70.09971787 6.85434382 67.73855497 13.31162939 64.86328125 19.8125 C64.05736807 21.66374166 63.25221326 23.51531362 62.44775391 25.3671875 C62.0399469 26.30272461 61.63213989 27.23826172 61.2119751 28.20214844 C59.30735499 32.59897505 57.45434794 37.0170048 55.60546875 41.4375 C55.24538223 42.29747589 54.88529572 43.15745178 54.51429749 44.04348755 C53.40453322 46.69531129 52.29601083 49.34765209 51.1875 52 C50.40507038 53.8696461 49.62259912 55.73927477 48.84008789 57.60888672 C45.27565369 66.12998054 41.72166473 74.65515469 38.203125 83.1953125 C37.91879105 83.88502136 37.63445709 84.57473022 37.34150696 85.28533936 C36.03724973 88.45040783 34.73633183 91.6167517 33.44018555 94.78515625 C32.99457275 95.86925781 32.54895996 96.95335937 32.08984375 98.0703125 C31.70691162 99.00633301 31.32397949 99.94235352 30.92944336 100.90673828 C30 103 30 103 29 104 C26.30345146 104.07319621 23.63308542 104.09242537 20.9375 104.0625 C20.17888672 104.05798828 19.42027344 104.05347656 18.63867188 104.04882812 C16.75908129 104.0370068 14.87953101 104.01907078 13 104 C14.97424093 96.77185679 17.57352483 90.02378872 20.625 83.1875 C21.43425524 81.37051711 22.23910492 79.55156423 23.0390625 77.73046875 C23.39178223 76.94051514 23.74450195 76.15056152 24.10791016 75.33666992 C26.14035353 70.01304771 26.05646215 67.20141784 23.9296875 61.85546875 C23.45120361 60.63585449 22.97271973 59.41624023 22.47973633 58.15966797 C21.94508032 56.83550854 21.41016164 55.51145515 20.875 54.1875 C20.3331949 52.81958212 19.79243988 51.4512479 19.25268555 50.08251953 C16.33267691 42.70504858 13.33662871 35.35825928 10.33984375 28.01171875 C10.04325867 27.28407822 9.74667358 26.55643768 9.44110107 25.80674744 C8.00375551 22.28311658 6.56002232 18.76238043 5.10302734 15.24682617 C4.5751707 13.96404007 4.04733745 12.68124435 3.51953125 11.3984375 C3.05651611 10.28130371 2.59350098 9.16416992 2.11645508 8.01318359 C1 5 1 5 0 0 Z " fill="#2D2F2F" transform="translate(2349,757)"/>
<path d="M0 0 C5.61 0 11.22 0 17 0 C20.98112628 9.28179723 24.51556171 18.67475211 27.93139648 28.17626953 C28.82400167 30.65696502 29.72326869 33.13517968 30.62304688 35.61328125 C31.19310367 37.19256569 31.76277971 38.77198763 32.33203125 40.3515625 C32.73504204 41.46079575 32.73504204 41.46079575 33.14619446 42.59243774 C35 47.77015413 35 47.77015413 35 50 C35.66 50 36.32 50 37 50 C37.10723389 49.33121826 37.21446777 48.66243652 37.32495117 47.97338867 C38.15434217 44.32016879 39.44797768 40.90878742 40.80078125 37.42578125 C41.21725166 36.33997017 41.21725166 36.33997017 41.64213562 35.23222351 C42.52853243 32.92419626 43.42050499 30.61836862 44.3125 28.3125 C44.9007413 26.78203578 45.48863524 25.251438 46.07617188 23.72070312 C47.70734182 19.47651901 49.3500755 15.23692551 51 11 C51.42071777 9.91895996 51.84143555 8.83791992 52.27490234 7.72412109 C52.63148926 6.81871582 52.98807617 5.91331055 53.35546875 4.98046875 C53.65477295 4.22016357 53.95407715 3.4598584 54.26245117 2.67651367 C55 1 55 1 56 0 C58.69654854 -0.07319621 61.36691458 -0.09242537 64.0625 -0.0625 C64.82111328 -0.05798828 65.57972656 -0.05347656 66.36132812 -0.04882812 C68.24091871 -0.0370068 70.12046899 -0.01907078 72 0 C69.49072486 8.19259608 66.14387867 15.98822654 62.79275513 23.86233521 C60.99450247 28.08769478 59.20714222 32.31766503 57.41796875 36.546875 C56.86724953 37.84728477 56.86724953 37.84728477 56.30540466 39.17396545 C52.84027628 47.36160316 49.42163015 55.56826384 46.01113892 63.77877808 C40.42643918 77.22319936 34.78593362 90.64060856 29 104 C23.72 104 18.44 104 13 104 C13.87710265 99.61448673 14.98553132 96.53260372 16.828125 92.51953125 C17.38700083 91.26046762 17.94424162 90.00067718 18.5 88.74023438 C19.36988388 86.77589355 20.24765038 84.8175475 21.15429688 82.86987305 C25.43310744 74.22512546 25.43310744 74.22512546 25.203125 64.91015625 C24.51157417 63.25488819 23.77324093 61.61871967 23 60 C22.153069 57.88929445 21.30957036 55.77720972 20.46875 53.6640625 C19.48309999 51.31605332 18.4933266 48.96977191 17.5 46.625 C16.42849895 44.06928577 15.36215697 41.51143694 14.296875 38.953125 C13.89024628 37.977491 13.89024628 37.977491 13.47540283 36.98214722 C10.74810608 30.4231771 8.09407587 23.83597095 5.48364258 17.22967529 C4.76035161 15.40116924 4.03158162 13.57483357 3.30273438 11.74853516 C2.86767578 10.64300293 2.43261719 9.5374707 1.984375 8.3984375 C1.59991211 7.42567871 1.21544922 6.45291992 0.81933594 5.45068359 C0 3 0 3 0 0 Z " fill="#2D2F2F" transform="translate(1034,757)"/>
<path d="M0 0 C5.28 0 10.56 0 16 0 C16.01458252 1.36205566 16.02916504 2.72411133 16.04418945 4.12744141 C16.10227305 9.19313473 16.17950591 14.25838825 16.26245117 19.32373047 C16.2956531 21.51376188 16.3236997 23.70387789 16.34643555 25.89404297 C16.38006809 29.0469153 16.43238948 32.19901573 16.48828125 35.3515625 C16.49467117 36.32678864 16.5010611 37.30201477 16.50764465 38.30679321 C16.62153122 43.60293857 17.01063638 47.43754724 20 52 C24.74571678 56.38978803 28.44022969 57.27522652 34.7109375 57.234375 C37.90197344 56.90764777 40.25904183 55.60446332 43 54 C43.66 54 44.32 54 45 54 C45.309375 53.21625 45.61875 52.4325 45.9375 51.625 C47 49 47 49 48 47 C48.11805177 45.4892243 48.17696449 43.97361169 48.20532227 42.45849609 C48.22526749 41.51767181 48.24521271 40.57684753 48.26576233 39.60751343 C48.28247482 38.58976837 48.29918732 37.57202332 48.31640625 36.5234375 C48.33718735 35.48305328 48.35796844 34.44266907 48.37937927 33.37075806 C48.44489872 30.03890751 48.50377092 26.7069765 48.5625 23.375 C48.60568294 21.11978326 48.64929715 18.86457473 48.69335938 16.609375 C48.80058258 11.07299967 48.90184329 5.5365432 49 0 C54.28 0 59.56 0 65 0 C65 23.43 65 46.86 65 71 C59.72 71 54.44 71 49 71 C48.505 67.535 48.505 67.535 48 64 C47.21625 64.763125 46.4325 65.52625 45.625 66.3125 C40.0127554 70.96075906 32.55985539 72.62390224 25.36328125 72.35546875 C18.77208077 71.36406504 11.57497598 68.97865033 7 64 C1.07613736 55.07077597 -0.30259558 47.35301749 -0.1953125 36.81640625 C-0.1924826 35.76090073 -0.18965271 34.7053952 -0.18673706 33.61790466 C-0.17559415 30.26598496 -0.15050024 26.91433816 -0.125 23.5625 C-0.1149626 21.28190492 -0.10583808 19.00130562 -0.09765625 16.72070312 C-0.07567407 11.14703119 -0.04118473 5.57356178 0 0 Z " fill="#2D2F2F" transform="translate(1195,757)"/>
<path d="M0 0 C5.85378666 5.20090686 9.71436232 11.22693354 11 19 C11.08241543 20.68696995 11.11788967 22.37669755 11.11352539 24.06567383 C11.11341209 25.53663261 11.11341209 25.53663261 11.11329651 27.03730774 C11.10813522 28.0833165 11.10297394 29.12932526 11.09765625 30.20703125 C11.0962413 31.28756271 11.09482635 32.36809418 11.09336853 33.48136902 C11.0877808 36.92510776 11.0752305 40.36878098 11.0625 43.8125 C11.05748342 46.15038968 11.05292079 48.48828039 11.04882812 50.82617188 C11.03781538 56.55080642 11.02055912 62.2753921 11 68 C6.05 68 1.1 68 -4 68 C-4.029729 66.26097412 -4.029729 66.26097412 -4.06005859 64.48681641 C-4.13670868 60.14416486 -4.22532952 55.80182273 -4.31738281 51.45947266 C-4.35542907 49.58779046 -4.39032222 47.7160412 -4.421875 45.84423828 C-4.46805969 43.13810408 -4.52595977 40.43242212 -4.5859375 37.7265625 C-4.59748871 36.90322418 -4.60903992 36.07988586 -4.62094116 35.2315979 C-4.79304323 28.30172031 -5.17057995 21.0280056 -8.8125 15 C-13.43364849 10.77494995 -18.32240067 10.56630365 -24.33984375 10.6796875 C-29.06486813 11.24863317 -31.71444848 13.58146039 -34.8125 17 C-36.83752481 20.4105681 -37.1283461 23.67017295 -37.20532227 27.58496094 C-37.22526749 28.48559265 -37.24521271 29.38622437 -37.26576233 30.31414795 C-37.29083107 31.75966034 -37.29083107 31.75966034 -37.31640625 33.234375 C-37.33718735 34.22753723 -37.35796844 35.22069946 -37.37937927 36.24395752 C-37.44469749 39.41256882 -37.50367739 42.58126211 -37.5625 45.75 C-37.60570207 47.89974802 -37.64931691 50.04948778 -37.69335938 52.19921875 C-37.80036077 57.46606208 -37.90167822 62.73298778 -38 68 C-43.28 68 -48.56 68 -54 68 C-54 44.57 -54 21.14 -54 -3 C-48.72 -3 -43.44 -3 -38 -3 C-37.67 -0.69 -37.34 1.62 -37 4 C-36.175 3.236875 -35.35 2.47375 -34.5 1.6875 C-24.86811564 -6.17891136 -10.50056849 -6.60668457 0 0 Z " fill="#2D2F2F" transform="translate(406,760)"/>
<path d="M0 0 C7.48456011 5.84333332 10.51053842 12.81142451 12 22 C12.2466494 25.65145713 12.23466063 29.28300878 12.1953125 32.94140625 C12.1924826 33.94968979 12.18965271 34.95797333 12.18673706 35.99681091 C12.17563177 39.18549983 12.15054545 42.37389741 12.125 45.5625 C12.11495772 47.73762612 12.10583406 49.91275669 12.09765625 52.08789062 C12.07572411 57.39203762 12.04126168 62.69596959 12 68 C6.72 68 1.44 68 -4 68 C-4.01458252 66.70900391 -4.02916504 65.41800781 -4.04418945 64.08789062 C-4.1024131 59.27186176 -4.17964414 54.45628871 -4.26245117 49.640625 C-4.2955876 47.5612735 -4.32365424 45.48183448 -4.34643555 43.40234375 C-4.38018951 40.40326854 -4.4325156 37.40498713 -4.48828125 34.40625 C-4.49467117 33.48509399 -4.5010611 32.56393799 -4.50764465 31.61486816 C-4.63921245 25.7636323 -5.52295527 21.32774472 -8 16 C-13.05042154 11.19594048 -16.46196667 10.70048322 -23.23828125 10.7890625 C-26.85764255 11.06550594 -29.06647933 11.85352146 -32 14 C-37.30354031 20.59359065 -37.1684624 26.79675638 -37.31640625 34.89453125 C-37.33718735 35.84188644 -37.35796844 36.78924164 -37.37937927 37.76530457 C-37.44457778 40.7809651 -37.50362132 43.7967101 -37.5625 46.8125 C-37.60571348 48.86133674 -37.64932866 50.91016504 -37.69335938 52.95898438 C-37.80022866 57.97257047 -37.90157931 62.98624123 -38 68 C-42.95 68 -47.9 68 -53 68 C-53 44.57 -53 21.14 -53 -3 C-48.05 -3 -43.1 -3 -38 -3 C-37.67 -0.36 -37.34 2.28 -37 5 C-36.278125 4.236875 -35.55625 3.47375 -34.8125 2.6875 C-25.3899009 -6.31631692 -11.05961687 -6.62799535 0 0 Z " fill="#2D2F2F" transform="translate(890,760)"/>
<path d="M0 0 C6.03458934 4.14590108 9.69843522 9.49641756 12.046875 16.40625 C13.01931633 23.02112463 13.19573184 29.64200018 13.1796875 36.31640625 C13.18064423 37.20992294 13.18160095 38.10343964 13.18258667 39.02403259 C13.18326116 40.89029003 13.18145849 42.75654993 13.17724609 44.62280273 C13.17182975 47.49272807 13.17724491 50.36250096 13.18359375 53.23242188 C13.18293396 55.05208368 13.18165485 56.87174539 13.1796875 58.69140625 C13.18171173 59.55169937 13.18373596 60.41199249 13.18582153 61.2983551 C13.16186384 67.29126116 13.16186384 67.29126116 12.046875 68.40625 C9.51638098 68.47938567 7.01382663 68.49872527 4.484375 68.46875 C3.41799805 68.46198242 3.41799805 68.46198242 2.33007812 68.45507812 C0.56897487 68.44325864 -1.19208536 68.42532263 -2.953125 68.40625 C-2.95859344 67.5872522 -2.95859344 67.5872522 -2.96417236 66.75170898 C-3.00616151 61.04059114 -3.07562048 55.3302647 -3.16064453 49.61962891 C-3.18877443 47.49177995 -3.21002846 45.36382806 -3.22412109 43.23583984 C-3.24566108 40.1671102 -3.29236871 37.09960789 -3.34375 34.03125 C-3.34497864 33.08822021 -3.34620728 32.14519043 -3.34747314 31.17358398 C-3.51022852 23.74236313 -5.11215248 18.1779305 -10.515625 12.90625 C-16.48732225 10.30041847 -22.35296465 10.4776213 -28.453125 12.65625 C-33.0076138 15.84439216 -34.51568949 19.09566265 -35.953125 24.40625 C-36.27676153 27.80800893 -36.32483203 31.20168245 -36.3671875 34.6171875 C-36.38655365 35.58532379 -36.4059198 36.55346008 -36.4258728 37.55093384 C-36.4854083 40.6276177 -36.5319497 43.70433951 -36.578125 46.78125 C-36.61632873 48.87371377 -36.65538185 50.96616222 -36.6953125 53.05859375 C-36.79108845 58.17435396 -36.87521542 63.29018776 -36.953125 68.40625 C-41.903125 68.40625 -46.853125 68.40625 -51.953125 68.40625 C-51.953125 44.97625 -51.953125 21.54625 -51.953125 -2.59375 C-47.003125 -2.59375 -42.053125 -2.59375 -36.953125 -2.59375 C-36.623125 0.04625 -36.293125 2.68625 -35.953125 5.40625 C-35.23125 4.643125 -34.509375 3.88 -33.765625 3.09375 C-24.59275831 -5.67143373 -10.87450825 -6.39676956 0 0 Z " fill="#2D2F2F" transform="translate(1836.953125,759.59375)"/>
<path d="M0 0 C4.5626244 3.67155128 7.14690954 6.85680819 8.78515625 12.48828125 C8.78515625 14.46828125 8.78515625 16.44828125 8.78515625 18.48828125 C3.50515625 18.48828125 -1.77484375 18.48828125 -7.21484375 18.48828125 C-8.20484375 16.17828125 -9.19484375 13.86828125 -10.21484375 11.48828125 C-13.64985074 9.19827659 -15.10212394 9.19080061 -19.15234375 9.17578125 C-20.19261719 9.15902344 -21.23289062 9.14226563 -22.3046875 9.125 C-25.5655001 9.53205446 -26.93879817 10.14212052 -29.21484375 12.48828125 C-29.79817708 15.98828125 -29.79817708 15.98828125 -29.21484375 19.48828125 C-25.115885 24.5155336 -18.3633225 25.48104493 -12.33959961 26.8684082 C2.55336553 30.3371018 2.55336553 30.3371018 7.14453125 36.234375 C10.18810153 41.41469839 10.57777159 46.60311232 9.78515625 52.48828125 C7.61513622 59.12598959 2.54694927 62.85375069 -3.27734375 66.30078125 C-12.20350429 69.90922913 -22.92719642 69.5785207 -31.9609375 66.4609375 C-37.5677806 64.04134663 -41.66922468 60.95640279 -44.50390625 55.46875 C-45.79930133 51.86014942 -45.98020031 48.30123717 -46.21484375 44.48828125 C-40.93484375 44.48828125 -35.65484375 44.48828125 -30.21484375 44.48828125 C-29.22484375 46.79828125 -28.23484375 49.10828125 -27.21484375 51.48828125 C-24.95773585 53.83624731 -23.78505916 54.41029591 -20.55859375 54.8515625 C-19.62015625 54.83480469 -18.68171875 54.81804688 -17.71484375 54.80078125 C-16.77640625 54.79691406 -15.83796875 54.79304687 -14.87109375 54.7890625 C-12.15991842 54.48206176 -10.51062604 53.93281842 -8.21484375 52.48828125 C-6.5381148 50.17279841 -6.21484375 48.85120714 -6.21484375 45.98828125 C-7.62086326 42.47323247 -9.91906143 41.08975294 -13.21484375 39.48828125 C-17.94499827 38.04209015 -22.78986884 37.05174002 -27.62890625 36.04101562 C-35.47863995 34.20701371 -41.31581669 31.07840742 -45.71484375 24.11328125 C-46.95259506 17.61508689 -46.86692021 12.18790497 -43.53515625 6.33984375 C-34.12862922 -6.85155806 -13.07408755 -8.92358356 0 0 Z " fill="#2D2F2F" transform="translate(1689.21484375,760.51171875)"/>
<path d="M0 0 C4.56989378 3.79104125 7.14262059 8.42786178 9 14 C9 15.65 9 17.3 9 19 C3.72 19 -1.56 19 -7 19 C-7.99 16.69 -8.98 14.38 -10 12 C-13.43500699 9.70999534 -14.88728019 9.70251936 -18.9375 9.6875 C-19.97777344 9.67074219 -21.01804687 9.65398438 -22.08984375 9.63671875 C-25.3385483 10.04226173 -26.67652157 10.73609794 -29 13 C-29.99087897 15.7603057 -30.26634077 17.26189606 -29.265625 20.03515625 C-25.62685374 25.68423632 -16.05760255 26.50181802 -9.875 27.9375 C-3.10250121 29.55082337 2.98182257 31.04514682 7.359375 36.78125 C10.20826032 41.69850412 10.80664466 46.41398576 10 52 C8.23494315 58.12578553 5.15809891 61.50820053 0 65 C-8.90083794 69.86705394 -19.60464094 70.43985635 -29.3125 67.8125 C-37.46057129 64.96589817 -41.32918154 61.35461881 -45.15234375 53.59765625 C-46 51 -46 51 -46 45 C-40.72 45 -35.44 45 -30 45 C-29.01 47.31 -28.02 49.62 -27 52 C-24.75483157 54.33060824 -23.58265781 54.91924415 -20.37890625 55.36328125 C-19.44949219 55.34652344 -18.52007812 55.32976563 -17.5625 55.3125 C-16.17224609 55.30669922 -16.17224609 55.30669922 -14.75390625 55.30078125 C-11.85718556 54.98440183 -9.64118097 54.2031514 -7 53 C-6.83698495 51.58720294 -6.7211203 50.16891872 -6.625 48.75 C-6.52058594 47.56664062 -6.52058594 47.56664062 -6.4140625 46.359375 C-6.82675135 43.74907727 -6.82675135 43.74907727 -9.40234375 41.859375 C-13.5967861 39.37588877 -18.21742185 38.5116945 -22.9375 37.5 C-32.38666961 35.46565762 -39.16728612 33.06286919 -45 25 C-46.82511893 19.5246432 -46.82717072 14.12287937 -44.4375 8.8125 C-40.86790515 2.54698735 -35.64430584 -1.55145209 -28.7109375 -3.52734375 C-18.95741668 -5.22788556 -8.7410375 -5.02868486 0 0 Z " fill="#2D2F2F" transform="translate(477,760)"/>
<path d="M0 0 C20.79 0 41.58 0 63 0 C63 3.96 63 7.92 63 12 C55.41 12 47.82 12 40 12 C40 37.41 40 62.82 40 89 C34.72 89 29.44 89 24 89 C24 63.59 24 38.18 24 12 C16.08 12 8.16 12 0 12 C0 8.04 0 4.08 0 0 Z " fill="#2D2F2F" transform="translate(142,739)"/>
<path d="M0 0 C0 4.29 0 8.58 0 13 C-2.27864583 13.65104167 -4.55729167 14.30208333 -6.8359375 14.953125 C-9.10936926 15.83004076 -9.10936926 15.83004076 -10.25 17.84375 C-11.00791311 20.0227502 -11.39576245 21.95762448 -11.625 24.25 C-11.74875 25.4875 -11.8725 26.725 -12 28 C-7.71 28 -3.42 28 1 28 C1 32.29 1 36.58 1 41 C-3.29 41 -7.58 41 -12 41 C-12 60.14 -12 79.28 -12 99 C-17.28 99 -22.56 99 -28 99 C-28 79.86 -28 60.72 -28 41 C-30.64 41 -33.28 41 -36 41 C-36 36.71 -36 32.42 -36 28 C-33.36 28 -30.72 28 -28 28 C-28.04125 26.865625 -28.0825 25.73125 -28.125 24.5625 C-28.07183796 17.04007102 -27.02508683 11.02728105 -21.70703125 5.4375 C-15.46839379 0.18391056 -7.78103832 -0.15562077 0 0 Z " fill="#2D2F2F" transform="translate(531,729)"/>
<path d="M0 0 C5.28 0 10.56 0 16 0 C16 5.61 16 11.22 16 17 C21.61 17 27.22 17 33 17 C33 21.29 33 25.58 33 30 C27.39 30 21.78 30 16 30 C16.1179233 35.96327899 16.242147 41.92637998 16.37231445 47.8894043 C16.41573241 49.91964104 16.45740226 51.94991592 16.49731445 53.98022461 C16.55485146 56.89188151 16.61859278 59.80334514 16.68359375 62.71484375 C16.70030624 63.6283812 16.71701874 64.54191864 16.73423767 65.48313904 C16.4230685 69.56789316 16.4230685 69.56789316 18 73 C20.32986123 73.20968751 22.66444036 73.36815389 25 73.5 C31.88888889 73.88888889 31.88888889 73.88888889 33 75 C33.07258946 77.18639453 33.08373783 79.37500389 33.0625 81.5625 C33.05347656 82.76003906 33.04445313 83.95757813 33.03515625 85.19140625 C33.02355469 86.11824219 33.01195312 87.04507813 33 88 C12.02662722 88.82248521 12.02662722 88.82248521 5 84 C1.0641227 79.39214365 -0.13057991 75.44180899 -0.11352539 69.50683594 C-0.11341209 68.18591949 -0.11341209 68.18591949 -0.11329651 66.83831787 C-0.10813522 65.89651672 -0.10297394 64.95471558 -0.09765625 63.984375 C-0.0962413 63.01340881 -0.09482635 62.04244263 -0.09336853 61.04205322 C-0.08777663 57.94467065 -0.07522559 54.84736068 -0.0625 51.75 C-0.05748395 49.64843854 -0.05292123 47.54687596 -0.04882812 45.4453125 C-0.03780985 40.29684708 -0.02055074 35.14843584 0 30 C-2.64 30 -5.28 30 -8 30 C-8 25.71 -8 21.42 -8 17 C-5.36 17 -2.72 17 0 17 C0 11.39 0 5.78 0 0 Z " fill="#2D2F2F" transform="translate(1869,740)"/>
<path d="M0 0 C5.28 0 10.56 0 16 0 C16 5.61 16 11.22 16 17 C21.61 17 27.22 17 33 17 C33 21.29 33 25.58 33 30 C27.39 30 21.78 30 16 30 C16.09349456 35.64197837 16.1995795 41.28352556 16.31738281 46.92504883 C16.35568577 48.84457904 16.39053633 50.76418135 16.421875 52.68383789 C16.46749702 55.4418313 16.5254958 58.19932777 16.5859375 60.95703125 C16.59748871 61.81649857 16.60903992 62.67596588 16.62094116 63.56147766 C16.64081085 64.36208115 16.66068054 65.16268463 16.68115234 65.98754883 C16.69447601 66.6914827 16.70779968 67.39541656 16.7215271 68.12068176 C16.91244185 70.33097464 16.91244185 70.33097464 19 73 C22.34613512 73.58687784 22.34613512 73.58687784 26.125 73.6875 C28.39375 73.790625 30.6625 73.89375 33 74 C33 78.62 33 83.24 33 88 C30.31222198 88.0544207 27.62556788 88.09387266 24.9375 88.125 C24.18533203 88.14175781 23.43316406 88.15851563 22.65820312 88.17578125 C15.86321589 88.23461231 9.52472179 87.42881009 4.27522278 82.66036987 C-0.32103152 76.67593932 -0.4251862 68.27199753 -0.29296875 61.0546875 C-0.28660149 59.71085495 -0.28660149 59.71085495 -0.28010559 58.33987427 C-0.26350154 55.51792521 -0.22588593 52.69672801 -0.1875 49.875 C-0.17242946 47.94532292 -0.15874524 46.01563448 -0.14648438 44.0859375 C-0.1136583 39.39034153 -0.06200616 34.69529759 0 30 C-2.64 30 -5.28 30 -8 30 C-8 25.71 -8 21.42 -8 17 C-5.36 17 -2.72 17 0 17 C0 11.39 0 5.78 0 0 Z " fill="#2D2F2F" transform="translate(2312,740)"/>
<path d="M0 0 C0 5.28 0 10.56 0 16 C-2.96223958 16.42317708 -5.92447917 16.84635417 -8.88671875 17.26953125 C-12.31378403 18.0736231 -14.29724687 18.73005572 -17 21 C-19.8592365 27.18158268 -20.46371825 32.43217688 -20.51171875 39.1875 C-20.52966995 40.13061035 -20.54762115 41.0737207 -20.56611633 42.04541016 C-20.61989644 45.03022921 -20.65401089 48.01489135 -20.6875 51 C-20.72070161 53.03517793 -20.75519387 55.07033525 -20.79101562 57.10546875 C-20.87560416 62.07019868 -20.94256864 67.03488468 -21 72 C-26.28 72 -31.56 72 -37 72 C-37 48.57 -37 25.14 -37 1 C-31.72 1 -26.44 1 -21 1 C-20.67 3.64 -20.34 6.28 -20 9 C-19.01 7.88625 -19.01 7.88625 -18 6.75 C-12.44366075 1.24074837 -7.83733432 0 0 0 Z " fill="#2D2F2F" transform="translate(255,756)"/>
<path d="M0 0 C0 5.28 0 10.56 0 16 C-2.784375 16.3403125 -2.784375 16.3403125 -5.625 16.6875 C-11.28470256 17.62298803 -14.16717198 18.7528122 -18 23 C-18.93018394 25.79055182 -19.14359844 27.56498876 -19.18945312 30.45556641 C-19.20617065 31.35304596 -19.22288818 32.25052551 -19.2401123 33.17520142 C-19.25368774 34.14090057 -19.26726318 35.10659973 -19.28125 36.1015625 C-19.29965942 37.09376801 -19.31806885 38.08597351 -19.33703613 39.10824585 C-19.41582075 43.35981337 -19.48364893 47.61153903 -19.55224609 51.86328125 C-19.60382385 54.96362509 -19.66111694 58.0638263 -19.71875 61.1640625 C-19.73232544 62.13381012 -19.74590088 63.10355774 -19.7598877 64.10269165 C-19.77660522 64.99386688 -19.79332275 65.88504211 -19.81054688 66.80322266 C-19.82933899 67.98544907 -19.82933899 67.98544907 -19.84851074 69.19155884 C-20 71 -20 71 -21 72 C-25.95 72 -30.9 72 -36 72 C-36 48.57 -36 25.14 -36 1 C-30.72 1 -25.44 1 -20 1 C-19.67 3.31 -19.34 5.62 -19 8 C-18.34 7.236875 -17.68 6.47375 -17 5.6875 C-12.04785608 0.74938482 -6.82027066 0 0 0 Z " fill="#2C2F2F" transform="translate(2068,756)"/>
<path d="M0 0 C4.95 0 9.9 0 15 0 C15 31.35 15 62.7 15 95 C10.05 95 5.1 95 0 95 C0 63.65 0 32.3 0 0 Z " fill="#2D2F2F" transform="translate(2244,733)"/>
<path d="M0 0 C0 5.28 0 10.56 0 16 C-2.96223958 16.45572917 -5.92447917 16.91145833 -8.88671875 17.3671875 C-11.83353804 17.96616457 -14.31311635 18.65415488 -17 20 C-20.33804936 27.00990366 -20.15468446 35.44999586 -20.31640625 43.09375 C-20.33718735 43.92588013 -20.35796844 44.75801025 -20.37937927 45.61535645 C-20.44416194 48.24349636 -20.50342412 50.87172625 -20.5625 53.5 C-20.60575322 55.29427971 -20.64936954 57.0885507 -20.69335938 58.8828125 C-20.79976894 63.25511885 -20.90123163 67.62751463 -21 72 C-25.95 72 -30.9 72 -36 72 C-36 48.57 -36 25.14 -36 1 C-31.05 1 -26.1 1 -21 1 C-20.67 3.97 -20.34 6.94 -20 10 C-18.9171875 8.6078125 -18.9171875 8.6078125 -17.8125 7.1875 C-12.63705151 0.98865774 -7.85128277 0 0 0 Z " fill="#2D2F2F" transform="translate(660,756)"/>
<path d="M0 0 C0 5.28 0 10.56 0 16 C-2.99479167 16.45572917 -5.98958333 16.91145833 -8.984375 17.3671875 C-11.71959919 17.94115942 -13.66662595 18.49048239 -16 20 C-18.77765341 24.7322984 -20.09056351 28.86672629 -20.20532227 34.30957031 C-20.22526749 35.15013977 -20.24521271 35.99070923 -20.26576233 36.85675049 C-20.29083107 38.20383087 -20.29083107 38.20383087 -20.31640625 39.578125 C-20.33718735 40.5046991 -20.35796844 41.43127319 -20.37937927 42.38592529 C-20.44466961 45.34054272 -20.50366431 48.29524768 -20.5625 51.25 C-20.60570473 53.25521732 -20.64931965 55.26042585 -20.69335938 57.265625 C-20.80032999 62.17699404 -20.90165518 67.08845097 -21 72 C-25.95 72 -30.9 72 -36 72 C-36 48.57 -36 25.14 -36 1 C-31.05 1 -26.1 1 -21 1 C-20.67 3.64 -20.34 6.28 -20 9 C-19.49210937 8.51789062 -18.98421875 8.03578125 -18.4609375 7.5390625 C-12.27417283 1.8620687 -8.62309268 0 0 0 Z " fill="#2D2F2F" transform="translate(1314,756)"/>
<path d="M0 0 C0.99 0 1.98 0 3 0 C3 85.14 3 170.28 3 258 C27.09 258.33 51.18 258.66 76 259 C76.33 259.33 76.66 259.66 77 260 C77.33 174.2 77.66 88.4 78 0 C107.04 0 136.08 0 166 0 C166 0.33 166 0.66 166 1 C137.29 1 108.58 1 79 1 C79 87.13 79 173.26 79 262 C52.93 262 26.86 262 0 262 C0 175.54 0 89.08 0 0 Z " fill="#C9D7DD" transform="translate(208,249)"/>
<path d="M0 0 C1.12775345 0.00212242 1.12775345 0.00212242 2.27828979 0.00428772 C4.6829626 0.0098916 7.08754277 0.02244468 9.4921875 0.03515625 C11.12109241 0.04017075 12.74999877 0.04473375 14.37890625 0.04882812 C18.37506452 0.05901201 22.37102215 0.07858653 26.3671875 0.09765625 C26.3671875 10.32765625 26.3671875 20.55765625 26.3671875 31.09765625 C21.4915577 31.1897458 16.61897231 31.26929792 11.74316406 31.31738281 C10.08648425 31.33743634 8.42987468 31.36468654 6.7734375 31.39941406 C4.38523992 31.44821137 1.99798203 31.47068689 -0.390625 31.48828125 C-1.49254684 31.51924896 -1.49254684 31.51924896 -2.61672974 31.55084229 C-7.7827143 31.55307108 -10.64721629 30.33387576 -14.6328125 27.09765625 C-17.43606257 23.52988343 -18.872964 19.4940202 -19.1328125 14.97265625 C-18.40560076 9.3367653 -16.21037822 6.48741653 -12.0078125 2.78515625 C-7.92967144 -0.11247029 -4.86595835 -0.03424473 0 0 Z " fill="#FBFDFD" transform="translate(194.6328125,85.90234375)"/>
<path d="M0 0 C4.73324406 -0.09210637 9.46334929 -0.17165193 14.19677734 -0.21972656 C15.80495774 -0.23977627 17.41306583 -0.26702364 19.02099609 -0.30175781 C21.3397002 -0.35057264 23.65743625 -0.37303428 25.9765625 -0.390625 C27.04567368 -0.42159271 27.04567368 -0.42159271 28.13638306 -0.45318604 C33.2485088 -0.45545651 36.05778392 0.80864754 40 4 C43.80789246 8.32247253 45.38018019 10.90258942 45.2734375 16.7734375 C44.79832466 20.64221349 43.50757652 24.00850521 41 27 C35.87266061 30.47116339 32.11260017 31.57250632 25.87890625 31.390625 C25.13414536 31.38496521 24.38938446 31.37930542 23.62205505 31.37347412 C21.2681862 31.3512735 18.9159003 31.3011137 16.5625 31.25 C14.95640236 31.22991366 13.3502806 31.21166664 11.74414062 31.1953125 C7.82834258 31.15488092 3.91592021 31.07657421 0 31 C0 20.77 0 10.54 0 0 Z " fill="#FBFDFD" transform="translate(266,86)"/>
<path d="M0 0 C5.28 0 10.56 0 16 0 C16 23.43 16 46.86 16 71 C10.72 71 5.44 71 0 71 C0 47.57 0 24.14 0 0 Z " fill="#2E2F2F" transform="translate(2277,757)"/>
<path d="M0 0 C5.28 0 10.56 0 16 0 C16 23.43 16 46.86 16 71 C10.72 71 5.44 71 0 71 C0 47.57 0 24.14 0 0 Z " fill="#2D2F2F" transform="translate(1751,757)"/>
<path d="M0 0 C5.28 0 10.56 0 16 0 C16 23.43 16 46.86 16 71 C10.72 71 5.44 71 0 71 C0 47.57 0 24.14 0 0 Z " fill="#2D2F2F" transform="translate(1364,757)"/>
<path d="M0 0 C5.28 0 10.56 0 16 0 C16 23.43 16 46.86 16 71 C10.72 71 5.44 71 0 71 C0 47.57 0 24.14 0 0 Z " fill="#2D2F2F" transform="translate(803,757)"/>
<path d="M0 0 C0.33 0 0.66 0 1 0 C1 15.51 1 31.02 1 47 C-17.48 47 -35.96 47 -55 47 C-55 180.65 -55 314.3 -55 452 C-55.33 452 -55.66 452 -56 452 C-56.74240076 440.35648003 -57.15105555 428.77140144 -57.15821838 417.10543823 C-57.16280046 415.48947949 -57.16780279 413.8735219 -57.17318195 412.25756562 C-57.1865855 407.87442579 -57.19412885 403.49129358 -57.20060861 399.1081388 C-57.20869209 394.35993559 -57.22236183 389.61174786 -57.23532104 384.86355591 C-57.25697233 376.65598924 -57.27515766 368.44842091 -57.29092598 360.24084091 C-57.31372887 348.37435136 -57.34185666 336.50787902 -57.37124526 324.64140417 C-57.41879424 305.3844789 -57.46209241 286.12754656 -57.50268555 266.87060547 C-57.54210534 248.17463633 -57.58354689 229.47867346 -57.62768555 210.78271484 C-57.63040982 209.62848958 -57.63313409 208.47426432 -57.63594092 207.28506254 C-57.64962146 201.49411423 -57.66334152 195.70316602 -57.67708123 189.91221786 C-57.79084635 141.94149154 -57.89743523 93.97075146 -58 46 C-38.86 46 -19.72 46 0 46 C0 30.82 0 15.64 0 0 Z " fill="#ACBAC0" transform="translate(147,106)"/>
<path d="M0 0 C0.33 0 0.66 0 1 0 C1 1.98 1 3.96 1 6 C-98.99 6 -198.98 6 -302 6 C-298.16772648 4.08386324 -296.92429241 3.75048542 -292.86944962 3.75390434 C-291.82691694 3.74992225 -290.78438426 3.74594015 -289.71025968 3.74183738 C-287.99431926 3.75057591 -287.99431926 3.75057591 -286.24371338 3.75949097 C-285.02748063 3.75778212 -283.81124788 3.75607327 -282.55815959 3.75431263 C-279.18084326 3.75158492 -275.80375799 3.75784689 -272.42646956 3.76786876 C-268.78506074 3.77649653 -265.14365921 3.77358357 -261.50224304 3.77206421 C-255.19277502 3.77101493 -248.88334832 3.777296 -242.57389069 3.78853989 C-233.45145262 3.80478612 -224.32903456 3.81000199 -215.20658359 3.81251587 C-200.40642851 3.81689435 -185.60629546 3.8302076 -170.80615234 3.84912109 C-156.42822378 3.86747593 -142.0503012 3.88163438 -127.67236328 3.89013672 C-126.34323309 3.89092489 -126.34323309 3.89092489 -124.98725179 3.89172898 C-120.5420652 3.89433904 -116.09687857 3.89686646 -111.65169191 3.89935279 C-74.76777905 3.92009005 -37.88389124 3.95531975 -1 4 C-0.67 2.68 -0.34 1.36 0 0 Z " fill="#2C4A61" transform="translate(394,552)"/>
<path d="M0 0 C83.49 0 166.98 0 253 0 C253 0.33 253 0.66 253 1 C169.84 1.33 86.68 1.66 1 2 C1.18640192 29.55393612 1.18640192 29.55393612 3 57 C42.6 57.495 42.6 57.495 83 58 C83 58.33 83 58.66 83 59 C55.61 59 28.22 59 0 59 C0 39.53 0 20.06 0 0 Z " fill="#ECFDFD" transform="translate(121,190)"/>
<path d="M0 0 C1.85345701 3.08909501 2.24933345 6.33840396 2.125 9.875 C0.55069236 13.49590756 -0.56382926 14.66755284 -3.875 16.875 C-10.82177871 17.54726891 -10.82177871 17.54726891 -14.8125 15 C-17.42697555 12.30629792 -17.81556139 11.39013465 -18.25 7.625 C-17.751181 2.63680998 -16.46393653 1.30080306 -12.875 -2.125 C-8.7084629 -4.34715312 -3.82044299 -2.2922658 0 0 Z " fill="#2E2F2F" transform="translate(1379.875,732.125)"/>
<path d="M0 0 C3.11012331 3.34338256 4 5.03931415 4 9.625 C2.92399035 13.25653258 1.93967876 14.68388946 -1 17 C-4.10048928 18.55024464 -6.57894218 18.28992015 -10 18 C-12.75329021 16.20437595 -14.52627461 14.94745078 -16 12 C-16.37192211 7.07203209 -16.28389467 3.83121045 -13 0 C-8.18290944 -2.51802461 -4.9189193 -2.18618636 0 0 Z " fill="#2E2F2F" transform="translate(2291,731)"/>
<path d="M0 0 C2.35341728 2.35341728 2.93817609 3.88318104 3.12109375 7.1875 C2.91542565 11.22124854 2.49259091 13.40599331 -0.125 16.5625 C-4.33115368 18.66557684 -7.73578696 18.56605326 -12.25 17.4375 C-15.16037922 15.04683136 -15.94817374 12.56452232 -17 9 C-16.41086018 5.46516108 -15.74704745 3.01870107 -13.625 0.125 C-9.2163707 -2.92712798 -4.68279424 -1.97431367 0 0 Z " fill="#2E2F2F" transform="translate(818,731)"/>
<path d="M0 0 C2.60781899 2.85230202 2.95850032 4.66800252 3.4375 8.5 C2.92886205 12.5691036 1.86654931 14.13345069 -1 17 C-4.02437339 18.5121867 -6.66241534 18.17263369 -10 18 C-13.38031589 16.81232145 -13.93216817 16.10174775 -16 13 C-16.72939154 8.47098739 -16.57532663 4.98627422 -14.25 1 C-9.78379482 -2.96996016 -5.23974719 -2.23607046 0 0 Z " fill="#2D2F2F" transform="translate(1766,731)"/>
<path d="M0 0 C1.98 0 3.96 0 6 0 C6 84.81 6 169.62 6 257 C5.67 257 5.34 257 5 257 C4.99668985 255.71341051 4.99337971 254.42682102 4.98996925 253.10124397 C4.91101651 222.5863111 4.82182143 192.0714274 4.71994839 161.55656309 C4.70742895 157.80382226 4.69499626 154.05108114 4.68261719 150.29833984 C4.68015119 149.55121077 4.6776852 148.8040817 4.67514448 148.03431235 C4.63537952 135.92387166 4.60264876 123.8134216 4.57250018 111.70295359 C4.54142792 99.28407939 4.50283679 86.86524512 4.45720994 74.44641578 C4.42927581 66.77827075 4.40726424 59.11015506 4.39273749 51.44197272 C4.38098683 45.57013561 4.35879449 39.69836774 4.33261681 33.82657623 C4.3235082 31.41181613 4.31784321 28.99704035 4.31578636 26.58226395 C4.31248691 23.29855583 4.29707283 20.01512752 4.2784729 16.73147583 C4.28040763 15.76456444 4.28234237 14.79765305 4.28433573 13.80144131 C4.27687024 12.92661032 4.26940475 12.05177933 4.26171303 11.15043831 C4.25943471 10.39175709 4.25715638 9.63307587 4.25480902 8.85140431 C4.15597329 6.7532446 4.15597329 6.7532446 2 5 C2.99 4.67 3.98 4.34 5 4 C5 3.34 5 2.68 5 2 C3.35 2 1.7 2 0 2 C0 1.34 0 0.68 0 0 Z " fill="#192C49" transform="translate(202,250)"/>
<path d="M0 0 C16.83 0 33.66 0 51 0 C51 0.33 51 0.66 51 1 C50.1300943 1.00879936 50.1300943 1.00879936 49.24261475 1.01777649 C43.20780788 1.08169921 37.17353485 1.16611584 31.13916016 1.26245117 C28.8869531 1.29571024 26.63466249 1.32373908 24.38232422 1.34643555 C21.14514554 1.37996296 17.9087332 1.43227888 14.671875 1.48828125 C13.66445251 1.49467117 12.65703003 1.5010611 11.61907959 1.50764465 C10.67840637 1.52743881 9.73773315 1.54723297 8.76855469 1.56762695 C7.52945343 1.58428154 7.52945343 1.58428154 6.26531982 1.60127258 C3.51282859 2.08574886 2.09056207 3.1907098 0 5 C0 3.35 0 1.7 0 0 Z " fill="#15334A" transform="translate(92,154)"/>
<path d="M0 0 C0.99 0 1.98 0 3 0 C1.50163895 3.11198065 -0.19933758 6.0534615 -2 9 C-3.24546405 6.50907189 -2.7767578 5.58919267 -2 3 C-1.34 3 -0.68 3 0 3 C0 2.01 0 1.02 0 0 Z " fill="#16364E" transform="translate(178,89)"/>
<path d="M0 0 C1.65 0 3.3 0 5 0 C2.16569547 3.2542015 0.31392226 4.5206753 -4 5 C-3.67 4.34 -3.34 3.68 -3 3 C-2.34 3 -1.68 3 -1 3 C-0.67 2.01 -0.34 1.02 0 0 Z " fill="#DCEEF2" transform="translate(302,112)"/>
</svg>
