<svg width="128" height="32" viewBox="0 0 128 32" fill="none" xmlns="http://www.w3.org/2000/svg">
<g clip-path="url(#clip0_226_145)">
<path d="M91.4286 27.5616H87.1619V25.7467H87.1162C86.1669 26.8469 84.5181 27.752 81.7234 27.752C77.9139 27.752 74.6332 24.8857 74.6332 19.9593C74.6332 15.2659 77.8667 12.133 81.8667 12.133C84.3429 12.133 85.8804 13.0138 86.8114 14.1383H86.8572V4.70443H91.4286V27.5616ZM83.0156 15.5616C80.4023 15.5616 78.9333 17.4252 78.9333 19.9029C78.9333 22.3821 80.4023 24.3235 83.0156 24.3235C85.632 24.3235 87.1619 22.4324 87.1619 19.9029C87.1619 17.3033 85.632 15.5616 83.0156 15.5616ZM72.6263 25.1067C71.5474 26.504 69.3257 27.752 65.7387 27.752C60.9539 27.752 57.9063 24.5825 57.9063 19.6042C57.9063 15.1806 60.6659 12.133 65.8728 12.133C70.3695 12.133 73.1429 15.0861 73.1429 20.2808C73.1429 20.7989 73.0591 21.3139 73.0591 21.3139H62.2187L62.2446 21.7848C62.5448 23.0983 63.5368 24.7044 65.8134 24.7044C67.8004 24.7044 69.1627 23.6362 69.7783 22.7997L72.6263 25.1067ZM68.7436 18.4172C68.7741 16.8111 67.5947 15.1806 65.7356 15.1806C63.5231 15.1806 62.3421 16.9086 62.2187 18.4187H68.7436V18.4172Z" fill="white"/>
<path d="M57.9047 12.3235H52.5714L47.2381 18.4187V4.70443H42.6667V27.5616H47.2381V19.9425L52.8747 27.5616H58.272L51.8095 19.2309L57.9047 12.3235ZM24.3809 12.3235H28.6888V14.5193H28.736C29.3928 13.3353 31.3326 12.133 33.731 12.133C38.3345 12.133 39.619 15.0541 39.619 19.1044V27.5616H35.0476V19.938C35.0476 17.6949 34.2385 16.133 32.3459 16.133C30.048 16.133 28.9524 17.9524 28.9524 20.2427V27.5616H24.3809V12.3235ZM16.7619 27.5616H21.3333V12.3235H16.7619V27.5616ZM19.0491 9.733C19.4147 9.74162 19.7782 9.67706 20.1185 9.54313C20.4587 9.4092 20.7687 9.2086 21.0303 8.95312C21.2919 8.69764 21.4997 8.39244 21.6416 8.05547C21.7835 7.71849 21.8566 7.35654 21.8566 6.99091C21.8566 6.62527 21.7835 6.26332 21.6416 5.92634C21.4997 5.58937 21.2919 5.28417 21.0303 5.02869C20.7687 4.77321 20.4587 4.57261 20.1185 4.43868C19.7782 4.30475 19.4147 4.24019 19.0491 4.24881C18.3331 4.26569 17.652 4.562 17.1516 5.0744C16.6511 5.58681 16.3709 6.27465 16.3709 6.99091C16.3709 7.70716 16.6511 8.395 17.1516 8.90741C17.652 9.41981 18.3331 9.71612 19.0491 9.733ZM4.57143 4.70443H0V27.5616H13.7143V22.9902H4.57143V4.70443Z" fill="white"/>
<path fill-rule="evenodd" clip-rule="evenodd" d="M125.681 0H98.4107C97.1063 0 95.9985 1.03162 95.9985 2.30248V29.696C95.9985 30.9684 96.7254 32 98.0298 32H125.3C126.606 32 127.999 30.9684 127.999 29.696V2.30248C127.999 1.03162 126.987 0 125.681 0ZM108.189 12.1905H112.497V14.3863H112.544C113.201 13.2023 115.141 12 117.539 12C122.143 12 123.427 14.4442 123.427 18.9714V27.4286H118.856V19.8049C118.856 17.7783 118.047 16 116.154 16C113.856 16 112.76 17.5558 112.76 20.1097V27.4286H108.189V12.1905ZM100.57 27.4286H105.141V12.1905H100.57V27.4286ZM105.713 6.85714C105.713 7.23229 105.639 7.6038 105.496 7.95045C105.352 8.2971 105.142 8.61211 104.877 8.87748C104.612 9.14284 104.297 9.35338 103.95 9.49705C103.604 9.64072 103.232 9.71472 102.857 9.71482C102.482 9.71492 102.111 9.64112 101.764 9.49763C101.417 9.35414 101.102 9.14378 100.837 8.87855C100.572 8.61333 100.361 8.29844 100.218 7.95186C100.074 7.60528 100 7.23381 100 6.85866C100 6.1012 100.301 5.37472 100.836 4.83902C101.372 4.30332 102.098 4.00226 102.856 4.00206C103.613 4.00186 104.34 4.30253 104.875 4.83795C105.411 5.37336 105.712 6.09967 105.713 6.85714Z" fill="white"/>
</g>
<defs>
<clipPath id="clip0_226_145">
<rect width="127.999" height="32" fill="white"/>
</clipPath>
</defs>
</svg>
