<svg width="52" height="52" viewBox="0 0 52 52" fill="none" xmlns="http://www.w3.org/2000/svg">
<rect width="52" height="52" rx="4" fill="#0A66C2"/>
<g clip-path="url(#clip0_20_264)">
<path fill-rule="evenodd" clip-rule="evenodd" d="M39.6823 10H12.4122C11.1078 10 10 11.0316 10 12.3025V39.696C10 40.9684 10.7269 42 12.0312 42H39.3013C40.6072 42 42 40.9684 42 39.696V12.3025C42 11.0316 40.9882 10 39.6823 10ZM22.1905 22.1905H26.4983V24.3863H26.5455C27.2023 23.2023 29.1421 22 31.5406 22C36.144 22 37.4286 24.4442 37.4286 28.9714V37.4286H32.8571V29.8049C32.8571 27.7783 32.048 26 30.1554 26C27.8575 26 26.7619 27.5558 26.7619 30.1097V37.4286H22.1905V22.1905ZM14.5714 37.4286H19.1429V22.1905H14.5714V37.4286ZM19.7143 16.8571C19.7145 17.2323 19.6407 17.6038 19.4973 17.9505C19.3539 18.2971 19.1436 18.6121 18.8784 18.8775C18.6132 19.1428 18.2984 19.3534 17.9518 19.497C17.6053 19.6407 17.2338 19.7147 16.8587 19.7148C16.4835 19.7149 16.112 19.6411 15.7654 19.4976C15.4188 19.3541 15.1038 19.1438 14.8385 18.8786C14.5732 18.6133 14.3627 18.2984 14.2191 17.9519C14.0755 17.6053 14.0016 17.2338 14.0015 16.8587C14.0015 16.1012 14.3023 15.3747 14.8378 14.839C15.3733 14.3033 16.0997 14.0023 16.8571 14.0021C17.6146 14.0019 18.3411 14.3025 18.8769 14.8379C19.4127 15.3734 19.7139 16.0997 19.7143 16.8571Z" fill="white"/>
</g>
<defs>
<clipPath id="clip0_20_264">
<rect width="32" height="32" fill="white" transform="translate(10 10)"/>
</clipPath>
</defs>
</svg>
