<svg width="24" height="32" viewBox="0 0 24 32" fill="none" xmlns="http://www.w3.org/2000/svg">
<g clip-path="url(#clip0_13_494)">
<path d="M10.8626 0.345117C11.5501 -0.111133 12.4501 -0.111133 13.1376 0.345117L14.2501 1.07637C14.6251 1.32012 15.0626 1.43887 15.5063 1.41387L16.8376 1.33262C17.6626 1.28262 18.4376 1.73262 18.8063 2.47012L19.4063 3.66387C19.6063 4.06387 19.9313 4.38262 20.3251 4.58262L21.5313 5.18887C22.2688 5.55762 22.7188 6.33262 22.6688 7.15762L22.5876 8.48887C22.5626 8.93262 22.6813 9.37637 22.9251 9.74512L23.6626 10.8576C24.1188 11.5451 24.1188 12.4451 23.6626 13.1326L22.9251 14.2514C22.6813 14.6264 22.5626 15.0639 22.5876 15.5076L22.6688 16.8389C22.7188 17.6639 22.2688 18.4389 21.5313 18.8076L20.3376 19.4076C19.9376 19.6076 19.6188 19.9326 19.4188 20.3264L18.8126 21.5326C18.4438 22.2701 17.6688 22.7201 16.8438 22.6701L15.5126 22.5889C15.0688 22.5639 14.6251 22.6826 14.2563 22.9264L13.1438 23.6639C12.4563 24.1201 11.5563 24.1201 10.8688 23.6639L9.75006 22.9264C9.37506 22.6826 8.93756 22.5639 8.49381 22.5889L7.16256 22.6701C6.33756 22.7201 5.56256 22.2701 5.19381 21.5326L4.59381 20.3389C4.39381 19.9389 4.06881 19.6201 3.67506 19.4201L2.46881 18.8139C1.73131 18.4451 1.28131 17.6701 1.33131 16.8451L1.41256 15.5139C1.43756 15.0701 1.31881 14.6264 1.07506 14.2576L0.343809 13.1389C-0.112441 12.4514 -0.112441 11.5514 0.343809 10.8639L1.07506 9.75137C1.31881 9.37637 1.43756 8.93887 1.41256 8.49512L1.33131 7.16387C1.28131 6.33887 1.73131 5.56387 2.46881 5.19512L3.66256 4.59512C4.06256 4.38887 4.38756 4.06387 4.58756 3.66387L5.18756 2.47012C5.55631 1.73262 6.33131 1.28262 7.15631 1.33262L8.48756 1.41387C8.93131 1.43887 9.37506 1.32012 9.74381 1.07637L10.8626 0.345117ZM17.0001 12.0014C17.0001 10.6753 16.4733 9.40352 15.5356 8.46583C14.5979 7.52815 13.3261 7.00137 12.0001 7.00137C10.674 7.00137 9.40221 7.52815 8.46453 8.46583C7.52684 9.40352 7.00006 10.6753 7.00006 12.0014C7.00006 13.3274 7.52684 14.5992 8.46453 15.5369C9.40221 16.4746 10.674 17.0014 12.0001 17.0014C13.3261 17.0014 14.5979 16.4746 15.5356 15.5369C16.4733 14.5992 17.0001 13.3274 17.0001 12.0014ZM0.0813089 27.6139L2.77506 21.2076C2.78756 21.2139 2.79381 21.2201 2.80006 21.2326L3.40006 22.4264C4.13131 23.8764 5.65006 24.7576 7.27506 24.6639L8.60631 24.5826C8.61881 24.5826 8.63756 24.5826 8.65006 24.5951L9.76256 25.3326C10.0813 25.5389 10.4188 25.7014 10.7688 25.8139L8.41881 31.3951C8.27506 31.7389 7.95631 31.9701 7.58756 32.0014C7.21881 32.0326 6.86256 31.8639 6.66256 31.5514L4.65006 28.4701L1.14381 28.9889C0.787559 29.0389 0.431309 28.8951 0.206309 28.6139C-0.0186911 28.3326 -0.0624411 27.9451 0.0750589 27.6139H0.0813089ZM15.5813 31.3889L13.2313 25.8139C13.5813 25.7014 13.9188 25.5451 14.2376 25.3326L15.3501 24.5951C15.3626 24.5889 15.3751 24.5826 15.3938 24.5826L16.7251 24.6639C18.3501 24.7576 19.8688 23.8764 20.6001 22.4264L21.2001 21.2326C21.2063 21.2201 21.2126 21.2139 21.2251 21.2076L23.9251 27.6139C24.0626 27.9451 24.0126 28.3264 23.7938 28.6139C23.5751 28.9014 23.2126 29.0451 22.8563 28.9889L19.3501 28.4701L17.3376 31.5451C17.1376 31.8576 16.7813 32.0264 16.4126 31.9951C16.0438 31.9639 15.7251 31.7264 15.5813 31.3889Z" fill="#FDE68A"/>
</g>
<defs>
<clipPath id="clip0_13_494">
<rect width="24" height="32" fill="white"/>
</clipPath>
</defs>
</svg>
