<svg width="39" height="38" viewBox="0 0 39 38" fill="none" xmlns="http://www.w3.org/2000/svg">
<g clip-path="url(#clip0_13_502)">
<path d="M19.3467 8.51728C19.4133 7.59572 19.7176 6.70716 20.2301 5.93833C20.7425 5.1695 21.4456 4.54668 22.2706 4.13066C23.0956 3.71465 24.0143 3.51965 24.9372 3.56471C25.8601 3.60977 26.7555 3.89334 27.536 4.38775C27.6253 4.44614 27.6971 4.52749 27.7441 4.62325C27.791 4.719 27.8113 4.82564 27.8028 4.93195C27.7943 5.03825 27.7573 5.14031 27.6957 5.22739C27.6342 5.31446 27.5503 5.38335 27.4529 5.42681C26.096 6.03729 24.9442 7.02651 24.1358 8.27567C23.3275 9.52482 22.8969 10.9808 22.8959 12.4687C22.8959 12.6424 22.8959 12.816 22.9137 12.9867C22.9219 13.0946 22.9004 13.2027 22.8516 13.2993C22.8029 13.3959 22.7286 13.4773 22.6369 13.5348C22.5452 13.5922 22.4396 13.6235 22.3314 13.6253C22.2232 13.6271 22.1166 13.5993 22.0231 13.5449C21.1483 13.0445 20.4328 12.3069 19.9593 11.4173C19.4857 10.5278 19.2734 9.52239 19.3467 8.51728ZM35.9584 23.8405C35.9605 24.519 35.7725 25.1846 35.4157 25.7618C35.0589 26.339 34.5476 26.8047 33.9396 27.1061L33.8743 27.1358L28.1105 29.591C28.0535 29.616 27.9944 29.6359 27.9338 29.6503L18.4338 32.0253C18.3397 32.0494 18.243 32.0619 18.1459 32.0624H2.70837C2.07848 32.0624 1.47439 31.8122 1.029 31.3668C0.583597 30.9214 0.333374 30.3173 0.333374 29.6874V23.7499C0.333374 23.12 0.583597 22.516 1.029 22.0706C1.47439 21.6252 2.07848 21.3749 2.70837 21.3749H6.96704L10.3247 18.0158C10.765 17.5736 11.2885 17.2229 11.8651 16.9842C12.4417 16.7455 13.0598 16.6234 13.6838 16.6249H21.1146C21.7419 16.6249 22.361 16.7668 22.9256 17.04C23.4902 17.3133 23.9857 17.7108 24.3748 18.2027C24.764 18.6947 25.0367 19.2683 25.1726 19.8807C25.3085 20.493 25.304 21.1282 25.1595 21.7386L31.3702 20.3106C31.9108 20.1675 32.4772 20.1503 33.0255 20.2606C33.5738 20.3709 34.0895 20.6056 34.5328 20.9466C34.9761 21.2876 35.3352 21.7259 35.5823 22.2277C35.8295 22.7294 35.9581 23.2812 35.9584 23.8405ZM33.5834 23.8405C33.5832 23.6441 33.5378 23.4505 33.4506 23.2745C33.3635 23.0986 33.237 22.9451 33.0809 22.8259C32.9249 22.7067 32.7435 22.6251 32.5508 22.5874C32.3581 22.5497 32.1593 22.5569 31.9699 22.6084L31.9238 22.6203L21.9785 24.9077C21.8913 24.9273 21.8022 24.9372 21.7128 24.9374H16.9584C16.6434 24.9374 16.3414 24.8123 16.1187 24.5896C15.896 24.3669 15.7709 24.0649 15.7709 23.7499C15.7709 23.435 15.896 23.1329 16.1187 22.9102C16.3414 22.6875 16.6434 22.5624 16.9584 22.5624H21.1146C21.587 22.5624 22.0401 22.3748 22.3742 22.0407C22.7082 21.7067 22.8959 21.2536 22.8959 20.7812C22.8959 20.3088 22.7082 19.8557 22.3742 19.5217C22.0401 19.1876 21.587 18.9999 21.1146 18.9999H13.6838C13.3718 18.9989 13.0627 19.06 12.7745 19.1795C12.4863 19.299 12.2248 19.4746 12.005 19.6961L8.64587 23.0538V29.6874H17.9974L27.2644 27.3703L32.905 24.9686C33.1103 24.8604 33.2821 24.6981 33.4017 24.4992C33.5213 24.3004 33.5841 24.0725 33.5834 23.8405ZM25.2709 12.4687C25.2709 13.5256 25.5843 14.5587 26.1715 15.4375C26.7586 16.3163 27.5932 17.0012 28.5697 17.4057C29.5461 17.8101 30.6206 17.9159 31.6571 17.7098C32.6937 17.5036 33.6459 16.9946 34.3932 16.2473C35.1406 15.4999 35.6495 14.5478 35.8557 13.5112C36.0619 12.4746 35.9561 11.4002 35.5516 10.4237C35.1471 9.44728 34.4622 8.6127 33.5835 8.02552C32.7047 7.43834 31.6715 7.12494 30.6146 7.12494C29.1974 7.12494 27.8382 7.68794 26.836 8.69008C25.8339 9.69223 25.2709 11.0514 25.2709 12.4687Z" fill="#38BDF8"/>
</g>
<defs>
<clipPath id="clip0_13_502">
<rect width="38" height="38" fill="white" transform="translate(0.333374)"/>
</clipPath>
</defs>
</svg>
