<svg width="37" height="36" viewBox="0 0 37 36" fill="none" xmlns="http://www.w3.org/2000/svg">
<path d="M21.7566 14.9101L20.1666 14.1751C20.0356 14.1154 19.9246 14.0194 19.8468 13.8984C19.7689 13.7774 19.7275 13.6365 19.7275 13.4926C19.7275 13.3487 19.7689 13.2079 19.8468 13.0868C19.9246 12.9658 20.0356 12.8698 20.1666 12.8101L21.7566 12.0751L22.4916 10.5001C22.5512 10.3692 22.6473 10.2582 22.7683 10.1803C22.8893 10.1025 23.0302 10.0611 23.1741 10.0611C23.318 10.0611 23.4588 10.1025 23.5798 10.1803C23.7009 10.2582 23.7969 10.3692 23.8566 10.5001L24.5916 12.0901L26.1666 12.8251C26.2975 12.8848 26.4085 12.9808 26.4864 13.1018C26.5642 13.2229 26.6056 13.3637 26.6056 13.5076C26.6056 13.6515 26.5642 13.7924 26.4864 13.9134C26.4085 14.0344 26.2975 14.1304 26.1666 14.1901L24.5766 14.9251L23.8416 16.5001C23.7819 16.631 23.6859 16.7421 23.5648 16.8199C23.4438 16.8978 23.303 16.9392 23.1591 16.9392C23.0152 16.9392 22.8743 16.8978 22.7533 16.8199C22.6323 16.7421 22.5362 16.631 22.4766 16.5001L21.7566 14.9101ZM7.34158 19.5001L8.07658 17.9101L9.66658 17.1751C9.79752 17.1154 9.90854 17.0194 9.98639 16.8984C10.0642 16.7774 10.1056 16.6365 10.1056 16.4926C10.1056 16.3487 10.0642 16.2079 9.98639 16.0868C9.90854 15.9658 9.79752 15.8698 9.66658 15.8101L8.07658 15.0751L7.34158 13.5001C7.28377 13.3693 7.18919 13.2581 7.06936 13.1801C6.94952 13.102 6.80959 13.0605 6.66658 13.0605C6.52357 13.0605 6.38364 13.102 6.26381 13.1801C6.14397 13.2581 6.0494 13.3693 5.99158 13.5001L5.25658 15.0901L3.66658 15.8251C3.53564 15.8848 3.42463 15.9808 3.34678 16.1018C3.26893 16.2229 3.22754 16.3637 3.22754 16.5076C3.22754 16.6515 3.26893 16.7924 3.34678 16.9134C3.42463 17.0344 3.53564 17.1304 3.66658 17.1901L5.25658 17.9251L5.99158 19.5001C6.24658 20.0851 7.08658 20.0851 7.34158 19.5001ZM14.1066 11.9851L15.0516 9.88511L17.1516 8.94011C17.2825 8.88045 17.3935 8.78438 17.4714 8.66337C17.5492 8.54235 17.5906 8.4015 17.5906 8.25761C17.5906 8.11372 17.5492 7.97286 17.4714 7.85185C17.3935 7.73083 17.2825 7.63477 17.1516 7.57511L15.0516 6.63011L14.1066 4.53011C14.0469 4.39917 13.9509 4.28815 13.8298 4.2103C13.7088 4.13246 13.568 4.09106 13.4241 4.09106C13.2802 4.09106 13.1393 4.13246 13.0183 4.2103C12.8973 4.28815 12.8012 4.39917 12.7416 4.53011L11.7966 6.63011L9.69658 7.57511C9.56564 7.63477 9.45463 7.73083 9.37678 7.85185C9.29893 7.97286 9.25754 8.11372 9.25754 8.25761C9.25754 8.4015 9.29893 8.54235 9.37678 8.66337C9.45463 8.78438 9.56564 8.88045 9.69658 8.94011L11.7966 9.88511L12.7416 11.9851C12.9966 12.5701 13.8366 12.5701 14.1066 11.9851ZM34.1766 12.4051C34.0324 12.2614 33.8605 12.1485 33.6713 12.0734C33.4822 11.9982 33.2797 11.9624 33.0762 11.968C32.8727 11.9736 32.6725 12.0206 32.4878 12.106C32.303 12.1915 32.1376 12.3137 32.0016 12.4651L22.4166 23.2351L17.4816 18.3001C17.3428 18.1611 17.178 18.0507 16.9965 17.9755C16.8151 17.9002 16.6205 17.8614 16.4241 17.8614C16.2276 17.8614 16.0331 17.9002 15.8516 17.9755C15.6702 18.0507 15.5054 18.1611 15.3666 18.3001L6.30658 27.3751C5.69158 27.9901 5.69158 29.0101 6.30658 29.6251C6.92158 30.2401 7.94158 30.2401 8.55658 29.6251L16.4316 21.7351L21.3066 26.6101C21.9216 27.2251 22.9116 27.1951 23.4816 26.5501L34.2366 14.4451C34.7616 13.8601 34.7316 12.9601 34.1766 12.4051Z" fill="#10B981"/>
</svg>
