<svg width="48" height="48" viewBox="0 0 48 48" fill="none" xmlns="http://www.w3.org/2000/svg">
<path d="M21.1541 17.408C22.4201 15.136 23.0541 14 24.0001 14C24.9461 14 25.5801 15.136 26.8461 17.408L27.1741 17.996C27.5341 18.642 27.7141 18.964 27.9941 19.176C28.2741 19.39 28.6261 19.47 29.3241 19.628L29.9601 19.772C32.4201 20.328 33.6501 20.606 33.9421 21.548C34.2361 22.488 33.3961 23.468 31.7201 25.43L31.2861 25.938C30.8101 26.494 30.5721 26.774 30.4661 27.118C30.3561 27.462 30.3921 27.834 30.4661 28.578L30.5301 29.254C30.7841 31.87 30.9101 33.178 30.1441 33.76C29.3781 34.34 28.2281 33.812 25.9241 32.752L25.3281 32.476C24.6741 32.176 24.3481 32.024 24.0001 32.024C23.6541 32.024 23.3261 32.176 22.6721 32.476L22.0761 32.752C19.7721 33.812 18.6221 34.342 17.8561 33.76C17.0901 33.18 17.2161 31.87 17.4701 29.254L17.5341 28.578C17.6081 27.834 17.6441 27.462 17.5341 27.118C17.4281 26.774 17.1901 26.494 16.7141 25.938L16.2801 25.43C14.6041 23.47 13.7641 22.49 14.0581 21.548C14.3501 20.608 15.5781 20.328 18.0381 19.772L18.6761 19.628C19.3761 19.468 19.7241 19.39 20.0061 19.178C20.2861 18.964 20.4661 18.642 20.8261 17.998L21.1541 17.408Z" stroke="#6EE7B7" stroke-width="2"/>
<path d="M24 4V8M24 40V44M4 24H8M40 24H44M12 36L12.686 35.314M35.314 12.686L36 12M36 36L35.314 35.314M12.686 12.686L12 12" stroke="#6EE7B7" stroke-width="2" stroke-linecap="round"/>
</svg>
