<svg width="49" height="48" viewBox="0 0 49 48" fill="none" xmlns="http://www.w3.org/2000/svg">
<path d="M17.8333 8.44446H13.3889C12.2102 8.44446 11.0797 8.91271 10.2462 9.7462C9.41271 10.5797 8.94446 11.7102 8.94446 12.8889V39.5555C8.94446 40.7343 9.41271 41.8647 10.2462 42.6982C11.0797 43.5317 12.2102 44 13.3889 44H35.6111C36.7898 44 37.9203 43.5317 38.7538 42.6982C39.5873 41.8647 40.0555 40.7343 40.0555 39.5555V12.8889C40.0555 11.7102 39.5873 10.5797 38.7538 9.7462C37.9203 8.91271 36.7898 8.44446 35.6111 8.44446H31.1666" stroke="#FDE68A" stroke-width="2" stroke-linecap="round" stroke-linejoin="round"/>
<path d="M17.8333 28.4444H17.8555M17.8333 35.1111H17.8555M24.4999 32.8888L26.7221 35.1111L33.3888 28.4444M17.8333 8.44444C17.8333 7.2657 18.3015 6.13524 19.135 5.30175C19.9685 4.46825 21.099 4 22.2777 4H26.7221C27.9009 4 29.0313 4.46825 29.8648 5.30175C30.6983 6.13524 31.1666 7.2657 31.1666 8.44444C31.1666 9.62318 30.6983 10.7536 29.8648 11.5871C29.0313 12.4206 27.9009 12.8889 26.7221 12.8889H22.2777C21.099 12.8889 19.9685 12.4206 19.135 11.5871C18.3015 10.7536 17.8333 9.62318 17.8333 8.44444Z" stroke="#FDE68A" stroke-width="2" stroke-linecap="round" stroke-linejoin="round"/>
</svg>
