<svg width="48" height="48" viewBox="0 0 48 48" fill="none" xmlns="http://www.w3.org/2000/svg">
<path d="M6 30.75C6 25.9761 7.89642 21.3977 11.2721 18.0221C14.6477 14.6464 19.2261 12.75 24 12.75C28.7739 12.75 33.3523 14.6464 36.7279 18.0221C40.1036 21.3977 42 25.9761 42 30.75" stroke="#60A5FA" stroke-width="2" stroke-linejoin="round"/>
<path d="M19.5 33C19.5 31.8065 19.9741 30.6619 20.818 29.818C21.6619 28.9741 22.8065 28.5 24 28.5C25.1935 28.5 26.3381 28.9741 27.182 29.818C28.0259 30.6619 28.5 31.8065 28.5 33" stroke="#60A5FA" stroke-width="2" stroke-linejoin="round"/>
<path d="M26.25 28.5L30.75 21.75M42 30.75V33C42 33.5967 41.7629 34.169 41.341 34.591C40.919 35.0129 40.3467 35.25 39.75 35.25H8.25C7.65326 35.25 7.08097 35.0129 6.65901 34.591C6.23705 34.169 6 33.5967 6 33V30.75" stroke="#60A5FA" stroke-width="2" stroke-linecap="round" stroke-linejoin="round"/>
</svg>
