<svg width="162" height="12" viewBox="0 0 162 12" fill="none" xmlns="http://www.w3.org/2000/svg">
<path id="Vector 2" d="M13.1385 11.2538C13.2357 11.2329 13.6332 11.1897 13.8038 11.1619C13.6205 11.2566 12.7879 11.3293 13.1385 11.2538ZM30.1303 4.12287C29.9884 4.15554 29.8465 4.18826 29.7046 4.22104C30.115 4.18538 30.6635 4.11175 31.0452 4.08542C31.1077 4.08118 30.9524 4.14674 31.0996 4.13261C31.2469 4.11849 31.2106 4.05636 31.4235 4.02585C31.4587 4.02086 31.5125 4.01497 31.5799 4.00844C31.9712 3.97036 32.8222 3.91179 33.1466 3.8764C34.5689 3.72015 36.0004 3.53538 37.4305 3.42146C35.9627 3.61644 37.4527 3.51728 37.8628 3.45628C37.9537 3.44284 37.9254 3.32135 39.4074 3.2102C40.349 3.14078 39.4995 3.3955 41.0583 3.16238C39.8396 3.15321 41.0264 3.0503 41.9714 2.96057C42.0008 2.95777 42.0678 2.95217 42.1614 2.94457C42.586 2.90985 43.5578 2.83496 44.0337 2.78921C44.2324 2.76996 44.5294 2.67998 44.7933 2.65562C44.9749 2.63891 45.1157 2.66193 45.3854 2.6372C46.6421 2.52251 47.8793 2.41853 49.141 2.33095C48.4192 2.55282 49.7257 2.35507 49.7852 2.35868C50.0894 2.37955 48.7327 2.49861 49.2723 2.4843C50.0221 2.42025 50.7722 2.35754 51.5226 2.29615C50.9049 2.32221 52.326 2.09706 52.5945 2.13181C52.5754 2.11156 52.6378 2.09457 52.7597 2.08006C53.4579 1.99523 56.107 2.00164 56.562 1.93119C56.6735 1.91371 55.933 1.8905 57.6401 1.81029C57.825 1.80182 57.7586 1.85009 57.8551 1.83969C57.9128 1.83345 58.2532 1.67166 58.6333 1.72441C58.7721 1.744 57.9051 1.89002 59.8216 1.73217C59.0472 1.63722 62.4763 1.49163 63.1068 1.4935C62.9798 1.48176 62.8527 1.47006 62.7257 1.45839C63.0626 1.46648 63.2498 1.45453 63.3725 1.44087C63.4779 1.42916 63.536 1.41623 63.6008 1.41375C64.1662 1.392 64.949 1.39753 65.4769 1.3651C66.0943 1.32736 66.0904 1.23918 66.8129 1.23678C66.6408 1.22598 66.4687 1.21529 66.2966 1.20469C66.6435 1.19008 66.9902 1.17586 67.3372 1.16202C67.4881 1.156 67.6389 1.15006 67.7898 1.1442C67.4633 1.1933 67.3433 1.21408 67.3406 1.21822C67.3405 1.21833 67.3406 1.21842 67.3406 1.2185C67.3484 1.22666 68.0656 1.13563 68.1309 1.13091C68.2779 1.1197 68.0692 1.17739 68.315 1.15981C68.3404 1.15767 68.3009 1.11438 68.6801 1.0917C69.4726 1.04496 69.3505 1.10745 69.6835 1.09199C69.714 1.09043 69.6048 1.05439 70.1796 1.02005C72.0069 0.91345 70.1721 1.05084 70.1024 1.06004C70.0108 1.07176 70.6466 1.21247 69.0909 1.22148C69.6132 1.21705 69.6699 1.28981 69.7286 1.28904C69.7806 1.28801 70.6832 1.23895 70.7329 1.2346C71.1756 1.19091 70.7821 1.15584 70.8682 1.14312C70.8961 1.13903 71.0856 1.14001 71.3191 1.13265C71.6732 1.12141 72.129 1.09135 72.2782 0.992946C72.7639 1.10577 72.1082 1.12878 71.3214 1.1763C71.2526 1.18046 71.1827 1.1848 71.1126 1.1894C71.0654 1.20224 71.1706 1.20876 71.3233 1.2119C71.5783 1.2171 71.9661 1.21324 71.9976 1.21201C73.2349 1.16545 72.5442 1.07448 72.8112 0.989828C72.9514 0.945582 73.4598 1.00747 72.989 0.91927C74.1126 0.869018 73.4337 0.953477 73.5067 0.959839C73.6168 0.969201 74.0088 0.926064 74.0582 0.928501C74.1308 0.93205 73.8812 0.976515 74.1667 0.979959C74.2141 0.980262 74.6705 0.903108 74.0771 0.892438C74.8686 0.875774 74.8012 0.82517 75.0741 0.924083C75.1635 0.887569 75.2342 0.866254 75.291 0.856092C75.5751 0.805339 75.5103 1.03314 75.6894 1.0375C76.2611 1.05152 76.0894 0.897091 76.1192 0.888437C76.3249 0.832045 77.9074 0.84817 78.2983 0.818314C78.1475 0.935673 77.0452 0.84718 76.8003 0.876159C75.9844 0.970435 77.9564 0.905268 77.367 1.06399C77.6148 1.01856 77.8626 0.97341 78.1107 0.928533C78.571 1.01193 77.9236 1.06462 79.1528 1.00726C79.3516 0.923308 78.2833 1.03641 78.4962 0.969423C78.5987 0.937027 79.0939 0.916707 79.2788 0.899961C79.3201 0.896188 79.346 0.892559 79.3484 0.888951C79.3513 0.883792 79.3231 0.881605 79.2782 0.880963C79.1168 0.87858 78.7396 0.896635 78.8182 0.866904C78.8724 0.846638 79.0567 0.833156 79.2766 0.825799C79.9479 0.803278 80.9513 0.838759 79.6031 0.891616C80.1026 0.882043 80.3642 1.03322 80.796 0.979222C81.0756 0.944847 79.4931 0.749223 81.8601 0.761098C81.9119 0.833371 80.9147 0.792758 80.8889 0.799097C80.8528 0.807653 81.0371 0.970453 81.0684 0.978239C81.1467 0.995891 82.3716 0.943529 83.2661 0.944712C83.6389 0.944877 83.9539 0.953633 84.1045 0.977702C83.9004 0.88121 85.9312 0.960069 86.1526 0.934236C86.2114 0.926481 85.991 0.867022 86.0539 0.861128C86.2965 0.839404 86.7941 0.87332 87.2536 0.905139C87.5365 0.924755 87.8052 0.942818 87.9917 0.945334C88.5375 0.952685 88.4681 0.9016 88.4986 0.901948C88.7388 0.906564 88.5471 0.939346 88.6939 0.940342C88.9158 0.942044 90.4398 0.959283 90.5165 0.952491C90.5389 0.950408 90.2897 0.891162 90.622 0.882343C90.6797 0.880791 90.643 0.949013 91.6282 0.925515C92.8146 0.897203 90.8037 0.835492 91.2963 0.766891C92.0591 0.873483 92.0338 0.772294 92.2405 0.781479C92.312 0.784806 92.8455 0.873874 93.4242 0.871986C93.0089 0.883378 92.5935 0.894823 92.1784 0.906258C92.5867 0.923774 93.3797 0.90992 93.7163 0.929038C93.8679 0.937627 93.7646 0.997695 94.0285 1.00713C94.0505 1.00792 94.075 1.00835 94.1024 1.00838C94.1596 1.00814 94.3447 0.910904 94.0279 0.894274C93.9257 0.888914 93.7712 0.891944 93.5435 0.909349C93.4782 0.855622 93.8055 0.880816 94.0278 0.877826C94.0613 0.877374 94.0924 0.876281 94.1194 0.874175C94.1506 0.87167 94.2731 0.769906 94.5369 0.835335C94.6004 0.851533 93.9129 1.14575 95.6886 0.941434C95.7458 0.934862 95.5466 0.895994 95.6025 0.888626C95.6407 0.883618 96.0945 0.902051 96.1446 0.897131C96.1958 0.891808 95.9765 0.849294 96.0375 0.8417C96.3503 0.802546 96.762 0.967889 96.1164 0.950647C96.3322 0.972291 96.5481 0.99399 96.764 1.01575C96.5325 0.891685 97.1027 0.984006 97.4013 0.98284C99.3156 0.976153 98.0335 0.885003 98.3625 0.846856C98.8919 0.786044 98.4878 0.991025 99.274 0.936408C99.3468 0.931568 98.3958 0.831636 100.253 0.903076C99.9783 0.903185 99.7044 0.903475 99.4304 0.903923C99.5885 1.02372 100.42 0.907258 100.484 0.906558C100.648 0.90497 100.751 0.905645 100.823 0.907058C101.071 0.912055 100.964 0.925103 101.804 0.890173C101.9 0.886146 102.111 0.91851 102.318 0.907257C103.176 0.860807 101.186 0.853097 101.132 0.805485C101.106 0.78056 103.247 0.819777 103.32 0.833575C103.632 0.888268 102.35 0.838453 102.594 0.904086C102.682 0.924681 105.736 0.939686 106.349 0.983058C107.057 1.02903 107.373 1.19892 107.38 1.01888C107.473 1.10467 107.561 1.12461 107.638 1.12207C107.725 1.11921 107.798 1.08783 107.846 1.08992C108.941 1.14012 108.942 1.1423 109.882 1.15894C110.09 1.16288 110.263 1.22317 110.337 1.21694C110.38 1.21312 110.302 1.15264 110.511 1.14306C110.803 1.12838 112.549 1.26343 112.677 1.30297C112.806 1.3405 111.939 1.28253 112.093 1.34195C112.721 1.37551 113.324 1.39193 113.956 1.43075C114.219 1.44712 114.082 1.47643 114.196 1.48323C114.212 1.48426 114.326 1.48682 114.468 1.48936C114.749 1.49425 115.14 1.49967 115.115 1.48932C115.088 1.47838 114.817 1.45791 114.471 1.4352C113.663 1.38124 112.445 1.32073 112.963 1.30079C113.106 1.29519 113.606 1.40458 113.53 1.2984C113.845 1.31733 114.159 1.3369 114.474 1.35712C116.663 1.49776 118.853 1.67039 121.042 1.88432C119.597 1.83275 117.982 1.64167 116.474 1.55242C116.267 1.53962 115.569 1.48702 115.652 1.54398C116.932 1.63373 118.527 1.719 119.756 1.85362C119.795 1.85793 119.648 1.8925 119.795 1.91183C120.069 1.94724 120.973 1.94957 121.122 1.98296C121.147 1.98956 120.632 2.00586 120.785 2.05826C121.021 2.13946 121.158 2.09448 121.305 2.05358C121.401 2.02685 121.501 2.0019 121.637 2.01539C121.902 2.03919 123.674 2.32088 124.124 2.30433C124.602 2.28174 122.814 2.12501 122.951 2.08194C124.162 2.14311 125.389 2.34321 126.531 2.47634C126.551 2.47864 126.381 2.41134 126.637 2.43629C127.081 2.48011 127.189 2.56014 127.402 2.59806C127.538 2.62206 127.877 2.66574 128.154 2.70638C128.346 2.73453 128.509 2.76045 128.552 2.77613C128.565 2.78108 128.394 2.82357 128.369 2.82205C128.279 2.81686 128.205 2.80656 128.143 2.79402C127.959 2.75658 127.888 2.69958 127.864 2.69556C127.743 2.67631 127.619 2.69267 127.508 2.67635C127.326 2.64949 127.229 2.60688 126.987 2.57369C126.82 2.55077 126.975 2.62791 126.814 2.60513C126.755 2.5962 126.131 2.38798 126.056 2.51391C126.046 2.53121 127.009 2.66502 128.139 2.83178C129.623 3.05139 131.407 3.29107 131.703 3.30906C131.265 3.2368 130.828 3.16414 130.39 3.09089C131.277 3.24631 132.363 3.27653 132.42 3.44277C132.836 3.49696 133.25 3.55057 133.666 3.60369C135.51 3.8395 137.354 4.06444 139.199 4.2757C140.25 4.39606 141.301 4.51198 142.352 4.62294C142.942 4.69595 142.609 4.76512 143.585 4.83175C143.337 4.77493 143.088 4.71782 142.839 4.66043C143.127 4.70262 143.988 4.80833 144.732 4.88896C145.273 4.94782 145.752 4.99398 145.903 4.99879C145.949 5.00014 146.021 4.91482 146.574 4.95582C147.065 4.99191 147.138 5.06708 147.399 5.10269C147.619 5.13233 147.867 5.13504 147.932 5.14426C147.982 5.15147 147.999 5.19511 148.119 5.21242C148.498 5.26639 148.198 5.12291 148.567 5.28947C148.474 5.28717 148.382 5.28483 148.289 5.28245C148.748 5.33992 149.372 5.45121 148.692 5.42753C148.575 5.42337 148.678 5.39084 148.591 5.38388C145.19 5.10418 147.9 5.41783 149.096 5.4479C149.251 5.49112 149.775 5.53776 150.259 5.57339C150.721 5.60764 151.146 5.63205 151.173 5.63984C151.252 5.66268 150.955 5.68989 151.338 5.75885C151.418 5.77623 153.716 5.8933 152.885 5.91901C152.713 5.92517 151.613 5.8336 151.348 5.81644C151.965 5.9897 153.439 5.90146 153.603 5.91524C154.266 5.97647 152.322 5.94641 153.817 6.0543C154.967 6.13444 153.891 5.98486 154.335 5.9747C154.552 5.9703 155.559 6.09528 155.801 6.04589C155.837 6.0385 155.856 6.02718 155.852 6.01091C156.3 6.02115 156.036 6.07199 156.091 6.0795C156.144 6.08677 157.024 6.09402 157.309 6.1323C157.343 6.1371 157.232 6.19535 157.268 6.20218C157.337 6.21473 158.185 6.23955 158.219 6.23518C158.241 6.23239 158.04 6.16837 158.124 6.15846C158.221 6.14754 159.036 6.19346 159.081 6.17893C159.145 6.15797 158.139 6.1331 158.308 6.07769C158.771 6.11307 159.528 6.10016 159.835 6.06061C159.76 6.07239 159.311 6.05819 159.155 6.04707C159.23 5.95969 160.195 5.995 159.864 6.05519C160.074 6.02384 159.931 5.99843 160.05 5.96605C160.082 5.95793 160.38 5.96591 160.437 5.95197C160.445 5.94914 160.138 5.90477 160.2 5.88834C160.312 5.85929 161.214 5.89443 161.288 5.90472C161.496 5.93553 160.759 5.9443 160.697 5.98033C160.688 5.98618 161.313 6.07977 161.323 6.08641C161.358 6.15886 160.662 6.087 160.74 6.15324C160.912 6.17207 161.085 6.1907 161.257 6.20912C160.591 6.25624 159.36 6.17961 159.041 6.24026C160.028 6.25696 161.061 6.28951 161.056 6.45549C161.054 6.52555 160.627 6.55365 160.643 6.57185C160.705 6.6377 161.298 6.58599 161.32 6.58974C161.519 6.639 160.505 6.63985 160.458 6.65637C160.386 6.68438 160.76 6.82064 160.759 6.84806C160.746 6.85341 160.143 6.86351 160.345 6.91805C160.55 6.97345 161.077 6.99035 161.095 6.99578C161.195 7.02816 160.273 7.02641 160.245 7.04208C160.231 7.05041 160.724 7.11944 160.739 7.13503C160.751 7.15083 160.374 7.17259 160.224 7.21603C160.113 7.24841 160.435 7.28659 160.378 7.29036C160.337 7.29328 159.465 7.26256 159.422 7.26683C159.358 7.27386 159.561 7.32435 159.531 7.33401C159.489 7.34802 159.208 7.32204 159.244 7.3393C159.271 7.35293 160.36 7.53936 160.352 7.57805C160.339 7.64571 159.184 7.45041 160.256 7.75381C160.263 7.75585 160.526 7.74534 160.533 7.74717C160.694 7.80132 159.851 7.8504 160.881 7.8693C158.964 7.89287 160.64 7.96391 160.355 8.06845C160.244 8.10905 159.501 8.1013 159.497 8.10741C159.568 8.16556 159.806 8.13091 159.886 8.16085C159.93 8.17783 159.264 8.21266 159.412 8.25606C159.489 8.27887 160.196 8.29634 160.225 8.30082C160.503 8.34607 160.16 8.37379 160.221 8.40144C160.261 8.42011 160.688 8.43501 160.699 8.43834C160.716 8.44552 160.136 8.4966 160.015 8.51668C159.923 8.53241 160.266 8.5734 160.202 8.57943C159.815 8.61602 158.998 8.46092 159.784 8.66447C159.832 8.67696 160.132 8.68279 160.141 8.68517C160.325 8.74103 159.773 8.72685 159.674 8.76378C159.503 8.82794 160.296 8.8165 159.636 8.84274C160.129 8.90591 160.405 8.9132 160.984 8.91769C159.381 8.90328 158.81 9.06226 160.591 9.11827C160.025 9.09745 160.085 9.20137 159.916 9.19754C159.811 9.19538 158.992 9.06347 159.363 9.30553C159.41 9.33595 159.91 9.31735 159.752 9.37017C158.554 9.31173 159.726 9.40679 159.727 9.41417C159.708 9.55295 156.781 9.32236 156.278 9.30656C156.06 9.30229 155.851 9.31034 155.668 9.32174C155.359 9.34099 155.123 9.36979 155.043 9.36548C154.626 9.34225 154.975 9.30785 154.882 9.28288C154.788 9.25884 153.597 9.29196 153.538 9.28186C153.309 9.24499 153.545 9.19572 153.522 9.19102C153.239 9.13597 151.644 9.0814 151.199 9.03358C151.21 9.07618 152.105 9.14111 151.543 9.16889C150.887 9.20081 150.861 9.01555 150.844 9.00648C150.579 8.98753 150.313 8.96819 150.048 8.94846C148.176 8.80938 146.306 8.65101 144.438 8.47613C143.598 8.39747 142.758 8.31546 141.919 8.23038C141.947 8.33222 143.896 8.45162 143.939 8.46697C144.192 8.57088 140.91 8.24255 140.512 8.16102C140.816 8.21425 141.119 8.26709 141.423 8.31955C140.891 8.377 139.749 8.11028 138.99 8.07567C138.745 8.0647 139.209 8.15905 139.199 8.16084C139.076 8.1666 138.923 8.15394 138.819 8.1361C138.686 8.11343 138.632 8.08254 138.819 8.07055C138.145 8.05169 138.249 8.00133 137.736 7.93883C137.71 7.93562 137.926 8.00541 137.518 7.97782C137.327 7.96518 136.314 7.848 136.174 7.87083C136.116 7.8808 136.612 8.11433 136.691 7.97233C137.787 8.17224 137.051 7.94499 137.479 7.99756C137.544 8.00557 137.385 8.07273 138.468 8.15455C138.247 8.28252 137.016 8.02887 136.801 8.02186C136.358 8.00897 138.16 8.2947 138.504 8.21322C138.371 8.29285 138.531 8.26483 138.805 8.27506C138.875 8.27766 138.953 8.28276 139.035 8.29278C139.476 8.34648 139.28 8.36029 139.519 8.38656C140.174 8.4582 139.91 8.34612 140.443 8.47837C139.939 8.19147 141.369 8.54589 141.787 8.64875C141.098 8.59016 140.409 8.5295 139.721 8.46694C139.759 8.48333 139.797 8.49971 139.835 8.51608C139.654 8.49485 139.473 8.47348 139.292 8.45197C139.322 8.44351 139.353 8.43504 139.383 8.42658C139.142 8.41989 138.949 8.40755 138.793 8.39279C138.339 8.34966 138.203 8.28637 138.147 8.27935C137.168 8.15967 136.038 8.02895 135.049 7.90999C134.901 7.89191 134.995 7.98067 133.92 7.78974C133.578 7.72864 133.91 7.70985 133.518 7.6706C133.379 7.69781 133.28 7.70806 133.207 7.70827C133.012 7.70879 132.995 7.63856 132.89 7.62527C132.473 7.57335 132.214 7.58067 132.175 7.57625C131.66 7.51759 130.907 7.41469 130.341 7.34714C130.33 7.34637 130.619 7.43353 130.253 7.3714C130.124 7.34959 128.992 6.98972 127.976 6.92278C128.237 6.97198 128.497 7.02101 128.758 7.06991C128.621 7.04283 128.112 6.98103 127.638 6.93151C127.056 6.87083 126.53 6.83522 126.815 6.90283C127.002 6.94727 127.357 6.95417 127.632 6.98268C127.823 7.00252 127.975 7.03179 128.004 7.08945C127.919 7.07354 127.79 7.05291 127.626 7.02873C126.407 6.83738 123.349 6.53739 123.074 6.48953C123.032 6.48082 123.296 6.46551 123.238 6.45409C123.193 6.44458 122.294 6.36385 122.175 6.33676C122.105 6.32012 122.505 6.3332 122.474 6.3149C122.447 6.30019 121.324 6.17477 121.255 6.22294C121.533 6.22641 122.307 6.31963 121.897 6.32524C121.844 6.32572 121.576 6.26596 121.512 6.26714C120.917 6.27626 122.68 6.42671 122.952 6.45803C122.399 6.43526 121.698 6.36416 120.975 6.2932C120.245 6.22145 119.492 6.14984 118.846 6.12182C118.329 6.03702 119.62 6.11486 119.035 6.03203C117.82 5.86216 118.706 6.06783 118.668 6.07047C118.363 6.09079 117.344 5.77776 117.333 5.9601C116.892 5.90227 117.036 5.88872 116.41 5.8713C116.491 5.88924 116.573 5.90723 116.654 5.92528C115.956 5.98282 114.498 5.63195 114.609 5.61867C114.908 5.58068 115.67 5.71129 115.735 5.71363C115.832 5.7171 116.11 5.54701 117.16 5.78394C117.601 5.68823 115.485 5.58938 116.452 5.56804C116.099 5.55227 115.155 5.4711 114.301 5.41161C113.577 5.3607 112.919 5.32411 112.741 5.34054C112.695 5.34556 112.905 5.47875 112.245 5.38495C111.932 5.34047 112.69 5.37422 112.547 5.33951C112.265 5.26869 109.689 5.15652 107.57 5.10849C106.385 5.07937 105.343 5.06416 104.932 5.05679C104.857 5.0553 104.885 5.01756 104.812 5.01633C104.587 5.01232 103.767 5.05292 103.365 5.02823C104.198 5.11448 102.579 5.09008 102.167 5.07669C101.542 5.0552 101.581 4.98852 101.31 4.97029C101.158 4.96004 100.992 4.95431 100.819 4.95154C99.8121 4.93514 98.5346 5.02009 97.8428 4.88625C97.8876 5.03505 96.4408 4.80127 95.7822 4.79558C95.2666 4.79079 94.5186 4.88425 95.2152 4.94882C94.8321 4.94326 94.4406 4.94418 94.0519 4.94734C93.5371 4.95153 93.0282 4.95968 92.5518 4.96195C92.4136 4.96263 92.6036 4.91982 92.3678 4.92238C92.3464 4.92293 92.3172 4.96582 92.1148 4.96908C90.4434 4.99645 91.2561 4.90984 90.9432 4.88102C90.7681 4.86486 90.6388 4.85654 90.5439 4.85347C91.5189 4.85126 92.642 4.84096 92.9425 4.8416C92.6857 4.74492 90.7836 4.84691 90.2253 4.81753C90.2059 4.81648 90.273 4.76449 90.2534 4.76399C90.253 4.76399 90.2525 4.76399 90.2521 4.76398C90.0429 4.75876 88.7117 4.7688 88.986 4.83318C89.0597 4.85042 89.6725 4.85479 90.3995 4.85376C90.2029 4.86422 90.3501 4.9239 90.3154 4.92618C89.8943 4.95257 88.8628 4.88811 88.4967 4.8775C88.4131 4.87517 88.4192 4.91284 88.4055 4.91283C88.0727 4.90171 88.2088 4.79535 87.868 4.90341C87.265 4.76478 88.9969 4.89243 88.8747 4.8043C88.834 4.77508 88.0943 4.76011 87.2673 4.75969C86.1824 4.7585 84.9568 4.79537 84.9631 4.85547C84.9498 4.84418 84.8971 4.83014 84.7892 4.81421C84.5604 4.77988 83.5785 4.79096 83.3327 4.81051C83.3214 4.81138 83.3117 4.81227 83.3036 4.81316C83.2727 4.81715 83.2869 4.91946 83.2485 4.92061C83.1528 4.92277 81.8517 4.85197 81.3679 4.91901C81.6302 4.93034 81.8926 4.94202 82.1549 4.95403C80.5727 4.97103 80.818 5.00065 81.3459 5.02429C81.3722 5.02426 81.398 5.02786 81.4231 5.02799C81.8321 5.04586 82.3563 5.06324 82.3644 5.0713C82.3949 5.09872 79.7124 5.15 80.2258 5.04934C80.2975 5.0346 81.5402 5.06092 80.9237 5.00107C80.8159 4.99027 80.0187 5.02126 79.9767 5.01473C79.6948 4.96856 81.4351 4.87805 81.2206 4.81112C80.7993 4.8833 80.2557 4.85552 79.7712 4.88096C79.5506 4.89248 79.498 4.9448 79.4708 4.94623C79.4446 4.94755 79.4211 4.94855 79.3999 4.94927C79.0921 4.95972 79.2823 4.90925 79.1553 4.91282C79.0823 4.9148 78.2844 5.04539 78.4307 4.88456C75.7927 5.06213 77.704 5.01277 79.3239 4.97449C78.8137 5.04074 77.8092 5.03421 77.3592 5.05875C77.1978 5.0675 77.2955 5.1178 77.0229 5.13508C76.7843 5.15022 76.1614 5.16045 75.4704 5.1702C74.5372 5.18291 73.4797 5.19593 73.0778 5.2024C73.5061 5.16852 73.3779 5.11558 73.0467 5.1314C72.7156 5.1474 72.9976 5.21385 72.9334 5.22443C72.8845 5.23213 72.0858 5.24509 71.5343 5.26087C71.3091 5.26721 71.1251 5.27377 71.0503 5.27973C71.2534 5.26654 71.4132 5.25438 71.5334 5.24339C71.9416 5.20618 71.8918 5.1817 71.5301 5.18088C71.386 5.1806 71.1923 5.18416 70.9584 5.19243C71.1011 5.17001 71.2439 5.14767 71.3867 5.12541C70.8056 5.17144 69.5763 5.13759 69.241 5.17935C69.1885 5.18592 69.381 5.22537 69.3514 5.22907C69.0573 5.26247 68.0499 5.26099 68.0041 5.27994C67.9652 5.29547 68.3962 5.3152 68.2384 5.34267C68.2111 5.34744 67.9218 5.31738 67.593 5.32728C67.5239 5.32936 67.453 5.3332 67.3825 5.3395C67.2319 5.3529 67.3256 5.39382 67.2878 5.39835C66.9723 5.43616 67.1546 5.35001 66.576 5.39196C66.1524 5.42298 65.8409 5.51433 65.2536 5.52125C67.1841 5.51443 65.5636 5.55927 64.7614 5.63295C64.6327 5.6448 64.7492 5.72073 63.975 5.72413C65.1734 5.54693 64.3559 5.60115 63.6652 5.65255C63.4158 5.67113 63.1831 5.68928 63.0684 5.69553C63.0447 5.69641 63.0328 5.64246 62.8208 5.65399C62.8029 5.65509 62.8312 5.69032 62.6345 5.70471C60.7701 5.84235 61.9605 5.72983 61.6033 5.71471C61.451 5.70821 60.5473 5.81563 60.3035 5.83225C60.2473 5.83587 60.2703 5.79606 60.0532 5.81112C59.6695 5.83786 59.3278 5.90041 59.0745 5.91985C59.045 5.92197 59.0391 5.86167 58.5599 5.91225C58.4252 5.92646 58.2751 5.95772 58.4684 5.96258C59.1093 5.97798 60.3093 5.80318 61.0338 5.8163C61.694 5.82764 59.6243 5.95993 59.5171 5.96791C59.4776 5.97059 59.8797 5.91511 59.4685 5.93517C59.1174 5.95243 58.4847 6.0976 57.9609 6.10928C57.921 6.11016 57.4968 6.04951 57.5155 6.04313C57.533 6.03811 58.1721 5.97683 58.0771 5.95745C58.0658 5.95524 57.6587 5.9826 57.6038 5.96716C57.5369 5.94833 57.3433 5.73296 57.2557 5.73308C57.0311 5.73394 57.1806 5.776 57.0358 5.78207C56.7251 5.79495 55.6452 5.80132 55.6166 5.88264C55.7945 5.87503 55.9723 5.86751 56.1502 5.86005C55.1633 5.93599 55.5868 5.94069 55.4481 5.96505C55.2987 5.9915 55.3354 5.91934 55.0019 5.93614C54.9291 5.93938 53.5378 6.0531 53.5655 6.08068C54.3318 5.97904 54.0533 6.08516 54.089 6.08408C54.2244 6.08 54.3927 6.01979 54.5738 6.00794C55.8482 5.92593 54.5698 6.09176 54.8722 6.09012C54.9762 6.08938 55.179 6.03404 55.2231 6.03308C55.3664 6.02991 55.3731 6.08334 55.468 6.07239C55.6894 6.04693 55.4238 5.98908 55.4411 5.98392C55.636 5.92252 56.4181 5.92837 55.9408 6.04405C56.2337 6.05387 56.2597 5.95127 56.4934 5.97571C56.958 6.02409 56.2699 6.05011 56.085 6.07611C55.4221 6.16953 55.2204 6.14457 54.2776 6.2247C53.9381 6.25352 53.5396 6.33132 53.3819 6.34548C53.353 6.34808 53.2515 6.3413 53.122 6.33708C52.8076 6.32677 52.3286 6.33185 52.3254 6.52115C51.9589 6.52251 51.3714 6.39089 50.9964 6.42765C50.6599 6.46075 50.7754 6.54636 50.7443 6.55239C50.6966 6.56176 50.2883 6.58583 50.1516 6.60985C49.9915 6.63809 50.0754 6.66758 49.8205 6.70221C49.1858 6.78853 49.1938 6.69174 49.1277 6.69066C48.36 6.67948 48.7058 6.7891 48.538 6.81352C48.3822 6.83507 46.1746 6.96408 45.7151 7.03924C45.9018 7.00402 46.0884 6.9689 46.2751 6.93386C45.932 6.90256 45.5837 7.03045 45.5669 6.92399C45.5152 7.10249 44.8074 7.04691 44.5987 7.06972C44.5165 7.07874 44.5259 7.1076 44.4228 7.11788C44.0205 7.15799 43.1093 7.21543 42.8923 7.2502C41.9538 7.39919 44.3815 7.28927 44.5721 7.28062C44.1913 7.31066 42.0406 7.54296 43.0394 7.53707C43.1937 7.53612 43.4571 7.43464 43.5428 7.42398C44.1228 7.35249 43.672 7.46231 43.7183 7.46485C43.797 7.46857 44.1731 7.36786 44.275 7.36702C44.309 7.36666 44.0981 7.44826 44.6531 7.40118C44.3938 7.48277 42.9087 7.56901 42.639 7.60461C42.6312 7.60563 42.6244 7.60659 42.6187 7.60751C42.5464 7.61944 43.0164 7.70711 41.6694 7.70314C41.6861 7.71377 41.7028 7.72441 41.7195 7.73504C40.977 7.80844 40.2354 7.88322 39.4933 7.95951C39.571 7.92398 39.982 7.82826 39.4581 7.89044C39.1565 7.92638 39.3869 7.96671 39.3595 7.97115C39.0896 8.00872 34.2894 8.47158 33.3622 8.58494C33.0829 8.61677 32.3668 8.73412 32.1585 8.76688C32.1312 8.77115 32.1126 8.77396 32.1049 8.77492C31.7039 8.82334 30.2788 8.95016 29.9963 8.98999C29.8199 9.01465 29.9946 9.04708 29.8363 9.06269C29.689 9.07715 29.8349 9.00988 29.7911 9.01278C29.4268 9.03394 26.6902 9.42157 26.0329 9.45614C26.4326 9.42059 28.4076 9.08521 28.3633 9.05563C28.3541 9.05176 27.8658 9.07057 27.7685 9.10092C27.5981 9.07713 27.0499 9.27577 26.7391 9.287C26.704 9.28829 26.8312 9.19793 26.2806 9.25085C26.091 9.26915 25.6038 9.3867 25.0971 9.38384C24.6374 9.46016 22.9095 9.6437 21.6638 9.80221C20.9665 9.89042 20.42 9.96934 20.331 10.0101C20.3239 10.0152 20.8608 9.97174 20.5054 10.052C20.033 10.1589 20.4418 9.95619 19.8821 10.0183C19.7977 10.0269 18.2479 10.2526 18.1987 10.2693C17.7411 10.4152 19.1014 10.2622 19.0839 10.2747C19.04 10.3047 17.9161 10.4735 17.8696 10.4746C17.8252 10.4747 18.7272 10.2399 17.63 10.4334C17.7583 10.4288 17.8866 10.4242 18.015 10.4196C17.4999 10.5165 17.4392 10.4489 17.3128 10.4618C16.9198 10.502 16.5143 10.6747 15.8671 10.6238C15.6959 10.6102 15.9643 10.5298 15.9427 10.5272C15.7361 10.5055 15.5033 10.6755 15.1888 10.6188C15.1651 10.6147 15.8516 10.4543 14.6355 10.6299C14.7207 10.6273 14.8059 10.6248 14.8911 10.6222C14.7226 10.6679 13.4944 10.8607 13.328 10.8807C12.8421 10.9377 13.2528 10.8064 12.7681 10.887C13.0947 10.9341 11.6197 11.1682 11.6914 11.0749C11.6291 11.1186 11.4503 11.1601 11.2173 11.1993C10.7415 11.2794 10.0407 11.351 9.64476 11.4113C9.27267 11.4677 8.52152 11.632 8.40283 11.6457C8.25792 11.6622 8.28979 11.5859 8.02741 11.612C7.95259 11.6194 7.18812 11.7938 6.49715 11.8331C6.36333 11.8407 6.06661 11.7685 6.30583 11.6992C6.71522 11.5803 7.5239 11.5471 7.5017 11.4794C7.47707 11.4068 6.41761 11.6237 6.1294 11.6614C4.79684 11.8349 5.54772 11.6301 5.50948 11.6116C5.41085 11.568 4.68704 11.6903 4.65589 11.6903C4.5265 11.688 5.03147 11.5564 5.03294 11.5198C5.0341 11.472 4.32102 11.5055 4.477 11.4634C4.70017 11.4032 5.35442 11.3659 5.39446 11.356C5.91621 11.2237 5.17135 11.237 4.96178 11.2182C4.89823 11.2121 5.13532 11.1455 5.08417 11.1491C4.30334 11.2054 4.94885 11.3257 4.43567 11.3962C3.97801 11.4595 4.55126 11.2912 4.53321 11.2903C4.50997 11.2897 3.96481 11.3774 3.8751 11.3671C3.83054 11.3613 5.22224 10.9882 5.15258 10.9375C4.7027 11.0259 4.25326 11.115 3.804 11.2048C3.75422 11.1311 4.41459 11.0803 4.48031 11.061C4.61266 11.0218 4.22816 11.0448 4.23982 11.0169C4.24562 10.9994 4.67832 10.8681 4.27394 10.9116C4.13492 10.9266 3.8564 11.0307 3.34514 11.0588C5.07541 10.6917 3.85929 10.8508 3.8027 10.8312C3.74722 10.8115 4.56799 10.6048 3.55935 10.787C3.4875 10.6396 3.57229 10.7343 3.85461 10.6587C4.20057 10.5661 3.37777 10.6514 4.67138 10.4746C4.58487 10.414 3.55203 10.5928 3.49617 10.5967C3.44794 10.5994 3.67135 10.5249 3.58721 10.5267C2.59222 10.5512 3.26978 10.5021 2.97266 10.4604C2.94625 10.4565 2.02338 10.5805 2.71897 10.4479C3.98637 10.2071 4.53587 10.2225 4.71086 9.9669C3.75232 10.0278 2.63825 10.3642 2.35278 10.416C1.91609 10.4947 2.36089 10.372 2.30471 10.3687C2.28525 10.3678 1.90902 10.4365 1.9033 10.4339C1.60312 10.3123 3.58194 10.1421 4.18995 10.0117C4.02103 10.0142 3.85208 10.0168 3.6831 10.0194C3.90605 9.98077 4.12893 9.9423 4.35193 9.90398C3.27998 10.032 4.31071 9.89091 4.55208 9.71117C4.60623 9.67073 3.91638 9.83969 4.69884 9.62193C4.10703 9.70046 4.28974 9.64137 3.76431 9.76905C3.76791 9.71207 4.95548 9.45004 5.42354 9.34483C3.74215 9.56066 4.73013 9.60131 3.26823 9.73873C3.01288 9.85136 3.69916 9.72162 3.645 9.74233C3.4508 9.81626 2.96688 9.83265 2.42272 10.0703C2.33424 10.1092 2.73943 10.1126 2.15839 10.2089C2.09414 10.2194 1.71327 10.2229 1.71758 10.2176C1.75785 10.1618 2.12706 10.1164 2.13853 10.094C2.14927 10.0729 1.74307 10.1546 1.7407 10.1497C1.7172 10.0926 2.07719 10.0682 2.02246 10.0585C1.90438 10.0371 0.411486 10.1639 2.33587 9.86986C0.755796 10.2119 2.14359 9.96968 2.75978 9.83826C2.91688 9.8048 2.95052 9.76253 3.17385 9.71192C3.46111 9.64672 3.80377 9.60653 3.95272 9.57483C4.11301 9.54064 3.18009 9.61062 4.5121 9.41333C3.8214 9.44221 2.64429 9.73334 1.97047 9.78964C0.610828 9.90279 2.87683 9.48465 3.11224 9.43446C3.17477 9.42065 2.95458 9.40873 2.9961 9.39866C3.06418 9.38192 4.35786 9.18684 4.47849 9.12652C4.59841 9.06572 4.00585 9.20728 3.95877 9.17279C3.92635 9.14896 5.47582 8.84086 4.62897 8.96194C4.04492 9.04519 2.99507 9.33788 2.79275 9.24896C3.64518 9.09347 4.49788 8.94045 5.35135 8.78976C4.87538 8.82108 4.39899 8.85321 3.92298 8.88602C4.88028 8.71061 5.71879 8.62575 6.61988 8.41273C4.40203 8.62289 7.31139 8.1794 7.34059 8.15835C7.34951 8.14576 6.4656 8.16573 6.3228 8.1668C7.07961 7.99518 9.40269 7.6066 8.01629 7.67453C8.26909 7.66842 8.85389 7.4926 8.84499 7.48774C8.758 7.43418 7.45931 7.68285 7.66243 7.59072C7.89737 7.4835 8.25916 7.52093 8.63757 7.45399C9.81561 7.24573 10.0619 7.07159 10.512 6.91048C10.8039 6.80631 11.1814 6.70791 11.9546 6.61378C11.9137 6.60752 11.8729 6.60128 11.832 6.59503C13.9625 6.29557 16.0951 6.01052 18.2292 5.73948C18.7805 5.59283 19.9637 5.38111 21.012 5.2216C21.5198 5.14416 21.996 5.07863 22.3528 5.0369C22.5729 5.01069 23.6596 4.92916 23.7423 4.92887C23.8956 4.92823 23.0674 5.03923 23.4468 5.02657C23.5268 5.02275 25.3572 4.82007 25.2188 4.77863C25.0131 4.79674 24.3761 4.90487 24.2694 4.90428C23.5186 4.89119 29.1655 4.2924 29.4408 4.23004C29.3135 4.22534 29.1862 4.22069 29.0589 4.21608C29.416 4.18465 29.7732 4.15358 30.1303 4.12287ZM14.5353 10.8803C14.3338 10.969 13.799 11.0026 13.4896 11.0651C13.0622 11.1515 12.3661 11.4853 12.6451 11.2136C13.2751 11.1012 13.9051 10.9901 14.5353 10.8803ZM23.8151 9.70953C23.385 9.73202 23.6979 9.56442 24.0542 9.57284C24.0938 9.57394 24.397 9.67925 23.8151 9.70953ZM19.3458 10.2328C19.3634 10.2286 19.7314 10.1824 19.7445 10.1827C20.0814 10.1886 18.9721 10.3278 19.3458 10.2328ZM40.9418 7.70991C40.471 7.75953 40.8244 7.84215 41.1125 7.76764C41.1306 7.76292 40.9727 7.70674 40.9418 7.70991ZM40.6062 7.7383C40.2292 7.66989 39.5145 7.94844 40.0982 7.87166C40.1547 7.86408 40.6236 7.74166 40.6062 7.7383ZM22.2907 9.85323C22.3331 9.80778 22.7749 9.77018 22.9637 9.75567C22.9636 9.79207 22.474 9.82502 22.2907 9.85323ZM33.4391 8.52627C33.4502 8.50189 32.6207 8.58599 32.1447 8.65385C31.9752 8.67794 31.8505 8.6998 31.8245 8.71351C31.8807 8.70319 31.9989 8.6889 32.147 8.67275C32.629 8.62001 33.4282 8.54886 33.4391 8.52627ZM37.3621 8.07619C37.3226 8.07465 36.7941 8.13597 36.8127 8.16177C37.0751 8.17143 37.5397 8.08293 37.3621 8.07619ZM45.1802 7.35157C45.2083 7.34232 44.7939 7.20229 45.7465 7.23622C45.8864 7.24118 45.3972 7.32873 45.4469 7.33081C45.5509 7.33417 45.6328 7.33291 45.6982 7.32836C45.2611 7.3801 44.8066 7.42638 44.7616 7.41966C44.5499 7.38777 45.1677 7.35545 45.1802 7.35157ZM49.2777 6.88229C49.3655 6.84667 49.9444 6.81642 50.0767 6.81796C50.0994 6.81841 50.0079 6.90064 50.2672 6.87486C50.4755 6.85408 50.1569 6.8018 50.5645 6.78259C50.9765 6.76321 50.4324 6.85994 50.4686 6.86109C50.5171 6.86237 51.1497 6.77931 51.1339 6.82534C51.122 6.85928 50.4392 6.88928 50.2716 6.90946C50.0569 6.93521 50.3231 6.96968 49.9619 6.98599C49.735 6.99634 49.8517 6.89011 49.8035 6.88897C49.763 6.88805 48.9766 7.00618 49.279 6.8825C49.2786 6.88243 49.2781 6.88236 49.2777 6.88229ZM45.8164 7.314C45.7837 7.32007 45.7451 7.32509 45.6982 7.32836C45.7378 7.32366 45.7773 7.31877 45.8164 7.314ZM15.7558 10.6613C15.9811 10.6593 15.3317 10.7908 15.0776 10.7881C15.0684 10.7574 15.7199 10.6616 15.7558 10.6613ZM46.2152 7.20111C46.8687 7.1706 46.3928 7.24373 45.8164 7.314C45.9983 7.28026 45.9958 7.2115 46.2152 7.20111ZM27.7685 9.10092C27.7968 9.10486 27.8156 9.11398 27.8202 9.13207C27.7457 9.12049 27.7378 9.11047 27.7685 9.10092ZM29.2855 8.95721C29.7972 8.84157 28.7435 8.9652 28.7553 9.0047C28.7604 9.01937 29.265 8.96176 29.2855 8.95721ZM41.547 7.65919C41.4988 7.65814 42.2207 7.42047 41.1602 7.64687C41.7353 7.61363 41.1327 7.68813 41.1432 7.70217C41.171 7.74238 42.1294 7.61257 42.3442 7.61187C42.5032 7.52037 41.7061 7.66255 41.5482 7.65908C41.5478 7.65912 41.5474 7.65915 41.547 7.65919ZM56.6963 6.37966C56.569 6.43322 56.1531 6.447 55.8731 6.46366C56.0002 6.40989 56.4161 6.39591 56.6963 6.37966ZM129.894 7.33919C127.964 7.12736 127.738 6.91239 129.489 7.21673C129.523 7.22281 130.013 7.33612 129.894 7.33919ZM113.56 5.73243C113.395 5.64963 113.903 5.65949 114.288 5.7057C114.316 5.70903 114.343 5.71254 114.37 5.71622C114.458 5.72847 114.782 5.82737 114.407 5.82218C114.412 5.7936 114.364 5.7674 114.286 5.74671C114.105 5.69808 113.761 5.68025 113.56 5.73243ZM46.5783 7.11938C46.7629 7.05053 47.3504 7.03971 47.659 7.02253C47.4752 7.08139 46.8519 7.11307 46.5783 7.11938ZM123.65 6.46532C123.451 6.43801 123.31 6.49287 123.344 6.5022C123.496 6.54452 123.874 6.52888 123.65 6.46532ZM44.6933 7.27192C44.6635 7.24251 45.4337 7.14533 45.4952 7.21903C45.3293 7.22741 44.7144 7.29 44.6933 7.27192ZM56.1665 6.39178C56.045 6.38387 56.6653 6.3126 56.855 6.31598C56.8425 6.35062 56.2461 6.39677 56.1665 6.39178ZM120.425 6.17767C120.246 6.15591 119.797 6.11634 119.746 6.14027C119.682 6.16976 120.34 6.21325 120.425 6.17767ZM154.25 9.61945C154.272 9.63356 153.558 9.68189 153.243 9.6389C152.646 9.55797 154.225 9.61046 154.25 9.61945ZM125.539 6.64265C126.094 6.77563 125.477 6.63711 125.494 6.7091C125.871 6.7556 126.815 6.87765 126.174 6.72898C126.049 6.70015 125.715 6.66802 125.539 6.64265ZM125.023 6.5587C124.961 6.57391 124.548 6.59807 124.899 6.63305C125.061 6.64917 125.33 6.60153 125.023 6.5587ZM149.851 9.35495C149.697 9.32497 149.801 9.32296 150.023 9.33503C150.547 9.36426 151.73 9.46557 151.777 9.47579C151.813 9.48392 151.837 9.49087 151.85 9.49631C151.938 9.48295 152.387 9.50941 152.437 9.56183C152.302 9.54901 151.934 9.52867 151.892 9.52027C151.874 9.51671 151.86 9.5136 151.851 9.51075C151.717 9.53805 150.483 9.42707 150.021 9.37565C149.929 9.3656 149.867 9.35813 149.851 9.35495ZM145.924 8.9676C146.522 8.93 146.615 9.09204 146.564 9.09266C145.915 9.09894 146.344 9.02266 146.324 9.01566C146.28 9.00299 145.818 9.01479 145.926 8.96777C145.925 8.96771 145.924 8.96766 145.924 8.9676ZM149.046 9.26761C149.07 9.26764 149.567 9.31093 149.588 9.31479C149.992 9.39806 148.585 9.27565 149.046 9.26761ZM52.3686 6.53694C52.7217 6.52615 52.3815 6.60815 52.146 6.60529C52.1266 6.60473 52.0571 6.54653 52.3686 6.53694ZM124.745 6.5421C124.669 6.51867 122.608 6.25918 122.724 6.36009C122.903 6.36268 125.238 6.66397 124.745 6.5421ZM109.237 5.43428C109.605 5.4479 109.202 5.51432 109.006 5.47763C108.933 5.46398 109.144 5.43091 109.237 5.43428ZM43.644 7.29043C43.267 7.36852 43.3308 7.21332 43.6668 7.23472C43.68 7.23556 43.6588 7.28738 43.644 7.29043ZM112.172 5.59873C110.903 5.59225 111.212 5.34652 112.856 5.51044C112.804 5.51932 112.752 5.52821 112.7 5.53711C114.599 5.67091 112.83 5.55986 112.364 5.55355C112.187 5.55077 112.333 5.6003 112.173 5.59909C112.173 5.59897 112.172 5.59885 112.172 5.59873ZM107.301 5.36818C106.659 5.25469 107.001 5.25132 107.567 5.27392C108.077 5.29421 108.767 5.33725 109.084 5.33709C108.433 5.3898 107.589 5.35238 108.736 5.46581C107.056 5.42735 107.757 5.37802 107.69 5.36943C107.663 5.3664 107.617 5.36626 107.566 5.36709C107.462 5.36875 107.336 5.37437 107.301 5.36818ZM110.525 5.47599C110.595 5.47334 111.126 5.53183 111.318 5.53412C111.048 5.58415 110.055 5.49355 110.525 5.47599ZM141.806 8.61517C141.855 8.57132 141.969 8.54717 142.391 8.60791C142.258 8.61908 141.985 8.61259 141.806 8.61517ZM14.0953 10.6855C13.8083 10.7239 13.235 10.7901 13.418 10.8148C13.4379 10.8162 14.099 10.7139 14.0953 10.6855ZM118.743 5.93309C118.682 5.92055 117.1 5.80207 117.643 5.89518C117.808 5.92142 119.247 6.02459 118.743 5.93309ZM126.899 6.76982C126.767 6.75196 126.231 6.69384 126.219 6.70409C126.178 6.73867 126.836 6.79961 126.899 6.76982ZM12.6423 10.8501C12.6037 10.8505 11.7307 10.9911 11.8307 11C12.0203 11.0163 12.7742 10.8479 12.6423 10.8501ZM53.6395 6.32959C53.7133 6.32245 53.8154 6.36808 53.841 6.36683C53.901 6.36288 55.2521 6.24696 54.7409 6.35113C54.6835 6.36272 53.7922 6.41666 53.1321 6.45614C52.8064 6.47552 52.5375 6.49109 52.4537 6.49508C52.3767 6.44696 52.8148 6.43836 53.1298 6.42843C53.2405 6.42493 53.336 6.42123 53.3885 6.41547C53.424 6.41147 53.4417 6.34931 53.6389 6.32993C53.6391 6.32982 53.6393 6.3297 53.6395 6.32959ZM144.02 8.78253C144.039 8.77041 144.199 8.77318 144.413 8.78413C144.906 8.80978 145.685 8.87726 145.669 8.91477C145.249 8.88224 144.83 8.84884 144.41 8.81461C144.28 8.804 144.15 8.7933 144.02 8.78253ZM143.205 8.69607C142.866 8.63008 143.668 8.698 143.904 8.73465C143.904 8.76593 143.255 8.70589 143.205 8.69607ZM123.941 6.24636C123.782 6.24038 124.261 6.36008 124.151 6.36128C124.081 6.36164 123.731 6.29837 123.616 6.30741C123.583 6.31058 123.938 6.412 124.042 6.42074C124.19 6.43327 124.051 6.36812 124.212 6.38549C124.747 6.44342 125.216 6.5333 125.717 6.59275C125.762 6.59801 125.415 6.52096 125.801 6.56791C125.861 6.57518 126.214 6.67029 126.678 6.72152C127.027 6.71129 127.343 6.73431 127.657 6.7741C128.285 6.85353 128.907 6.99406 129.787 7.07006C129.739 7.04866 128.759 6.87848 128.702 6.86908C128.408 6.82292 128.051 6.76994 127.665 6.71384C126.618 6.56086 125.358 6.40699 124.529 6.31458C124.238 6.28194 124.376 6.33182 124.251 6.31917C124.151 6.30922 124.276 6.25888 123.941 6.24636ZM14.242 10.6285C14.0956 10.5856 13.6228 10.6956 13.3164 10.7377C13.4331 10.7783 13.9408 10.6582 14.242 10.6285ZM136.017 7.86873C135.861 7.85292 135.381 7.77663 135.339 7.79076C135.284 7.80952 135.98 7.90783 136.017 7.86873ZM61.2709 5.84072C61.2857 5.83806 61.6594 5.81886 61.6737 5.82003C62.0109 5.85065 60.8903 5.90802 61.2709 5.84072ZM70.1948 5.38097C70.4771 5.36089 70.7612 5.32913 70.859 5.3766C70.6785 5.37612 70.1636 5.41815 70.1948 5.38097ZM82.4963 5.05406C82.4455 4.99699 83.0548 5.01558 83.3364 5.02626C83.3857 5.02809 83.4249 5.02964 83.4489 5.03043C83.4374 5.0363 83.3962 5.04254 83.3368 5.04847C83.0903 5.07288 82.5316 5.09281 82.4963 5.05406ZM141.763 8.3984C142.287 8.45582 142.186 8.34289 142.514 8.42235C142.568 8.43548 142.725 8.66482 142.156 8.5275C142.053 8.50268 142.463 8.49376 141.763 8.3984ZM113.124 5.5258C113.258 5.48777 113.67 5.52198 113.948 5.54053C113.884 5.57009 113.323 5.53227 113.124 5.5258ZM11.0546 11.0386C10.8028 11.0129 9.69644 11.2317 9.979 11.2301C10.019 11.2292 10.8977 11.0599 11.0546 11.0386ZM47.8798 6.80765C48.3384 6.72053 47.3775 6.78329 47.0792 6.8569C47.2159 6.84227 47.849 6.81335 47.8798 6.80765ZM79.5408 5.05465C79.563 5.05212 80.0549 5.04881 80.0769 5.05101C80.4813 5.09607 79.0898 5.10582 79.5408 5.05465ZM67.257 5.43629C67.306 5.42234 67.4336 5.41031 67.5975 5.40095C68.0166 5.37687 68.6732 5.3711 68.8625 5.39183C68.7074 5.43633 68.0316 5.46587 67.6016 5.46767C67.345 5.46866 67.176 5.45943 67.257 5.43629ZM139.605 8.19987C139.979 8.2383 140.332 8.28869 140.674 8.34246C140.598 8.36935 139.642 8.23 139.605 8.19987ZM81.3459 5.02429C81.3722 5.02426 81.398 5.02786 81.4231 5.02799C81.3968 5.02683 81.3711 5.02546 81.3459 5.02429ZM131.26 7.18432C130.949 7.1309 131.007 7.20156 131.026 7.20596C131.258 7.25634 131.611 7.24463 131.26 7.18432ZM13.8757 10.5876C13.7601 10.547 13.2493 10.6669 12.9494 10.6979C13.0429 10.7293 13.6368 10.6286 13.8757 10.5876ZM105.993 5.21704C105.602 5.14536 107.195 5.11435 107.529 5.16503C107.553 5.20289 106.05 5.22597 105.993 5.21704ZM46.4334 6.84175C46.3979 6.79992 45.7368 6.90978 45.8804 6.91877C45.9713 6.92443 46.4546 6.86769 46.4334 6.84175ZM108.328 5.21535C108.478 5.20646 108.825 5.26185 108.702 5.28455C108.544 5.3136 108.29 5.218 108.328 5.21535ZM121.685 5.97829C121.62 5.96479 120.745 5.93104 121.102 6.00898C121.349 6.06309 121.394 6.00286 121.453 6.00807C121.518 6.01328 122.91 6.22641 121.685 5.97829ZM97.0643 5.04348C97.397 5.02909 97.7996 5.05245 98.1478 5.05448C98.0061 5.08057 97.206 5.08109 97.0643 5.04348ZM49.0034 6.61963C48.9211 6.60712 46.7307 6.77495 47.9797 6.7287C48.0524 6.72558 49.2525 6.6543 49.0034 6.61963ZM141.763 8.3984C141.697 8.39113 141.621 8.38119 141.533 8.36771C141.621 8.37848 141.697 8.38932 141.763 8.3984ZM135.818 7.73446C135.942 7.71657 135.337 7.63618 135.156 7.63173C135.097 7.66456 135.801 7.73716 135.818 7.73446ZM98.1741 5.00955C98.3748 4.99288 98.7388 5.01622 98.9872 5.01665C98.9452 5.04624 98.261 5.04087 98.1741 5.00955ZM84.0751 4.8893C84.4722 4.90609 84.9603 4.89806 84.9674 4.86127C84.9758 4.86703 84.9951 4.87315 85.0271 4.87932C85.0595 4.88535 85.4836 4.86882 85.6682 4.88206C86.7752 4.95262 81.4003 4.93126 84.5141 4.82076C84.3678 4.8435 84.2215 4.86635 84.0751 4.8893ZM65.6747 5.43128C65.4467 5.39839 64.8198 5.48898 64.9847 5.49768C65.0994 5.5033 65.9031 5.46424 65.6747 5.43128ZM74.3433 5.02796C74.2756 5.022 73.6609 5.07408 73.6461 5.09836C74.0014 5.11085 74.6517 5.05519 74.3433 5.02796ZM63.9393 5.47434C63.8325 5.47531 63.7066 5.52219 63.6579 5.54635C63.658 5.54635 63.6577 5.54636 63.6578 5.54636C63.6418 5.55434 63.634 5.55984 63.6382 5.56039C63.6447 5.56119 63.6517 5.56179 63.6589 5.56224C63.818 5.57166 64.1692 5.49986 63.9393 5.47434ZM140.696 8.09188C140.486 8.04915 139.806 8.02891 139.655 8.06027C139.629 8.04812 139.556 8.02818 139.422 7.99909C139.423 7.99914 139.423 7.99918 139.423 7.99923C139.389 7.99172 139.16 7.96308 138.84 7.92457C137.487 7.76444 134.497 7.41246 137.442 7.82979C137.556 7.84573 137.404 7.78549 137.869 7.84581C137.899 7.84984 137.911 7.88635 138.006 7.89875C138.118 7.91325 138.476 7.96032 138.832 8.00194C139.172 8.04177 139.509 8.07668 139.625 8.0754C139.626 8.08207 139.641 8.08984 139.672 8.09896C139.955 8.18064 140.859 8.12526 140.696 8.09188ZM75.5645 4.98389C75.5396 4.98202 75.504 4.98148 75.4626 4.98207C75.2972 4.98441 75.0401 5.00506 75.0087 5.03076C75.1054 5.03528 75.3138 5.02906 75.4641 5.01913C75.6172 5.00902 75.7103 4.99494 75.5645 4.98389ZM48.9239 6.49876C48.6692 6.49346 48.0344 6.59248 48.2299 6.60202C48.3497 6.60773 49.2175 6.50456 48.9239 6.49876ZM71.6341 5.13599C73.0844 5.11637 71.9797 5.11953 72.1992 5.06568C72.0108 5.08898 71.8224 5.11242 71.6341 5.13599ZM147.442 8.85143C147.21 8.82134 147.49 8.75558 147.744 8.82522C147.823 8.84726 147.572 8.86809 147.442 8.85143ZM157.992 9.50173C157.795 9.4144 158.769 9.50141 158.387 9.53996C158.37 9.54115 158.007 9.50543 157.992 9.50173ZM150.619 9.04068C150.475 9.07836 150.377 9.08161 150.041 9.04869C150.001 9.0447 149.957 9.04019 149.909 9.03514C149.96 9.03784 150.004 9.03975 150.042 9.04101C150.483 9.05559 150.012 8.98142 150.619 9.04068ZM84.9631 4.85547C84.9657 4.85765 84.9678 4.85926 84.9674 4.86127C84.9646 4.85929 84.9633 4.8574 84.9631 4.85547ZM62.5755 5.56741C62.3907 5.53242 61.8822 5.56612 62.037 5.60301C62.0519 5.60635 62.5034 5.60546 62.5755 5.56741ZM139.655 8.06027C139.678 8.07103 139.666 8.07496 139.625 8.0754C139.624 8.06913 139.635 8.06453 139.655 8.06027ZM65.3047 5.37531C65.2889 5.41017 66.0625 5.38214 66.0936 5.37668C66.5338 5.29436 65.6235 5.35572 65.3047 5.37531ZM43.8138 6.87995C43.7743 6.887 44.0397 6.95201 44.1937 6.90388C44.3129 6.86654 43.9615 6.85326 43.8138 6.87995ZM152.137 9.12466C152.384 9.14137 152.733 9.16396 152.795 9.20978C152.629 9.19285 152.13 9.15503 152.137 9.12466ZM157.612 9.42774C157.318 9.46404 156.648 9.43256 156.221 9.40266C156.215 9.3383 157.337 9.43161 157.612 9.42774ZM141.362 8.18576C141.342 8.1812 140.726 8.09737 140.806 8.14919C140.924 8.22549 141.535 8.2273 141.362 8.18576ZM45.0086 6.82255C45.2798 6.76919 44.6398 6.73225 44.3576 6.82817C44.2127 6.87718 44.9628 6.83138 45.0086 6.82255ZM60.9827 5.60304C60.6217 5.65022 61.524 5.63983 61.6466 5.58723C61.4791 5.59365 61.1109 5.58628 60.9827 5.60304ZM73.319 4.94505C72.1701 4.8558 72.8041 5.07139 73.0056 5.04303C73.034 5.03897 73.3471 4.94711 73.319 4.94505ZM8.21105 11.2179C8.0545 11.2611 8.66067 11.2314 8.73067 11.1766C8.7737 11.1423 8.31118 11.1901 8.21105 11.2179ZM90.5439 4.85347C90.4954 4.85358 90.4472 4.8537 90.3995 4.85376C90.4353 4.85186 90.4823 4.85147 90.5439 4.85347ZM57.6792 5.63764C58.4972 5.76878 58.4018 5.63281 58.4717 5.62896C58.6229 5.62114 58.9775 5.64827 59.2615 5.622C58.9371 5.66347 58.6128 5.70517 58.2887 5.74709C58.547 5.7425 60.788 5.66938 60.833 5.63762C60.897 5.59092 60.1941 5.64773 60.1734 5.64537C60.1435 5.64187 60.0248 5.53059 59.9592 5.53019C59.8515 5.52902 57.9807 5.64644 57.6792 5.63764ZM70.9309 5.05723C71.1153 5.06369 71.17 5.10844 71.2548 5.09377C71.2836 5.08876 71.286 5.04386 71.3846 5.02829C71.2334 5.03785 71.0821 5.0475 70.9309 5.05723ZM56.252 5.89965C56.02 5.8605 57.0421 5.81202 57.0755 5.81616C57.253 5.84137 56.4414 5.93136 56.252 5.89965ZM64.9162 5.35673C64.8789 5.3554 64.0936 5.38211 64.1019 5.41219C64.3113 5.4232 65.3592 5.37239 64.9162 5.35673ZM71.5071 5.02032C71.5119 5.02022 71.5168 5.02013 71.5217 5.02004C71.8008 5.01523 72.3046 5.03834 72.2426 4.97448C72.2421 4.9745 72.2417 4.97451 72.2413 4.97453C72.0014 4.98926 71.7615 5.00422 71.5217 5.0194C71.5168 5.0197 71.512 5.02001 71.5071 5.02032ZM45.9334 6.60055C45.4136 6.53697 45.6683 6.65137 46.1224 6.64774C46.2544 6.58822 46.0186 6.61085 45.9334 6.60055ZM44.2954 6.66122C44.1519 6.65381 42.6936 6.80501 42.9223 6.84187C43.0034 6.85473 43.838 6.7292 43.8771 6.72987C43.9363 6.73051 43.6748 6.81662 44.1212 6.76483C44.0929 6.74592 44.3445 6.66339 44.2954 6.66122ZM45.5051 6.56798C44.9907 6.53005 44.8918 6.6899 45.2725 6.65752C45.4213 6.64501 45.5785 6.57354 45.5051 6.56798ZM47.5747 6.40766C47.391 6.40834 46.9036 6.42765 46.5739 6.50555C47.0218 6.47238 47.4702 6.43968 47.9183 6.4075C47.9672 6.37504 47.7354 6.40707 47.5734 6.40776C47.5738 6.40773 47.5742 6.4077 47.5747 6.40766ZM160.706 9.15847C160.3 9.10339 161.239 9.11567 161.278 9.12671C161.396 9.16488 160.888 9.18331 160.706 9.15847ZM4.86471 10.3748C4.75094 10.3764 4.66865 10.3333 4.42994 10.4029C4.68253 10.4027 4.93506 10.4026 5.18752 10.4028C5.36156 10.2778 4.98909 10.3731 4.86471 10.3748ZM3.86707 10.1903C3.9013 10.1823 3.6862 10.0705 4.15107 10.0911C4.465 10.1046 2.83211 10.4449 2.52361 10.4332C2.84625 10.3472 3.57218 10.2588 3.86707 10.1903ZM0.871636 10.0641C0.850522 10.0558 1.47262 9.93003 1.54647 9.92568C1.93426 9.90223 0.985728 10.107 0.871636 10.0641ZM2.87151 9.7469C2.573 9.76905 3.21979 9.64024 3.41642 9.62367C3.44003 9.64713 2.91758 9.74314 2.87151 9.7469ZM156.658 6.88815C156.341 6.77358 156.046 6.97168 156.541 6.95358C156.565 6.95273 156.672 6.89367 156.658 6.88815ZM1.45603 9.81284C1.75445 9.78979 1.10812 9.92046 0.911514 9.93845C0.888529 9.91486 1.41063 9.81642 1.45603 9.81284ZM156.441 6.64161C156.018 6.54908 156.159 6.79516 156.212 6.80753C156.429 6.85705 157.185 6.79964 157.339 6.78305C156.213 6.76571 156.64 6.68467 156.441 6.64161ZM154.471 6.6787C154.074 6.68125 155.082 6.78854 155.278 6.73193C155.081 6.72452 154.583 6.67802 154.471 6.6787ZM152.077 6.45117C151.865 6.4285 151.234 6.36387 151.126 6.39359C151.358 6.40361 151.985 6.4839 152.077 6.45117ZM151.602 6.30577C151.274 6.2316 151.185 6.37441 151.57 6.35706C151.585 6.35638 151.614 6.30946 151.602 6.30577ZM149.741 6.11574C149.527 6.04004 149.269 6.16439 149.622 6.19559C149.727 6.20455 149.763 6.12426 149.741 6.11574ZM155.918 6.35772C155.876 6.35203 155.832 6.34864 155.789 6.34714C155.531 6.3381 155.316 6.39731 155.785 6.43791C155.81 6.44009 155.837 6.4422 155.867 6.44424C155.839 6.44465 155.812 6.44506 155.785 6.44546C155.578 6.44849 155.371 6.45124 155.164 6.45373C155.463 6.49025 155.653 6.49632 155.783 6.48969C156.03 6.47699 156.061 6.41839 156.225 6.43064C156.574 6.4567 156.542 6.57314 156.471 6.60674C156.76 6.54949 157.979 6.60548 158.683 6.6189C158.065 6.56427 157.063 6.46637 156.453 6.41618C156.279 6.40192 156.109 6.42564 155.96 6.41429C155.722 6.39586 155.936 6.36035 155.919 6.35779C155.919 6.35777 155.919 6.35775 155.918 6.35772ZM147.291 5.91489C146.657 5.79303 147.05 5.97231 147.413 5.97735C147.429 5.97669 147.307 5.91788 147.291 5.91489ZM0.534629 9.52623C1.39338 9.43806 0.791462 9.62261 2.54261 9.19763C1.8128 9.41033 2.51256 9.26575 2.37334 9.32497C2.26144 9.37205 1.82063 9.42479 2.08455 9.4357C1.73993 9.43288 0.293698 9.70247 0.227263 9.70485C0.22787 9.70474 0.228478 9.70464 0.229086 9.70453C0.189197 9.70568 0.260617 9.55477 0.534629 9.52623ZM152.095 6.0733C151.891 5.88354 151.792 6.15612 151.381 5.98146C150.811 6.1541 152.922 6.08838 153.167 6.28005C150.887 6.11167 154.665 6.55335 153.087 6.18445C154.393 6.36319 153.518 6.17829 153.722 6.15697C153.94 6.13442 154.68 6.21721 154.645 6.14949C154.645 6.14946 154.645 6.14944 154.644 6.14942C154.19 6.1279 153.737 6.1051 153.283 6.08107C153.72 6.24985 152.795 6.14949 152.487 6.01338C152.356 6.03345 152.225 6.05343 152.095 6.0733ZM154.656 6.36642C154.611 6.3612 153.623 6.32197 153.685 6.35367C153.816 6.38097 155.219 6.44028 154.656 6.36642ZM159.002 6.54503C158.647 6.53117 158.1 6.48069 157.905 6.52528C158.26 6.54129 158.807 6.59093 159.002 6.54503ZM140.763 5.16876C140.308 5.16464 141.696 5.32385 141.299 5.23005C141.279 5.22566 140.786 5.16918 140.763 5.16876ZM151.066 6.02815C150.61 5.94142 150.817 6.12767 151.16 6.10763C151.18 6.10642 151.087 6.03212 151.066 6.02815ZM1.21758 9.38577C1.24045 9.33876 2.47526 9.15553 2.69374 9.11845C2.57632 9.17737 1.19143 9.43856 1.21758 9.38577ZM159.629 6.41178C158.928 6.23673 157.968 6.36966 157.863 6.36095C157.758 6.35251 157.924 6.29395 157.9 6.29113C157.846 6.28585 156.736 6.23996 156.682 6.24115C156.643 6.24283 156.841 6.34502 156.61 6.36288C157.06 6.33536 159.089 6.45425 159.195 6.44556C159.277 6.44032 158.664 6.32054 159.628 6.41174C159.629 6.41175 159.629 6.41176 159.629 6.41178ZM157.601 6.3292C157.877 6.38046 157.099 6.35023 156.911 6.32648C156.494 6.27461 157.566 6.3237 157.601 6.3292ZM155.731 6.20186C155.643 6.18887 154.841 6.13684 154.771 6.17564C155.148 6.25361 155.932 6.23286 155.731 6.20186ZM146.812 5.57727C146.603 5.56482 146.034 5.48083 145.998 5.51531C146.207 5.52875 146.776 5.61211 146.812 5.57727ZM5.35922 8.35079C5.00955 8.37624 5.80476 8.23237 6.04002 8.20965C6.05695 8.2323 5.389 8.3485 5.35922 8.35079ZM151.01 5.66297C150.969 5.65618 150.661 5.63476 150.257 5.60767C149.449 5.55443 148.256 5.4741 148.02 5.46585C148.251 5.50478 149.456 5.60991 150.253 5.66719C150.639 5.69535 150.929 5.71337 150.966 5.71152C151 5.70975 151.026 5.6659 151.01 5.66297ZM156.444 5.97832C156.677 5.93438 156.825 6.00809 156.854 6.01034C157.139 6.03284 157.73 6.04699 157.598 6.09452C157.096 6.05125 155.982 6.06545 156.444 5.97832ZM146.652 5.31137C145.798 5.25693 147.432 5.45901 147.221 5.38186C147.207 5.37727 146.74 5.31707 146.652 5.31137ZM151.292 5.6669C151.482 5.63894 153.993 5.84241 154.397 5.86217C154.031 5.92351 153.743 5.84328 153.257 5.81689C153.126 5.80983 153.159 5.84639 153.145 5.84555C152.918 5.83264 153.09 5.80383 152.95 5.79424C152.862 5.7902 151.023 5.7125 151.292 5.6669ZM156.577 5.94644C156.719 5.92319 158.288 5.98073 158.351 5.99031C158.822 6.07448 156.699 5.96641 156.577 5.94644ZM151.065 5.57706C151.341 5.50135 152.585 5.6508 151.728 5.64005C151.646 5.6388 151.304 5.57306 151.065 5.57706ZM146.75 5.22812C146.708 5.22201 145.821 5.12365 145.803 5.15232C145.93 5.17664 147.225 5.30106 146.75 5.22812ZM147.218 5.16495C147.197 5.1638 147.401 5.24053 146.985 5.19713C146.95 5.19333 146.89 5.12204 146.365 5.09989C146.258 5.09545 146.09 5.12438 146.102 5.12816C146.64 5.28209 148.297 5.2224 147.218 5.16495ZM156.608 5.8942C156.525 5.86206 156.732 5.78922 156.914 5.84004C156.992 5.86194 156.843 5.90481 156.608 5.8942ZM143.934 4.94168C144.455 4.94192 142.835 4.77447 142.751 4.77786C142.8 4.81482 143.882 4.94209 143.934 4.94168ZM6.09826 7.83514C6.09785 7.83521 6.09744 7.83528 6.09704 7.83534C6.5329 7.77618 6.27132 7.86118 6.29188 7.85917C7.22648 7.77057 6.96518 7.71679 7.1078 7.68239C7.4136 7.60888 7.3832 7.73071 7.89778 7.60041C7.04576 7.80764 7.82717 7.65318 7.85853 7.68994C7.98362 7.83977 6.69521 7.7956 6.27027 7.90079C6.2111 7.91528 6.66336 7.89637 6.5122 7.93628C6.0207 8.06533 4.427 8.06423 6.09826 7.83514ZM157.056 5.83949C157.259 5.80145 158.787 5.91448 158.38 5.93747C158.315 5.9428 156.757 5.89809 157.056 5.83949ZM85.0609 1.15511C85.434 1.11287 84.5676 1.06189 84.4078 1.09564C84.3285 1.11215 84.8969 1.17345 85.0609 1.15511ZM78.9933 1.02729C78.5501 1.04419 78.0891 1.23163 78.6393 1.19288C78.6977 1.18865 79.0448 1.05095 78.9933 1.02729ZM108.026 1.33228C107.564 1.25485 107.59 1.37367 107.93 1.38216C108.05 1.38523 108.041 1.33474 108.026 1.33228ZM90.4183 1.11334C90.3723 1.10894 89.8411 1.11299 89.8606 1.14022C90.0571 1.15782 90.7159 1.14351 90.4183 1.11334ZM108.173 1.32003C107.899 1.33284 108.369 1.43248 108.706 1.36023C108.536 1.36142 108.202 1.31869 108.173 1.32003ZM150.139 5.2477C149.91 5.27913 149.271 5.21514 148.902 5.19382C148.867 5.12851 149.876 5.23987 150.139 5.2477ZM80.877 1.06917C80.4585 1.11873 81.3584 1.14356 81.2746 1.08633C81.2631 1.08323 80.8935 1.06701 80.877 1.06917ZM122.991 2.23078C122.682 2.2371 123.648 2.38539 123.386 2.29295C123.373 2.28882 123.007 2.23027 122.991 2.23078ZM127.231 2.73462C127.003 2.69163 126.013 2.57453 126.394 2.65792C126.453 2.67026 127.21 2.76593 127.231 2.73462ZM7.12575 7.63367C6.99212 7.58957 7.7068 7.49091 7.81062 7.48604C7.85141 7.48424 7.29994 7.69074 7.12575 7.63367ZM105.021 1.24361C104.782 1.24625 104.161 1.21819 104.052 1.24998C104.345 1.24849 105.099 1.31257 105.021 1.24361ZM82.7911 1.05033C82.4239 0.982471 81.7995 0.995238 81.9559 1.08536C82.6456 1.07334 81.8688 1.0033 82.7911 1.05033ZM109.718 1.29648C109.526 1.28418 109.377 1.36691 109.399 1.3718C109.606 1.41843 109.909 1.33761 109.718 1.29648ZM95.3327 1.10897C95.3214 1.0713 94.7088 1.08424 94.7908 1.10898C94.8176 1.11725 95.3418 1.13941 95.3327 1.10897ZM142.204 4.51811C141.93 4.45574 142.78 4.50881 143.028 4.57326C143.145 4.64306 142.239 4.52596 142.204 4.51811ZM115.053 1.56613C115.075 1.52913 114.63 1.50646 114.467 1.51795C114.399 1.52269 114.38 1.53324 114.466 1.55089C114.475 1.55276 114.485 1.55471 114.496 1.55675C114.591 1.57339 115.042 1.58404 115.053 1.56613ZM124.299 2.25263C123.643 2.2445 126.364 2.59901 125.657 2.43654C125.606 2.42327 124.355 2.25165 124.299 2.25263ZM128.721 2.8368C128.612 2.81488 128.689 2.63667 129.134 2.76848C129.192 2.78567 128.908 2.79778 128.955 2.81546C128.983 2.82588 129.966 2.98219 130.011 2.98352C130.061 2.985 130.01 2.91794 130.061 2.91775C130.117 2.91765 130.717 3.04915 131.034 3.09063C131.633 3.16883 131.703 3.12731 131.752 3.13347C131.895 3.15144 132.132 3.21732 132.421 3.25397C132.802 3.30204 133.235 3.35341 133.688 3.40711C134.975 3.56014 136.421 3.72911 137.27 3.90568C136.243 3.74413 135.256 3.67162 134.228 3.55947C134.392 3.52452 133.967 3.49731 133.68 3.48034C133.438 3.46606 133.294 3.4595 133.681 3.46321C133.712 3.46349 133.745 3.46383 133.782 3.46423C133.758 3.46252 133.724 3.45966 133.682 3.45575C132.881 3.38544 129.061 2.9076 128.722 2.83697C128.722 2.83691 128.721 2.83686 128.721 2.8368ZM77.2422 1.01196C77.5122 0.941025 76.1157 0.990193 76.0003 1.06825C76.1849 1.07298 77.2087 1.01961 77.2422 1.01196ZM83.6889 0.766123C83.8186 0.75477 83.9403 0.628746 84.623 0.691587C84.6236 0.691587 84.6242 0.691587 84.6249 0.691586C84.8245 0.710047 84.5977 0.740566 84.6343 0.751415C84.6476 0.755717 85.2703 0.81822 84.7539 0.828014C83.967 0.843906 84.6786 0.734926 84.2589 0.734098C84.2074 0.733771 83.4141 0.80402 83.4606 0.818927C83.4655 0.820612 83.7041 0.805349 83.7437 0.811419C83.8931 0.83414 83.8211 0.873421 83.8422 0.87521C83.9111 0.879029 85.1658 0.811457 85.3501 0.870747C85.4085 0.887748 83.3484 0.933386 83.268 0.926067C83.2673 0.925981 83.2665 0.925872 83.2658 0.925743C83.2177 0.917031 83.2359 0.81156 83.1839 0.801328C83.1566 0.795857 82.3283 0.841976 82.2206 0.833265C82.1892 0.830646 82.1653 0.827746 82.1478 0.825338C82.2739 0.857595 81.5231 0.862258 81.5453 0.824424C81.558 0.809301 82.0751 0.812874 82.0935 0.815431C82.1017 0.81646 82.1087 0.817915 82.1153 0.818903C82.039 0.790503 82.8902 0.77602 83.2628 0.751183C83.4176 0.740703 83.4899 0.727966 83.3786 0.710611C83.8855 0.675177 83.3082 0.800037 83.6889 0.766123ZM86.1299 0.700608C86.0775 0.711757 86.0251 0.722919 85.9727 0.734096C86.3768 0.723121 86.8077 0.730182 87.253 0.742578C87.7858 0.75746 88.3396 0.778062 88.8933 0.781851C89.1505 0.783681 88.8543 0.711868 89.1915 0.733312C89.4616 0.750486 89.7608 0.817138 89.6141 0.83056C89.5783 0.83393 89.0282 0.788025 88.753 0.790289C87.9404 0.79699 88.1459 0.858203 88.0984 0.859488C88.046 0.860798 87.5343 0.814654 87.2547 0.814062C87.2542 0.814061 87.2538 0.814061 87.2533 0.81406C86.5476 0.813299 86.2241 0.847441 85.2535 0.797303C85.8132 0.759242 85.5061 0.672622 86.1299 0.700608ZM119.14 1.67246C119.176 1.63736 119.757 1.7168 119.969 1.72904C119.933 1.76366 119.352 1.68311 119.14 1.67246ZM32.927 3.91464C32.7577 3.9946 34.0837 3.86916 33.7287 3.85518C33.6502 3.85191 33.0935 3.89715 32.927 3.91464ZM38.883 3.34701C39.0585 3.31288 38.3397 3.33757 38.3462 3.38513C38.3489 3.40022 38.8604 3.35136 38.883 3.34701ZM97.5317 0.839886C97.5654 0.838208 98.0554 0.856354 98.0708 0.859673C98.3955 0.927992 96.783 0.875983 97.5317 0.839886ZM46.1183 2.61983C45.5034 2.71168 47.3674 2.57413 46.7935 2.57009C46.7649 2.56984 46.1478 2.6153 46.1183 2.61983ZM48.7062 2.39724C48.558 2.41109 47.8974 2.44399 47.8905 2.46356C47.8802 2.4948 48.6361 2.45497 48.7062 2.39724ZM109.854 1.06813C109.783 0.995719 110.658 1.08122 110.963 1.08533C111.034 1.15755 110.159 1.07002 109.854 1.06813ZM104.331 0.862384C108.019 0.893685 107.203 1.01992 104.111 0.891858C104.107 0.847165 104.098 0.861136 104.331 0.862384ZM109.055 0.996908C108.919 1.03683 108.501 1.00978 108.217 0.99747C108.269 0.967951 108.85 0.997797 109.055 0.996908ZM31.3389 3.99088C31.3865 3.9735 31.4708 3.95789 31.5721 3.94455C31.9442 3.89544 32.5463 3.8775 32.4067 3.91099C32.3793 3.91725 31.8852 3.96733 31.5776 3.98939C31.4203 4.00062 31.3117 4.00443 31.3389 3.99088ZM97.8394 0.78308C97.7536 0.714501 98.8569 0.752558 98.9416 0.768679C99.2822 0.83245 97.9286 0.768635 97.8394 0.78308ZM115.104 1.254C115.302 1.21228 115.859 1.27266 116.217 1.29615C116.051 1.33083 115.408 1.27222 115.104 1.254ZM112.518 1.07772C112.541 1.07659 113.04 1.10524 113.063 1.10892C113.47 1.18009 112.057 1.09946 112.518 1.07772ZM5.40889 7.43107C5.42492 7.42666 5.79658 7.36934 5.80986 7.36924C6.14982 7.36529 5.0344 7.53713 5.40889 7.43107Z" fill="#FF9900"/>
</svg>
