<svg width="103" height="35" viewBox="0 0 103 35" fill="none" xmlns="http://www.w3.org/2000/svg">
<rect width="103" height="35" rx="4" fill="white"/>
<path d="M12.7824 19.9271C12.7824 20.7461 12.9604 21.375 13.1931 21.7554C13.4981 22.2537 13.9531 22.4648 14.417 22.4648C15.0153 22.4648 15.5627 22.3149 16.6174 20.8416C17.4625 19.6608 18.4581 18.0033 19.1281 16.9641L20.2627 15.2037C21.0508 13.9811 21.963 12.6219 23.0089 11.7007C23.8628 10.9487 24.7839 10.531 25.7109 10.531C27.2672 10.531 28.7497 11.4418 29.8843 13.1501C31.1259 15.0209 31.7287 17.3774 31.7287 19.8092C31.7287 21.2549 31.4465 22.3171 30.9664 23.1563C30.5025 23.9679 29.5984 24.7788 28.0775 24.7788V22.4648C29.3798 22.4648 29.7048 21.2564 29.7048 19.8734C29.7048 17.9026 29.2498 15.7154 28.2474 14.1526C27.5361 13.0441 26.6143 12.3668 25.6001 12.3668C24.5032 12.3668 23.6205 13.2023 22.6285 14.692C22.1011 15.4834 21.5597 16.4479 20.9518 17.5363L20.2826 18.7336C18.9383 21.1408 18.5978 21.689 17.9256 22.5939C16.7474 24.1783 15.7414 24.7788 14.417 24.7788C12.8459 24.7788 11.8524 24.0918 11.2371 23.0564C10.7349 22.2127 10.4882 21.1057 10.4882 19.8443L12.7824 19.9271Z" fill="#0081FB"/>
<path d="M12.2972 13.3134C13.3491 11.6761 14.867 10.531 16.608 10.531C17.6162 10.531 18.6186 10.8324 19.6652 11.6954C20.8101 12.6391 22.0304 14.1929 23.5527 16.7538L24.0986 17.6728C25.4163 19.8898 26.1661 21.0304 26.6048 21.5682C27.1691 22.259 27.5643 22.4648 28.0777 22.4648C29.3799 22.4648 29.7049 21.2564 29.7049 19.8734L31.7288 19.8092C31.7288 21.2549 31.4466 22.3171 30.9665 23.1563C30.5026 23.9679 29.5985 24.7788 28.0777 24.7788C27.1322 24.7788 26.2946 24.5714 25.3683 23.6889C24.6563 23.0116 23.8238 21.8084 23.1834 20.7268L21.2784 17.5132C20.3226 15.9004 19.4459 14.6979 18.9384 14.1534C18.3925 13.5678 17.6908 12.8606 16.571 12.8606C15.6647 12.8606 14.8951 13.5029 14.251 14.4853L12.2972 13.3134Z" fill="url(#paint0_linear_84_7)"/>
<path d="M16.5709 12.8606C15.6646 12.8606 14.8949 13.5029 14.2508 14.4853C13.3401 15.8736 12.7824 17.9413 12.7824 19.9271C12.7824 20.7461 12.9604 21.375 13.1931 21.7554L11.2371 23.0564C10.7349 22.2127 10.4882 21.1057 10.4882 19.8443C10.4882 17.5505 11.1116 15.1597 12.2971 13.3134C13.3489 11.6761 14.8669 10.531 16.6078 10.531L16.5709 12.8606Z" fill="url(#paint1_linear_84_7)"/>
<path d="M36.1887 11H38.8427L43.3551 19.2443L47.8682 11H50.4645V24.5466H48.2996V14.1644L44.3419 21.3539H42.3106L38.3537 14.1644V24.5466H36.1887V11ZM57.2482 16.0509C55.6956 16.0509 54.7605 17.231 54.5367 18.6923H59.8062C59.6976 17.187 58.8378 16.0509 57.2482 16.0509ZM52.3902 19.5248C52.3902 16.45 54.3579 14.2121 57.2859 14.2121C60.1659 14.2121 61.8855 16.4216 61.8855 19.6889V20.2894H54.5367C54.7974 21.879 55.8419 22.9502 57.526 22.9502C58.8696 22.9502 59.7094 22.5362 60.5057 21.7791L61.6557 23.2016C60.5721 24.2079 59.1938 24.7883 57.4492 24.7883C54.2796 24.7883 52.3902 22.4542 52.3902 19.5248ZM64.5106 16.2448H62.5177V14.4545H64.5106V11.4938H66.5995V14.4545H69.6272V16.2448H66.5995V20.7825C66.5995 22.3318 67.09 22.8824 68.2954 22.8824C68.8457 22.8824 69.1611 22.8346 69.6272 22.7563V24.5272C69.0466 24.6928 68.4926 24.7689 67.8929 24.7689C65.6378 24.7689 64.5106 23.5246 64.5106 21.0339V16.2448ZM78.423 17.9859C78.0034 16.9162 77.0676 16.1285 75.6922 16.1285C73.9047 16.1285 72.7605 17.4093 72.7605 19.4957C72.7605 21.5299 73.8139 22.8727 75.6065 22.8727C77.0159 22.8727 78.0219 22.0447 78.423 21.0145V17.9859ZM80.5119 24.5466H78.4614V23.1337C77.8882 23.9655 76.8452 24.7883 75.156 24.7883C72.4392 24.7883 70.6236 22.4915 70.6236 19.4957C70.6236 16.4716 72.4828 14.2121 75.2712 14.2121C76.6495 14.2121 77.7309 14.7686 78.4614 15.751V14.4545H80.5119V24.5466Z" fill="#192830"/>
<path d="M82.066 24.542L83.698 20.072H84.214L85.846 24.542H85.342L84.958 23.45H82.96L82.57 24.542H82.066ZM83.116 23H84.79L83.884 20.432H84.028L83.116 23Z" fill="#192830"/>
<path d="M87.7109 24.614C87.4109 24.614 87.1409 24.542 86.9009 24.398C86.6609 24.25 86.4709 24.05 86.3309 23.798C86.1949 23.542 86.1269 23.254 86.1269 22.934C86.1269 22.61 86.1949 22.322 86.3309 22.07C86.4709 21.818 86.6589 21.62 86.8949 21.476C87.1349 21.328 87.4069 21.254 87.7109 21.254C87.9869 21.254 88.2329 21.314 88.4489 21.434C88.6649 21.554 88.8349 21.716 88.9589 21.92L88.8869 22.046V20H89.3369V24.542H88.8869V23.822L88.9589 23.888C88.8469 24.12 88.6789 24.3 88.4549 24.428C88.2349 24.552 87.9869 24.614 87.7109 24.614ZM87.7349 24.164C87.9509 24.164 88.1449 24.11 88.3169 24.002C88.4929 23.894 88.6309 23.748 88.7309 23.564C88.8349 23.376 88.8869 23.166 88.8869 22.934C88.8869 22.702 88.8349 22.494 88.7309 22.31C88.6309 22.122 88.4929 21.974 88.3169 21.866C88.1449 21.758 87.9509 21.704 87.7349 21.704C87.5229 21.704 87.3309 21.758 87.1589 21.866C86.9869 21.974 86.8509 22.12 86.7509 22.304C86.6549 22.488 86.6069 22.698 86.6069 22.934C86.6069 23.166 86.6549 23.376 86.7509 23.564C86.8509 23.748 86.9849 23.894 87.1529 24.002C87.3249 24.11 87.5189 24.164 87.7349 24.164Z" fill="#192830"/>
<path d="M91.3769 24.614C91.0689 24.614 90.7989 24.536 90.5669 24.38C90.3349 24.224 90.1669 24.012 90.0629 23.744L90.4409 23.564C90.5329 23.76 90.6609 23.916 90.8249 24.032C90.9929 24.148 91.1769 24.206 91.3769 24.206C91.5689 24.206 91.7309 24.16 91.8629 24.068C91.9949 23.972 92.0609 23.848 92.0609 23.696C92.0609 23.584 92.0289 23.496 91.9649 23.432C91.9009 23.364 91.8269 23.312 91.7429 23.276C91.6589 23.24 91.5849 23.214 91.5209 23.198L91.0589 23.066C90.7629 22.982 90.5489 22.864 90.4169 22.712C90.2849 22.56 90.2189 22.384 90.2189 22.184C90.2189 21.996 90.2669 21.832 90.3629 21.692C90.4589 21.552 90.5889 21.444 90.7529 21.368C90.9169 21.292 91.0989 21.254 91.2989 21.254C91.5709 21.254 91.8169 21.326 92.0369 21.47C92.2609 21.61 92.4189 21.806 92.5109 22.058L92.1269 22.238C92.0469 22.058 91.9309 21.918 91.7789 21.818C91.6309 21.714 91.4649 21.662 91.2809 21.662C91.1009 21.662 90.9569 21.708 90.8489 21.8C90.7409 21.892 90.6869 22.008 90.6869 22.148C90.6869 22.256 90.7149 22.342 90.7709 22.406C90.8269 22.47 90.8909 22.518 90.9629 22.55C91.0389 22.582 91.1049 22.606 91.1609 22.622L91.6949 22.778C91.9549 22.854 92.1569 22.972 92.3009 23.132C92.4489 23.292 92.5229 23.48 92.5229 23.696C92.5229 23.872 92.4729 24.03 92.3729 24.17C92.2769 24.31 92.1429 24.42 91.9709 24.5C91.7989 24.576 91.6009 24.614 91.3769 24.614Z" fill="#192830"/>
<defs>
<linearGradient id="paint0_linear_84_7" x1="14.994" y1="19.2587" x2="29.62" y2="19.9902" gradientUnits="userSpaceOnUse">
<stop stop-color="#0064E1"/>
<stop offset="0.4" stop-color="#0064E1"/>
<stop offset="0.83" stop-color="#0073EE"/>
<stop offset="1" stop-color="#0082FB"/>
</linearGradient>
<linearGradient id="paint1_linear_84_7" x1="13.8121" y1="20.8998" x2="13.8121" y2="15.4543" gradientUnits="userSpaceOnUse">
<stop stop-color="#0082FB"/>
<stop offset="1" stop-color="#0064E0"/>
</linearGradient>
</defs>
</svg>
