<svg width="100" height="38" viewBox="0 0 100 38" fill="none" xmlns="http://www.w3.org/2000/svg">
<g id="Vector">
<path d="M13.9545 4.78475C14.3508 3.72955 14.8958 2.7581 15.7051 1.97089C18.942 -1.2282 24.2928 -0.424244 26.4892 3.59556C28.1407 6.64391 29.8913 9.62526 31.5923 12.6401L40.1139 27.6809C42.4756 31.8849 39.9158 37.1944 35.2256 37.9146C32.352 38.3501 29.6601 37.0101 28.1737 34.3973L20.676 21.1989C20.6265 21.0984 20.5604 21.0147 20.4943 20.9309C20.2301 20.7132 20.1145 20.395 19.9494 20.1102L14.4334 10.4125C13.7893 9.27352 13.4921 8.03409 13.5251 6.72765C13.5746 6.05768 13.6572 5.38772 13.9545 4.78475Z" fill="#3C8BD9"/>
<path d="M13.9545 4.78475C13.8059 5.38772 13.6739 5.9907 13.6409 6.62716C13.5913 8.03409 13.9381 9.34053 14.6318 10.5632L20.0651 20.0935C20.2303 20.3782 20.3624 20.663 20.5275 20.931L17.5384 26.1399L13.3601 33.4426C13.2941 33.4426 13.2775 33.4091 13.261 33.3588C13.2445 33.2248 13.2941 33.1076 13.3271 32.9736C14.0042 30.4612 13.4427 28.2336 11.7417 26.3242C10.7012 25.1685 9.38005 24.5153 7.86069 24.2975C5.87891 24.0128 4.12834 24.532 2.55943 25.7882C2.27868 26.006 2.09702 26.3242 1.76672 26.4917C1.70066 26.4917 1.66763 26.4582 1.65112 26.4079L4.01274 22.2374L13.839 4.969C13.8721 4.902 13.9215 4.85174 13.9545 4.78475Z" fill="#FABC04"/>
<path d="M1.71717 26.4584L2.65852 25.6042C6.67162 22.3884 12.6995 24.7165 13.5748 29.8083C13.7895 31.031 13.6739 32.2034 13.3106 33.3758C13.2941 33.4763 13.2775 33.5601 13.2445 33.6606C13.0959 33.9286 12.9638 34.2133 12.7986 34.4813C11.3288 36.9434 9.16536 38.1661 6.32481 37.9819C3.07139 37.7474 0.511594 35.2685 0.0656936 31.9857C-0.148999 30.3945 0.164782 28.9038 0.974008 27.5304C1.13916 27.2289 1.33733 26.9609 1.519 26.6594C1.60157 26.5924 1.56854 26.4584 1.71717 26.4584Z" fill="#34A852"/>
<path d="M1.71717 26.4584C1.65112 26.5254 1.65113 26.6428 1.53553 26.6595C1.51901 26.5423 1.58507 26.4753 1.65113 26.3915L1.71717 26.4584Z" fill="#FABC04"/>
<path d="M13.2445 33.6606C13.1785 33.5433 13.2445 33.4596 13.3106 33.3758L13.3768 33.4428L13.2445 33.6606Z" fill="#E1C025"/>
<path d="M47.5808 3.39964C43.3407 3.39964 39.8136 6.86267 39.8136 11.1249C39.8136 15.387 43.3407 18.812 47.5808 18.812C49.8697 18.812 51.5582 18.0509 52.909 16.6429C54.2974 15.2348 54.7101 13.294 54.7101 11.7337C54.7101 11.239 54.6726 10.7823 54.5975 10.4018H47.5808V12.4948H52.5713C52.4212 13.6745 52.046 14.5498 51.4456 15.1587C50.7327 15.8817 49.5695 16.719 47.5808 16.719C44.5039 16.719 42.1025 14.2073 42.1025 11.1249C42.1025 8.04238 44.5039 5.53074 47.5808 5.53074C49.2318 5.53074 50.47 6.17767 51.3331 7.05294L52.7964 5.56879C51.5582 4.35103 49.9072 3.39964 47.5808 3.39964ZM60.301 8.91764C57.6369 8.91764 55.423 11.0107 55.423 13.9409C55.423 16.8331 57.5993 18.9642 60.301 18.9642C63.0026 18.9642 65.1789 16.8331 65.1789 13.9409C65.1789 11.0487 62.9651 8.91764 60.301 8.91764ZM60.301 16.9853C58.8376 16.9853 57.5618 15.7295 57.5618 13.9409C57.5618 12.1523 58.8376 10.8965 60.301 10.8965C61.7644 10.8965 63.0401 12.1143 63.0401 13.9409C63.0401 15.7295 61.7644 16.9853 60.301 16.9853ZM70.8824 8.91764C68.1808 8.91764 66.0044 11.0107 66.0044 13.9409C66.0044 16.8331 68.1808 18.9642 70.8824 18.9642C73.5465 18.9642 75.7603 16.8331 75.7603 13.9409C75.7603 11.0487 73.584 8.91764 70.8824 8.91764ZM70.8824 16.9853C69.419 16.9853 68.1432 15.7295 68.1432 13.9409C68.1432 12.1523 69.419 10.8965 70.8824 10.8965C72.3458 10.8965 73.6215 12.1143 73.6215 13.9409C73.6215 15.7295 72.3833 16.9853 70.8824 16.9853ZM81.4263 8.91764C78.9873 8.91764 76.7735 11.0868 76.7735 13.9029C76.7735 16.6809 78.9873 18.85 81.4263 18.85C82.5895 18.85 83.49 18.3173 83.9778 17.7084H84.0529V18.4314C84.0529 20.3342 83.0773 21.3617 81.4638 21.3617C80.1505 21.3617 79.3625 20.4103 79.0248 19.6112L77.1487 20.4103C77.674 21.7422 79.0999 23.3406 81.4638 23.3406C83.9778 23.3406 86.0791 21.8184 86.0791 18.1651V9.26014H84.0529V10.0593H83.9778C83.49 9.45042 82.5895 8.91764 81.4263 8.91764ZM81.6139 16.9092C80.1505 16.9092 78.9122 15.6534 78.9122 13.9029C78.9122 12.1523 80.1505 10.8585 81.6139 10.8585C83.0773 10.8585 84.2029 12.1523 84.2029 13.9029C84.2029 15.6534 83.0773 16.9092 81.6139 16.9092ZM87.655 4.00853H89.7938V18.6978H87.655V4.00853ZM95.5348 8.91764C92.9833 8.91764 90.8445 10.9346 90.8445 13.9409C90.8445 16.757 92.9457 18.9642 95.7599 18.9642C98.0488 18.9642 99.3621 17.5562 99.8874 16.757L98.1989 15.6154C97.6361 16.4526 96.8481 16.9853 95.7599 16.9853C94.6343 16.9853 93.8463 16.4906 93.3585 15.4631L100 12.6851L99.7749 12.1143C99.3621 11.0107 98.0863 8.91764 95.5348 8.91764ZM92.9833 13.7887C92.9082 11.8479 94.4842 10.8585 95.5723 10.8585C96.4353 10.8585 97.1858 11.2771 97.4109 11.924L92.9833 13.7887Z" fill="white"/>
<path d="M53.927 36.3452L58.88 22.9878H60.7936L65.7466 36.3452H63.8705L62.5947 32.73H57.0789L55.8031 36.3452H53.927ZM57.6417 31.1316H62.0319L59.8931 25.1189H59.8181L57.6417 31.1316ZM67.4727 35.2416C66.6472 34.2902 66.2344 33.1486 66.2344 31.7786C66.2344 30.4467 66.6472 29.305 67.4727 28.3156C68.3357 27.3642 69.3113 26.9075 70.512 26.9075C71.1874 26.9075 71.7878 27.0597 72.3131 27.3261C72.876 27.6306 73.2887 27.9731 73.5889 28.4678H73.6639L73.5889 27.212V22.9878H75.2774V36.3452H73.6639V35.0894H73.5889C73.2887 35.5461 72.876 35.9266 72.3131 36.231C71.7503 36.5355 71.1499 36.6496 70.512 36.6496C69.3113 36.6496 68.2982 36.193 67.4727 35.2416ZM72.8009 34.1761C73.3637 33.5672 73.6264 32.768 73.6264 31.7786C73.6264 30.8272 73.3637 30.028 72.8009 29.4192C72.2756 28.8103 71.6002 28.5058 70.7747 28.5058C69.9492 28.5058 69.2738 28.8103 68.7485 29.4192C68.1856 30.028 67.923 30.8272 67.923 31.7786C67.923 32.73 68.1856 33.5291 68.7485 34.138C69.3113 34.7469 69.9867 35.0513 70.7747 35.0513C71.6002 35.0894 72.2756 34.7849 72.8009 34.1761ZM83.0821 35.8124C82.4067 36.3452 81.5437 36.6496 80.4931 36.6496C79.5925 36.6496 78.8045 36.4213 78.0916 35.9266C77.4162 35.4319 76.9284 34.823 76.6282 34.0238L78.1291 33.3769C78.3543 33.9097 78.6544 34.3663 79.1047 34.6708C79.5175 34.9752 80.0053 35.1274 80.4931 35.1274C81.0184 35.1274 81.4687 35.0133 81.8439 34.7849C82.2191 34.5566 82.3692 34.2522 82.3692 33.9477C82.3692 33.3769 81.9189 32.9202 81.0559 32.6539L79.5175 32.2733C77.7539 31.8166 76.8909 30.9794 76.8909 29.6856C76.8909 28.8483 77.2286 28.2014 77.904 27.6686C78.5794 27.1739 79.4424 26.9075 80.4555 26.9075C81.2176 26.9023 81.9678 27.0991 82.6319 27.4784C83.2697 27.8589 83.72 28.3917 83.9827 29.0386L82.4818 29.6856C82.2942 29.305 82.0315 29.0006 81.6563 28.7722C81.281 28.5439 80.8308 28.4297 80.343 28.4297C79.8927 28.4297 79.5175 28.5439 79.1422 28.7722C78.8045 29.0006 78.6169 29.2669 78.6169 29.6094C78.6169 30.1422 79.1047 30.5228 80.0803 30.713L81.4311 31.0555C83.2322 31.5122 84.0952 32.4255 84.0952 33.7955C84.1328 34.5947 83.7575 35.2797 83.0821 35.8124Z" fill="white"/>
</g>
</svg>
