<svg width="100" height="34" viewBox="0 0 100 34" fill="none" xmlns="http://www.w3.org/2000/svg">
<g id="Vector">
<path d="M100 27.1049H98.106V30.076H96.7186V27.1049H90.5143V25.8238L96.5706 17.0785H98.106V25.7692H100V27.1049ZM96.7186 25.7692V21.4739C96.7186 20.6306 96.7477 19.6782 96.806 18.6163H96.7365C96.4569 19.1831 96.1946 19.6515 95.9498 20.0224L91.9645 25.7692H96.7186Z" fill="white"/>
<path d="M32.9904 20.5771L34.9122 25.6983H31.1884L32.9904 20.5771ZM32.2693 18.8618L28.065 30.0762H29.6263L30.7072 27.0296H35.391L36.4719 30.0762H38.0332L33.829 18.8618H32.2677H32.2693ZM54.9644 30.086H56.413V18.87H54.9644V30.086ZM40.1965 23.4946C40.6769 22.7628 41.6451 22.1535 42.5988 22.1535C44.5206 22.1535 45.4815 23.4946 45.4815 25.4451V30.1988H44.0329V25.6885C44.0329 24.1039 43.1919 23.4938 42.1111 23.4938C40.9095 23.4938 40.0693 24.7133 40.0693 25.8102V30.0771H38.6207V22.2858H40.0693L40.19 23.5052L40.1965 23.4946ZM46.6831 27.7696C46.6831 26.0544 48.2444 25.0873 50.0471 25.0873C51.1279 25.0873 51.8498 25.3324 52.0889 25.575V25.3299C52.0889 24.1105 51.1279 23.5003 50.167 23.5003C49.326 23.5003 48.6057 23.8663 48.3643 24.5973L47.0428 23.988C47.2843 23.2561 48.2444 22.1584 50.1654 22.1584C51.9681 22.1584 53.5294 23.2553 53.5294 25.45V30.0828H52.208V28.9858H52.0872C51.7267 29.5952 50.8857 30.327 49.565 30.327C48.0037 30.327 46.6823 29.3518 46.6823 27.7672M52.0872 26.792C52.0872 26.792 51.4869 26.3043 50.2845 26.3043C48.8359 26.3043 48.2428 27.1579 48.2428 27.7745C48.2428 28.6281 49.0838 28.994 49.8041 28.994C50.8849 28.994 52.0864 28.0188 52.0864 26.7993" fill="white"/>
<path fill-rule="evenodd" clip-rule="evenodd" d="M58.4555 33.5L60.1456 29.4774L57.1437 22.4065H58.5923L60.8747 27.7703L63.1571 22.4065H64.6057L59.9218 33.5H58.4555ZM79.5974 24.9646C79.2368 23.9894 78.3958 23.3801 77.5556 23.3801C76.3541 23.3801 75.2732 24.477 75.2732 26.0624C75.2732 27.6478 76.3541 28.7447 77.5556 28.7447C78.3966 28.7447 79.2457 28.1354 79.5974 27.2745L80.7989 28.0063C80.1985 29.3475 78.9962 30.201 77.5556 30.201C75.5139 30.201 73.8318 28.3714 73.8318 26.0559C73.8318 23.6178 75.5219 21.9107 77.5556 21.9107C79.0042 21.9107 80.1985 22.7642 80.7989 24.1054L79.5974 24.9589V24.9646Z" fill="white"/>
<path d="M84.7612 30.33C86.683 30.33 87.6439 29.2331 87.6439 27.8919C87.6439 24.9662 83.4397 26.0623 83.4397 24.3569C83.4397 23.7476 83.9202 23.3816 84.7612 23.3816C85.6022 23.3816 86.4512 23.7476 86.8029 24.3569L87.6439 23.5033C87.1635 22.894 85.8412 22.0331 84.6421 22.0331C82.8393 22.0331 81.8792 23.1301 81.8792 24.4712C81.8792 27.2752 86.2034 26.3008 86.2034 27.7628C86.2034 28.4947 85.7229 28.9823 84.7547 28.9823C83.7866 28.9823 83.3061 28.373 82.8329 27.7628L81.7657 28.6246C82.4868 29.3564 83.5685 30.3398 84.7676 30.3398L84.7612 30.33ZM71.0676 30.0866H72.5163V22.2847H71.0676V30.0866Z" fill="white"/>
<path fill-rule="evenodd" clip-rule="evenodd" d="M71.6682 18.5131C72.2686 18.5131 72.6292 19.0007 72.6292 19.4883C72.6292 20.0976 72.1487 20.4635 71.6682 20.4635C71.1878 20.4635 70.7073 19.9759 70.7073 19.4883C70.7073 19.0007 71.1878 18.5131 71.6682 18.5131ZM69.6265 28.8755L69.8679 29.9725H68.4193C67.0978 29.9725 66.4974 28.9972 66.4974 27.5344V23.7405H65.0488V22.2703H66.4974V19.9686H67.9461V22.285H69.6361V23.7552H67.9461V27.7778C67.9461 28.8747 68.7871 28.8747 69.6361 28.8747L69.6265 28.8755Z" fill="white"/>
<path d="M35.3681 6.47148V8.30107H39.5724C39.4517 9.2763 39.0919 10.0163 38.6115 10.4958C38.0111 11.1051 37.0502 11.8369 35.3681 11.8369C32.8459 11.8369 30.8034 9.76474 30.8034 7.08325C30.8034 4.52346 32.8451 2.32959 35.3681 2.32959C36.8168 2.32959 37.7705 2.93891 38.4907 3.54904L39.6923 2.32959C38.6115 1.35435 37.29 0.5 35.3681 0.5C31.885 0.5 28.8815 3.42571 28.8815 6.95256C28.8815 10.4794 31.8834 13.4051 35.3681 13.4051C37.29 13.4051 38.7322 12.7958 39.8122 11.5755C41.0138 10.3561 41.3735 8.77153 41.3735 7.43038C41.3735 7.06446 41.3735 6.57684 41.2528 6.33344H35.3673L35.3681 6.47148ZM46.0574 5.00128C43.775 5.00128 41.9731 6.71651 41.9731 9.14643C41.9731 11.5764 43.7758 13.2916 46.0574 13.2916C46.5951 13.2965 47.1284 13.1926 47.6261 12.9861C48.1238 12.7795 48.576 12.4743 48.9562 12.0884C49.3364 11.7025 49.6371 11.2436 49.8406 10.7385C50.0442 10.2334 50.1465 9.69215 50.1417 9.14643C50.1417 6.70835 48.339 5.00128 46.0574 5.00128ZM46.0574 11.6989C44.8558 11.6989 43.775 10.6019 43.775 9.13908C43.775 7.67623 44.8558 6.58746 46.0574 6.58746C47.2589 6.58746 48.3406 7.5676 48.3406 9.14398C48.3406 10.7204 47.2597 11.7038 46.0582 11.7038L46.0574 11.6989ZM65.7506 5.85399C65.2702 5.36638 64.5491 4.87876 63.4682 4.87876C61.4265 4.87876 59.6246 6.70835 59.6246 9.02392C59.6246 11.3395 61.4273 13.1691 63.4682 13.1691C64.4292 13.1691 65.271 12.6815 65.6307 12.1938H65.7514V12.8032C65.7514 14.3877 64.9104 15.2412 63.589 15.2412C62.5081 15.2412 61.7862 14.3877 61.5472 13.771L59.9859 14.3804C60.4664 15.4773 61.676 16.8184 63.5898 16.8184C65.7522 16.8184 67.5534 15.599 67.5534 12.4299V4.87222H65.8633V5.84746L65.7506 5.85399ZM63.7089 11.7054C62.5073 11.7054 61.5464 10.6085 61.5464 9.14562C61.5464 7.68276 62.5073 6.58583 63.7089 6.58583C64.9104 6.58583 65.8713 7.68276 65.8713 9.14562C65.8713 10.6085 64.9104 11.7054 63.7089 11.7054ZM54.9391 5.00781C52.6567 5.00781 50.8547 6.72305 50.8547 9.15297C50.8547 11.5829 52.6575 13.2981 54.9391 13.2981C55.4768 13.303 56.01 13.1992 56.5078 12.9926C57.0055 12.786 57.4576 12.4809 57.8379 12.095C58.2181 11.7091 58.5188 11.2502 58.7223 10.745C58.9259 10.2399 59.0282 9.69868 59.0234 9.15297C59.1441 6.71488 57.2206 5.00781 54.9391 5.00781ZM54.9391 11.7054C53.7375 11.7054 52.6567 10.6085 52.6567 9.14562C52.6567 7.68276 53.7375 6.58583 54.9391 6.58583C56.1406 6.58583 57.2215 7.56106 57.2215 9.14562C57.2215 10.7302 56.1406 11.7054 54.9391 11.7054ZM68.8893 0.620068H70.692V13.2981H68.8893V0.620068ZM75.6158 11.7136C74.6548 11.7136 74.0545 11.226 73.574 10.4941L79.0997 8.17773L78.8583 7.69011C78.4977 6.71488 77.4096 5.00781 75.3751 5.00781C73.2127 5.00781 71.5314 6.72305 71.5314 9.15297C71.5266 9.69868 71.629 10.2399 71.8325 10.745C72.036 11.2502 72.3367 11.7091 72.7169 12.095C73.0972 12.4809 73.5493 12.786 74.0471 12.9926C74.5448 13.1992 75.078 13.303 75.6158 13.2981C77.5376 13.2981 78.6176 12.0787 79.0989 11.4685L77.6503 10.4933C77.1698 11.2251 76.5694 11.7128 75.6085 11.7128L75.6158 11.7136ZM75.495 6.59236C76.2161 6.59236 76.8165 6.95828 77.0563 7.5676L73.3326 9.15215C73.3326 7.32256 74.5341 6.59236 75.495 6.59236Z" fill="white"/>
<path d="M17.583 4.6043V26.0181C17.583 28.4141 19.2134 29.7493 20.9398 29.7493C22.5382 29.7493 24.2965 28.6137 24.2965 26.0181V4.76653C24.2965 2.56999 22.6981 1.19756 20.9398 1.19756C19.1815 1.19756 17.583 2.71113 17.583 4.6043Z" fill="#F9AB00"/>
<path d="M8.79136 15.4733V26.018C8.79136 28.414 10.4218 29.7491 12.1481 29.7491C13.7466 29.7491 15.5049 28.6136 15.5049 26.018V15.6355C15.5049 13.439 13.9064 12.0666 12.1481 12.0666C10.3898 12.0666 8.79136 13.5801 8.79136 15.4733Z" fill="#E37400"/>
<path d="M3.35675 29.7484C5.21063 29.7484 6.7135 28.2232 6.7135 26.3417C6.7135 24.4602 5.21063 22.935 3.35675 22.935C1.50287 22.935 0 24.4602 0 26.3417C0 28.2232 1.50287 29.7484 3.35675 29.7484Z" fill="#E37400"/>
</g>
</svg>
