<svg width="100" height="26" viewBox="0 0 100 26" fill="none" xmlns="http://www.w3.org/2000/svg">
<g id="Vector">
<path d="M77.5969 20.8252V18.5939H77.5635C77.2302 19.3377 76.6969 19.98 76.0302 20.4195C75.3636 20.859 74.5969 21.0957 73.8303 21.0957C72.9303 21.1295 72.0303 20.8252 71.3637 20.2167C70.7304 19.642 70.397 18.7968 70.4304 17.9516C70.4304 15.9908 71.697 14.8076 74.2303 14.4357L77.5969 13.9286C77.5969 11.5283 76.6969 10.3451 74.9303 10.3451C73.7303 10.3451 72.5303 10.8522 71.397 11.8326V10.6155C71.897 10.2436 72.4637 9.97318 73.0636 9.77033C73.697 9.56749 74.3636 9.43226 75.0303 9.43226C76.1636 9.43226 77.0302 9.77033 77.6635 10.4803C78.2968 11.1902 78.5968 12.2382 78.5968 13.5905V20.8252H77.5969ZM71.4304 17.9178C71.397 18.5601 71.6304 19.1348 72.097 19.5743C72.597 20.0138 73.2303 20.2167 73.897 20.1829C74.8969 20.2167 75.8969 19.7772 76.5302 18.9658C77.2302 18.1206 77.6302 17.005 77.5635 15.8894V14.7738L74.5303 15.2132C73.297 15.4161 72.4637 15.6865 72.0637 16.0584C71.6637 16.4979 71.4304 17.1064 71.4304 17.9178Z" fill="white"/>
<path d="M89.6966 20.8249V18.7964H89.6633C89.2966 19.5064 88.73 20.0811 88.0634 20.4868C87.3634 20.8925 86.5301 21.1291 85.6967 21.0953C84.3968 21.1291 83.1968 20.5882 82.3635 19.574C81.5302 18.5598 81.0969 17.1737 81.0969 15.4496C81.0635 14.3677 81.2969 13.3197 81.7302 12.3393C82.0968 11.4603 82.7302 10.7166 83.5301 10.1757C84.2968 9.66858 85.2301 9.39813 86.1634 9.39813C87.7967 9.39813 88.9967 10.0743 89.6966 11.4604H89.73V4.29328H90.7299V20.7911H89.6966V20.8249ZM89.6966 14.0297C89.73 13.0493 89.3633 12.0689 88.6967 11.3589C88.03 10.649 87.0967 10.2771 86.0967 10.3109C84.9968 10.2771 83.9301 10.7842 83.2301 11.697C82.4968 12.6098 82.0968 13.8268 82.0968 15.382C82.0968 16.8695 82.4302 18.0189 83.0635 18.8979C83.6968 19.743 84.6968 20.2501 85.7301 20.2163C86.7967 20.2501 87.83 19.8445 88.5967 19.1007C89.33 18.3232 89.73 17.2413 89.6633 16.1595L89.6966 14.0297Z" fill="white"/>
<path d="M93.6633 20.318V19.1009C94.0633 19.439 94.4966 19.6757 94.9632 19.8447C95.4299 20.0475 95.8965 20.149 96.3965 20.149C98.1298 20.149 98.9965 19.439 98.9965 18.0191C98.9965 17.5458 98.7965 17.1063 98.4631 16.8021C97.8965 16.3288 97.2632 15.9569 96.5632 15.6864C95.7632 15.3822 95.0299 14.9089 94.3966 14.3004C93.9299 13.7932 93.6966 13.1171 93.7299 12.4072C93.6966 11.562 94.0633 10.7506 94.7299 10.2097C95.4632 9.635 96.3632 9.33074 97.2632 9.36454C98.0965 9.33074 98.9298 9.53358 99.6631 9.93926V11.0887C98.9298 10.5816 98.0298 10.3111 97.1298 10.2773C96.4965 10.2435 95.8632 10.4464 95.3966 10.852C94.9632 11.2239 94.7299 11.7648 94.7299 12.3396C94.6966 12.6776 94.7632 13.0495 94.9299 13.3538C95.0966 13.6242 95.3299 13.8609 95.5965 14.0299C96.0299 14.3342 96.5299 14.5708 96.9965 14.7737C98.1631 15.3146 98.9631 15.7879 99.3965 16.2273C99.8298 16.7006 100.03 17.343 99.9964 17.9853C100.03 18.8305 99.6631 19.6757 98.9965 20.2166C98.2298 20.8251 97.2632 21.0955 96.2965 21.0617C95.3632 21.1294 94.4299 20.8589 93.6633 20.318Z" fill="white"/>
<path fill-rule="evenodd" clip-rule="evenodd" d="M8.57229 8.19927C8.09978 8.25495 7.73944 8.64414 7.70594 9.13495C7.69149 9.34643 7.69602 9.36078 8.16865 10.5943C9.24394 13.4008 9.50445 14.0762 9.54826 14.1713C9.6544 14.4015 9.80366 14.6181 9.99014 14.8125C10.1332 14.9616 10.2276 15.0418 10.3872 15.15C10.6678 15.34 10.807 15.3925 11.8986 15.7204C12.962 16.0397 13.5429 16.252 14.0436 16.504C14.6921 16.8304 15.1446 17.2018 15.4308 17.6424C15.6362 17.9586 15.8181 18.5256 15.8972 19.0963C15.9281 19.3194 15.9283 19.8125 15.8976 20.0142C15.8308 20.4519 15.6975 20.8187 15.4934 21.1256C15.3849 21.2889 15.4227 21.2616 15.5804 21.0626C16.0269 20.4997 16.4816 19.5375 16.7137 18.6651C16.9945 17.6091 17.0327 16.4752 16.8236 15.402C16.4164 13.3121 15.1156 11.5085 13.2835 10.4937C13.1684 10.4299 12.7299 10.1969 12.1355 9.8834C12.0453 9.83582 11.9223 9.77069 11.8622 9.73867C11.802 9.70663 11.6791 9.6415 11.5889 9.59394C11.4987 9.54638 11.239 9.40917 11.0118 9.28905C10.7847 9.1689 10.5305 9.03448 10.447 8.99032C10.1924 8.8557 10.0216 8.76526 9.89424 8.69764C9.30522 8.3849 9.0559 8.25848 8.98483 8.23654C8.91028 8.21354 8.72089 8.18401 8.67338 8.18797C8.66336 8.18881 8.61787 8.19389 8.57229 8.19927Z" fill="url(#paint0_radial_99_238)"/>
<path d="M9.85621 18.6758C9.82357 18.6954 9.77775 18.7238 9.75437 18.7389C9.73096 18.754 9.67904 18.7867 9.63896 18.8116C9.49183 18.9032 9.10054 19.1478 8.7643 19.3583C8.54332 19.4966 8.51053 19.5173 8.22981 19.694C8.12957 19.757 8.02298 19.8235 7.99291 19.8417C7.96285 19.8599 7.83439 19.9401 7.70744 20.02C7.58049 20.0998 7.35911 20.2385 7.21546 20.328C7.07181 20.4175 6.81488 20.5783 6.64452 20.6852C6.47414 20.7921 6.25 20.9323 6.14646 20.9967C6.04289 21.0611 5.94724 21.1233 5.93387 21.1349C5.91401 21.1522 4.99294 21.7309 4.53078 22.0165C4.17977 22.2333 3.77371 22.3784 3.35803 22.4354C3.16452 22.4619 2.79831 22.462 2.60534 22.4355C2.0821 22.3639 1.60007 22.1659 1.18725 21.8533C1.02532 21.7307 0.720458 21.4217 0.603912 21.2621C0.329263 20.8861 0.151587 20.4827 0.0595675 20.0262C0.038394 19.9212 0.0183625 19.8325 0.0150705 19.8291C0.00646977 19.8203 0.022006 19.979 0.050031 20.1864C0.0791738 20.4022 0.141275 20.7142 0.208161 20.9811C0.725756 23.0465 2.1986 24.7264 4.19246 25.5257C4.7666 25.7557 5.34598 25.9007 5.97638 25.9718C6.21325 25.9987 6.88375 26.0094 7.13097 25.9903C8.26471 25.9033 9.25188 25.5648 10.2646 24.9157C10.3548 24.8579 10.5242 24.7495 10.6411 24.6748C10.7581 24.6002 10.9057 24.5053 10.9691 24.4639C11.0326 24.4226 11.1091 24.3738 11.1392 24.3554C11.1693 24.3371 11.2294 24.2988 11.2728 24.2703C11.3163 24.2418 11.5021 24.1225 11.6859 24.0053L13.5506 22.8107C14.3684 22.2895 14.6123 22.1065 14.9923 21.729C15.1507 21.5716 15.3896 21.303 15.4014 21.2689C15.4038 21.262 15.4463 21.1955 15.4957 21.1213C15.6968 20.8195 15.8311 20.4501 15.8976 20.0142C15.9283 19.8125 15.9281 19.3194 15.8972 19.0963C15.8374 18.665 15.7013 18.1755 15.5548 17.864C15.3146 17.3531 14.8028 16.889 14.0675 16.5152C13.8645 16.412 13.6549 16.3175 13.6315 16.3188C13.6204 16.3193 12.9362 16.7435 12.111 17.2614C11.2859 17.7792 10.5698 18.2287 10.5197 18.2603C10.4696 18.2918 10.3835 18.3452 10.3283 18.3788L9.85621 18.6758Z" fill="url(#paint1_radial_99_238)"/>
<path d="M0.00638978 19.7986L0.0524187 20.0081C0.196346 20.6629 0.445717 21.1351 0.879236 21.5736C1.08315 21.7799 1.23908 21.9042 1.46005 22.0369C1.92763 22.3175 2.43087 22.456 2.98209 22.4557C3.55941 22.4554 4.05883 22.3094 4.57346 21.9903C4.66031 21.9365 5.0006 21.724 5.32966 21.5181L5.92793 21.1438L5.92776 8.66991C5.92763 6.17226 5.92313 4.68894 5.91534 4.57258C5.86627 3.84129 5.56473 3.16902 5.05768 2.66051C4.90207 2.50445 4.76911 2.40022 4.37301 2.12377C4.17591 1.98619 3.81512 1.73417 3.57125 1.56373C3.32739 1.39327 2.92561 1.11247 2.6784 0.939703C2.43119 0.766953 2.07859 0.520478 1.89486 0.391998C1.51209 0.124328 1.48213 0.105711 1.36643 0.0637221C1.21593 0.00911655 1.05644 -0.0109413 0.904809 0.00566707C0.462869 0.0540753 0.109088 0.377705 0.0171289 0.817692C0.00281872 0.886146 0.000182219 1.79715 0 6.7417L0.00638978 19.7986Z" fill="url(#paint2_linear_99_238)"/>
<path d="M25.6348 20.6025V5.32867H30.4171C31.8732 5.32867 33.0318 5.65205 33.8819 6.29878C34.7321 6.94554 35.1572 7.78628 35.1572 8.82109C35.1572 9.68339 34.9129 10.4379 34.4344 11.0847C33.923 11.7409 33.22 12.2163 32.4259 12.4428V12.4859C33.4674 12.6045 34.2857 12.9925 34.9021 13.6609C35.5292 14.3076 35.8374 15.1699 35.8374 16.2155C35.8374 17.5197 35.3272 18.5868 34.3175 19.3845C33.3079 20.1821 32.0221 20.6025 30.4705 20.6025H25.6348ZM28.1322 7.36591V11.7098H29.7477C30.6192 11.7098 31.2994 11.4943 31.7883 11.0955C32.2877 10.6643 32.5321 10.0822 32.5321 9.32769C32.5321 8.01264 31.6714 7.36591 29.9497 7.36591H28.1322ZM28.1322 13.7471V18.5761H30.2579C31.193 18.5761 31.9157 18.3605 32.4151 17.9293C32.9254 17.4874 33.1805 16.8838 33.1805 16.1185C33.1805 14.5339 32.107 13.7471 29.939 13.7471H28.1322ZM38.8876 7.40902C38.4943 7.40902 38.1436 7.26889 37.8672 7.01021C37.5803 6.7515 37.4421 6.41736 37.4421 6.00775C37.4421 5.59817 37.5803 5.264 37.8672 4.99452C38.1543 4.72505 38.4943 4.59571 38.8981 4.59571C39.3019 4.59571 39.6526 4.72505 39.9398 4.99452C40.2267 5.264 40.3649 5.60893 40.3649 6.00775C40.3649 6.3958 40.2267 6.71918 39.9398 6.99942C39.6526 7.26889 39.3019 7.40902 38.8876 7.40902ZM40.099 20.6025H37.6654V9.69418H40.1098L40.099 20.6025ZM52.1617 20.6025H49.7278V14.4585C49.7278 12.4105 49.0158 11.3973 47.6024 11.3973C46.8583 11.3973 46.242 11.6883 45.7531 12.2596C45.2611 12.8521 45.0035 13.6089 45.0303 14.383V20.6025H42.5859V9.69418H45.0303V11.505H45.0729C45.4058 10.8646 45.9085 10.3314 46.5246 9.96569C47.1407 9.59996 47.8452 9.4163 48.5587 9.43547C49.7278 9.43547 50.6205 9.82352 51.2369 10.5996C51.8533 11.3649 52.1617 12.4751 52.1617 13.9411V20.6025ZM64.2241 19.7294C64.2241 23.7284 62.2474 25.7334 58.2726 25.7334C57.0144 25.7626 55.7646 25.5201 54.606 25.0219V22.7583C55.7749 23.4482 56.9015 23.7823 57.9537 23.7823C60.5044 23.7823 61.7902 22.5104 61.7902 19.9558V18.7701H61.7477C61.3944 19.427 60.8667 19.9702 60.2241 20.338C59.5817 20.7058 58.8502 20.8833 58.1131 20.8505C57.5116 20.87 56.9137 20.7501 56.3647 20.4998C55.816 20.2495 55.3308 19.8754 54.946 19.4061C54.0991 18.2885 53.6733 16.901 53.7451 15.4933C53.7451 13.6393 54.1702 12.1734 55.0417 11.0739C55.9131 9.97442 57.0822 9.43547 58.5913 9.43547C60.0048 9.43547 61.057 10.0283 61.7477 11.2032H61.7902V9.69418H64.2346L64.2241 19.7294ZM61.8115 15.6118V14.189C61.8115 13.4237 61.5564 12.7662 61.057 12.2272C60.8216 11.9623 60.5327 11.7519 60.2098 11.6106C59.8871 11.4692 59.5381 11.4001 59.1866 11.408C58.2618 11.408 57.5391 11.7637 57.0184 12.4536C56.4488 13.306 56.1725 14.3252 56.232 15.3532C56.232 16.4311 56.4871 17.2826 56.9758 17.9293C57.486 18.5761 58.1449 18.8887 58.9738 18.8887C59.8243 18.8887 60.5044 18.5761 61.0252 17.9724C61.5564 17.3473 61.8115 16.5712 61.8115 15.6011V15.6118Z" fill="white"/>
</g>
<defs>
<radialGradient id="paint0_radial_99_238" cx="0" cy="0" r="1" gradientUnits="userSpaceOnUse" gradientTransform="translate(93.7173 20.2327) rotate(-167.817) scale(95.884 28.7575)">
<stop stop-color="#00CACC"/>
<stop offset="1" stop-color="#048FCE"/>
</radialGradient>
<radialGradient id="paint1_radial_99_238" cx="0" cy="0" r="1" gradientUnits="userSpaceOnUse" gradientTransform="translate(13.8927 18.5765) rotate(-10.5184) scale(84.1941 69.5623)">
<stop stop-color="#00BBEC"/>
<stop offset="1" stop-color="#2756A9"/>
</radialGradient>
<linearGradient id="paint2_linear_99_238" x1="50.0002" y1="-9.14064e-09" x2="50.0002" y2="26" gradientUnits="userSpaceOnUse">
<stop stop-color="#00BBEC"/>
<stop offset="1" stop-color="#2756A9"/>
</linearGradient>
</defs>
</svg>
