<svg width="100" height="22" viewBox="0 0 100 22" fill="none" xmlns="http://www.w3.org/2000/svg">
<g id="Vector">
<path d="M0 8.08408H9.16972H14.7392V2.58768L0 8.08408Z" fill="#FF9D28"/>
<path d="M14.7392 2.58768L14.7393 21.9856L21.7048 0L14.7392 2.58768Z" fill="#68C5ED"/>
<path d="M14.7392 8.08408H9.16972L14.7389 21.9863L14.7392 8.08408Z" fill="#044D80"/>
<path d="M0 8.08408L10.5951 11.6513L9.16972 8.08408H0Z" fill="#E54747"/>
<path d="M33.7546 16.8837C33.6811 16.9568 33.5342 17.0591 33.3578 17.1906C33.1668 17.3076 32.917 17.4245 32.6231 17.5561C32.3145 17.673 31.9471 17.7754 31.5063 17.8631C31.0654 17.9508 30.5658 17.9946 30.0074 17.9946C28.9199 17.9946 27.9795 17.8192 27.1859 17.4684C26.3924 17.1176 25.7311 16.6352 25.2168 16.0066C24.7024 15.378 24.3204 14.6471 24.0706 13.7993C23.8354 12.9514 23.7032 12.0158 23.7032 10.9926C23.7032 9.96931 23.8354 9.03376 24.1 8.17129C24.3645 7.30882 24.7612 6.5633 25.2756 5.93472C25.8046 5.30614 26.4512 4.80913 27.2447 4.45829C28.0382 4.10746 28.964 3.93204 30.0221 3.93204C30.5511 3.93204 31.0213 3.9759 31.4475 4.07822C31.8736 4.16593 32.241 4.28288 32.5643 4.41444C32.8876 4.546 33.1374 4.67757 33.3578 4.80913C33.5636 4.95531 33.7252 5.07225 33.8281 5.15996C33.9457 5.26229 34.0485 5.39385 34.1367 5.54003C34.2249 5.68622 34.2689 5.84701 34.2689 6.02243C34.2689 6.28555 34.1661 6.5633 33.9603 6.82642C33.7546 7.08955 33.5342 7.33806 33.2991 7.57195C33.1374 7.41115 32.9611 7.25035 32.7553 7.07493C32.5496 6.91413 32.3292 6.75334 32.0794 6.63639C31.8296 6.50483 31.5504 6.4025 31.2271 6.31479C30.9038 6.22708 30.5511 6.18323 30.169 6.18323C29.4783 6.18323 28.9052 6.31479 28.4497 6.59253C27.9795 6.87028 27.6121 7.22111 27.3329 7.67427C27.0537 8.11281 26.8479 8.62445 26.7304 9.19456C26.6128 9.76466 26.554 10.3494 26.554 10.9341C26.554 11.5627 26.6128 12.162 26.7304 12.7467C26.8479 13.3169 27.0537 13.8285 27.3623 14.267C27.6562 14.7056 28.0382 15.071 28.5232 15.3342C28.9934 15.5973 29.5959 15.7288 30.316 15.7288C30.698 15.7288 31.036 15.685 31.3593 15.5827C31.6826 15.495 31.9618 15.378 32.1969 15.2464C32.4321 15.1149 32.6525 14.9687 32.8288 14.8225C33.0052 14.6763 33.1668 14.5448 33.2844 14.4424C33.3578 14.5302 33.4607 14.6471 33.5636 14.7787C33.6664 14.9102 33.7693 15.0564 33.8722 15.2026C33.9603 15.3488 34.0485 15.495 34.1073 15.6411C34.1808 15.7873 34.2102 15.9189 34.2102 16.0358C34.2102 16.2112 34.1808 16.3574 34.1073 16.4744C34.0191 16.5913 33.9016 16.7375 33.7546 16.8837ZM44.1587 15.3342C44.1587 16.4013 44.3204 17.176 44.629 17.6584C44.3792 17.7461 44.1587 17.8192 43.953 17.8631C43.7473 17.9069 43.5268 17.9216 43.2917 17.9216C42.8068 17.9216 42.4394 17.8338 42.1896 17.6438C41.9398 17.4538 41.7781 17.1906 41.7193 16.8398C41.4254 17.1468 41.0287 17.4099 40.5437 17.6292C40.0588 17.8485 39.4563 17.9508 38.7509 17.9508C38.3836 17.9508 38.0162 17.9069 37.6488 17.8046C37.2814 17.7023 36.9581 17.5415 36.6495 17.3076C36.3556 17.0737 36.1058 16.7667 35.9148 16.3867C35.7238 16.0066 35.6356 15.5388 35.6356 14.9833C35.6356 14.2963 35.7972 13.7408 36.1352 13.3169C36.4732 12.8929 36.8847 12.5421 37.3843 12.2936C37.8839 12.0451 38.4276 11.8697 39.0154 11.782C39.6033 11.6942 40.1323 11.6212 40.6172 11.6065C40.7789 11.5919 40.9405 11.5919 41.0875 11.5919H41.5283V11.2265C41.5283 10.7148 41.396 10.3348 41.1168 10.1301C40.8376 9.91084 40.3821 9.80851 39.7649 9.80851C39.1771 9.80851 38.6628 9.89622 38.2072 10.0863C37.7517 10.2763 37.3108 10.4956 36.87 10.7295C36.6789 10.4956 36.532 10.2471 36.4144 9.96931C36.2969 9.69157 36.2381 9.48691 36.2381 9.35535C36.2381 9.16532 36.341 8.9899 36.5467 8.81449C36.7524 8.63907 37.0463 8.47827 37.4137 8.34671C37.7811 8.20052 38.1925 8.0982 38.6775 8.01049C39.1477 7.92278 39.6473 7.87893 40.1764 7.87893C40.9111 7.87893 41.5283 7.95202 42.0279 8.0982C42.5423 8.24438 42.9537 8.47827 43.2623 8.78525C43.5856 9.09223 43.806 9.48691 43.9383 9.94008C44.0706 10.4079 44.144 10.9487 44.144 11.5627L44.1587 15.3342ZM41.5577 12.9953H41.2785C41.1903 12.9953 41.0875 12.9953 40.9993 13.0099C40.6613 13.0391 40.3233 13.083 40 13.1268C39.662 13.1853 39.3681 13.273 39.1183 13.4046C38.8538 13.5361 38.6481 13.7115 38.4864 13.9308C38.3248 14.1501 38.2366 14.4278 38.2366 14.764C38.2366 15.1441 38.3395 15.4657 38.5599 15.7288C38.7803 15.992 39.1477 16.1235 39.662 16.1235C39.9118 16.1235 40.1617 16.0943 40.3968 16.0212C40.6319 15.9481 40.8229 15.8604 40.9993 15.7581C41.1756 15.6558 41.3079 15.5388 41.4107 15.4072C41.5136 15.2757 41.5577 15.1587 41.5577 15.0564V12.9953ZM49.2138 9.01914C49.4343 8.77063 49.7722 8.50751 50.2278 8.24438C50.6833 7.98126 51.2711 7.84969 51.9618 7.84969C52.4614 7.84969 52.9317 7.9374 53.3872 8.0982C53.8428 8.27362 54.2395 8.53674 54.5922 8.91681C54.9449 9.29688 55.2241 9.7939 55.4298 10.4079C55.6356 11.0218 55.7384 11.782 55.7384 12.6883C55.7384 13.7408 55.6209 14.6032 55.3711 15.2903C55.1212 15.9773 54.8127 16.5036 54.4306 16.9129C54.0485 17.3076 53.6224 17.5853 53.1521 17.7461C52.6819 17.9069 52.2116 17.9946 51.7414 17.9946C51.3446 17.9946 51.0066 17.9508 50.7127 17.8631C50.4188 17.7754 50.169 17.673 49.978 17.5707C49.7722 17.4684 49.6253 17.3514 49.5077 17.2491C49.4049 17.1468 49.3314 17.0737 49.302 17.0299V22H46.5393V8.14205C46.6128 8.12743 46.6863 8.11282 46.7891 8.0982C46.8773 8.08358 46.9655 8.06896 47.083 8.06896C47.1859 8.06896 47.3182 8.05434 47.4651 8.05434C47.9207 8.05434 48.3027 8.12743 48.6113 8.27361C48.9346 8.4198 49.1404 8.6683 49.2138 9.01914ZM52.8729 12.7467C52.8729 12.3374 52.8435 11.972 52.77 11.6212C52.6966 11.2703 52.5937 10.9633 52.432 10.7148C52.2704 10.4663 52.0647 10.2617 51.8002 10.1155C51.5357 9.96931 51.2124 9.89622 50.845 9.89622C50.2866 9.89622 49.8898 9.99855 49.6694 10.2178C49.449 10.4371 49.3314 10.671 49.3314 10.9195V15.2026C49.4343 15.3049 49.6253 15.4365 49.9045 15.5827C50.1837 15.7288 50.507 15.8019 50.8597 15.8019C51.5503 15.8019 52.05 15.5388 52.3733 14.9979C52.7113 14.4717 52.8729 13.7262 52.8729 12.7467ZM57.8839 16.2259C57.7958 15.9627 57.7223 15.6704 57.7076 15.378C57.6782 15.0856 57.6635 14.7787 57.6635 14.4863V5.11611C57.7517 5.10149 57.8545 5.08687 57.9721 5.07225C58.0603 5.05764 58.1631 5.04302 58.2807 5.04302C58.3836 5.04302 58.5011 5.0284 58.604 5.0284C58.8244 5.0284 59.0301 5.04302 59.2506 5.08687C59.471 5.13073 59.662 5.20381 59.8384 5.33538C60.0147 5.45232 60.1617 5.62774 60.2645 5.8324C60.3674 6.03705 60.4262 6.31479 60.4262 6.65101V8.08358H63.277V10.1301H60.4262V14.4424C60.4262 15.378 60.8082 15.8458 61.5871 15.8458C61.7781 15.8458 61.9545 15.8166 62.1308 15.7581C62.3071 15.6996 62.4541 15.6265 62.5863 15.5534C62.7186 15.4803 62.8362 15.4072 62.939 15.3195C63.0419 15.2318 63.1154 15.1734 63.1595 15.1441C63.3652 15.4365 63.5121 15.6996 63.6297 15.9189C63.7326 16.1381 63.7913 16.3428 63.7913 16.5328C63.7913 16.7083 63.7179 16.8837 63.5709 17.0591C63.424 17.2345 63.2329 17.3807 62.9684 17.5269C62.7039 17.673 62.3953 17.79 62.0279 17.8777C61.6606 17.9654 61.2638 18.0093 60.8229 18.0093C59.9853 18.0093 59.324 17.8485 58.8685 17.5269C58.4129 17.176 58.075 16.7521 57.8839 16.2259ZM70.2719 15.9627C70.6099 15.9627 70.9038 15.9189 71.1683 15.8458C71.4328 15.7727 71.6532 15.685 71.8589 15.568C72.0647 15.4657 72.241 15.3488 72.388 15.2172C72.5349 15.0856 72.6672 14.9687 72.7994 14.8664C72.9611 15.071 73.1374 15.3342 73.3138 15.6411C73.4901 15.9627 73.5783 16.2112 73.5783 16.4159C73.5783 16.7083 73.4019 16.986 73.0639 17.2199C72.7847 17.4392 72.3733 17.6146 71.8589 17.7754C71.3446 17.9362 70.7274 18.0093 70.0221 18.0093C69.3902 18.0093 68.7583 17.9216 68.1411 17.7608C67.5239 17.6 66.9802 17.3222 66.4952 16.9129C66.0103 16.5036 65.6282 15.9627 65.3343 15.2903C65.0404 14.6032 64.8935 13.7554 64.8935 12.7175C64.8935 11.8697 65.0257 11.1388 65.2902 10.5248C65.5547 9.91084 65.9074 9.39921 66.3483 9.00452C66.7891 8.59521 67.2888 8.30285 67.8472 8.11281C68.4056 7.92278 68.964 7.83507 69.5518 7.83507C70.3159 7.83507 70.9478 7.95202 71.4769 8.1859C72.0059 8.41979 72.4321 8.74139 72.77 9.13608C73.108 9.53077 73.3431 9.98393 73.4901 10.4956C73.637 11.0072 73.7105 11.5481 73.7105 12.1182V12.3959C73.7105 12.4982 73.7105 12.6152 73.6958 12.7321C73.6958 12.8491 73.6811 12.966 73.6811 13.083C73.6811 13.1999 73.6664 13.2876 73.6517 13.3607H67.6562C67.7149 14.1062 67.9353 14.7202 68.3468 15.2026C68.7436 15.7142 69.3902 15.9627 70.2719 15.9627ZM71.1977 11.8697C71.1977 11.2265 71.0654 10.7002 70.8156 10.2909C70.5658 9.88161 70.1102 9.69157 69.4636 9.69157C68.9052 9.69157 68.4644 9.88161 68.1264 10.2617C67.7884 10.6417 67.6268 11.1826 67.6268 11.8697H71.1977ZM78.5011 9.06299C78.5893 8.94605 78.6922 8.81449 78.8244 8.6683C78.9567 8.52212 79.1183 8.39056 79.324 8.27361C79.5151 8.15667 79.7355 8.05434 79.9706 7.96663C80.2057 7.89354 80.4556 7.84969 80.7348 7.84969C80.8964 7.84969 81.0728 7.86431 81.2491 7.89354C81.4254 7.92278 81.6018 7.96663 81.7634 8.03972C81.9251 8.11281 82.0426 8.21514 82.1455 8.34671C82.2337 8.47827 82.2924 8.62445 82.2924 8.81449C82.2924 9.10685 82.219 9.44306 82.072 9.82313C81.9251 10.2032 81.7781 10.5248 81.6312 10.8025C81.396 10.6125 81.1756 10.4663 80.9405 10.364C80.7054 10.2617 80.4409 10.2178 80.1323 10.2178C79.7061 10.2178 79.3534 10.3348 79.0742 10.5833C78.795 10.8318 78.6481 11.1095 78.6481 11.4604V17.9946H75.8854V8.14205C75.9589 8.12743 76.0323 8.11282 76.1352 8.0982C76.2234 8.08358 76.3115 8.06896 76.4144 8.06896C76.5173 8.06896 76.6495 8.05434 76.7965 8.05434C77.2226 8.05434 77.6047 8.14205 77.928 8.30285C78.2219 8.46365 78.4129 8.71216 78.5011 9.06299ZM86.3483 9.06299C86.4364 8.94605 86.5393 8.81449 86.6716 8.6683C86.8038 8.52212 86.9655 8.39056 87.1712 8.27361C87.3622 8.15667 87.5827 8.05434 87.8178 7.96663C88.0529 7.89354 88.3027 7.84969 88.5819 7.84969C88.7436 7.84969 88.9199 7.86431 89.0963 7.89354C89.2726 7.92278 89.4489 7.96663 89.6106 8.03972C89.7722 8.11281 89.8898 8.21514 89.9927 8.34671C90.0808 8.47827 90.1396 8.62445 90.1396 8.81449C90.1396 9.10685 90.0661 9.44306 89.9192 9.82313C89.7722 10.2032 89.6253 10.5248 89.4783 10.8025C89.2432 10.6125 89.0228 10.4663 88.7877 10.364C88.5525 10.2617 88.288 10.2178 87.9794 10.2178C87.5533 10.2178 87.2006 10.3348 86.9214 10.5833C86.6422 10.8318 86.4952 11.1095 86.4952 11.4604V17.9946H83.7326V8.14205C83.806 8.12743 83.8795 8.11282 83.9824 8.0982C84.0705 8.08358 84.1587 8.06896 84.2616 8.06896C84.3644 8.06896 84.4967 8.05434 84.6436 8.05434C85.0698 8.05434 85.4519 8.14205 85.7752 8.30285C86.0691 8.46365 86.2748 8.71216 86.3483 9.06299ZM99.5298 15.3342C99.5298 16.4013 99.6914 17.176 100 17.6584C99.7502 17.7461 99.5298 17.8192 99.324 17.8631C99.1183 17.9069 98.8979 17.9216 98.6628 17.9216C98.1778 17.9216 97.8104 17.8338 97.5606 17.6438C97.3108 17.4538 97.1492 17.1906 97.0904 16.8398C96.7965 17.1468 96.3997 17.4099 95.9148 17.6292C95.4298 17.8485 94.8273 17.9508 94.122 17.9508C93.7546 17.9508 93.3872 17.9069 93.0198 17.8046C92.6525 17.7023 92.3292 17.5415 92.0206 17.3076C91.7267 17.0737 91.4769 16.7667 91.2858 16.3867C91.0948 16.0066 91.0066 15.5388 91.0066 14.9833C91.0066 14.2963 91.1683 13.7408 91.5062 13.3169C91.8442 12.8929 92.2557 12.5421 92.7553 12.2936C93.255 12.0451 93.7987 11.8697 94.3865 11.782C94.9743 11.6942 95.5033 11.6212 95.9882 11.6065C96.1499 11.5919 96.3115 11.5919 96.4585 11.5919H96.8993V11.2265C96.8993 10.7148 96.7671 10.3348 96.4879 10.1301C96.2087 9.91084 95.7531 9.80851 95.1359 9.80851C94.5481 9.80851 94.0338 9.89622 93.5783 10.0863C93.1227 10.2763 92.6819 10.4956 92.241 10.7295C92.05 10.4956 91.903 10.2471 91.7855 9.96931C91.6679 9.69157 91.6091 9.48691 91.6091 9.35535C91.6091 9.16532 91.712 8.9899 91.9177 8.81449C92.1234 8.63907 92.4174 8.47827 92.7847 8.34671C93.1521 8.20052 93.5636 8.0982 94.0485 8.01049C94.5187 7.92278 95.0184 7.87893 95.5474 7.87893C96.2822 7.87893 96.8993 7.95202 97.399 8.0982C97.9133 8.24438 98.3248 8.47827 98.6334 8.78525C98.9566 9.09223 99.1771 9.48691 99.3093 9.94008C99.4416 10.4079 99.5151 10.9487 99.5151 11.5627L99.5298 15.3342ZM96.9287 12.9953H96.6495C96.5614 12.9953 96.4585 12.9953 96.3703 13.0099C96.0323 13.0391 95.6943 13.083 95.371 13.1268C95.0331 13.1853 94.7392 13.273 94.4893 13.4046C94.2248 13.5361 94.0191 13.7115 93.8575 13.9308C93.6958 14.1501 93.6076 14.4278 93.6076 14.764C93.6076 15.1441 93.7105 15.4657 93.9309 15.7288C94.1514 15.992 94.5187 16.1235 95.0331 16.1235C95.2829 16.1235 95.5327 16.0943 95.7678 16.0212C96.0029 15.9481 96.194 15.8604 96.3703 15.7581C96.5467 15.6558 96.6789 15.5388 96.7818 15.4072C96.8846 15.2757 96.9287 15.1587 96.9287 15.0564V12.9953Z" fill="white"/>
</g>
</svg>
