<svg width="100" height="26" viewBox="0 0 100 26" fill="none" xmlns="http://www.w3.org/2000/svg">
<g id="Vector">
<path d="M26.1572 19.7168V0.0543359H29.1712V7.80017C30.14 6.39184 31.5394 5.6335 33.4769 5.6335C35.0916 5.6335 36.3833 6.121 37.2445 7.096C38.1594 8.071 38.59 9.42517 38.59 11.1585V19.7168H35.576V11.5918C35.576 9.371 34.6072 8.2335 32.6158 8.2335C31.647 8.2335 30.7859 8.5585 30.1938 9.15434C29.548 9.75017 29.225 10.6168 29.225 11.7002V19.7168H26.1572Z" fill="white"/>
<path d="M53.0138 18.0373C51.6683 19.3915 49.946 20.0415 47.9007 20.0415C45.8555 20.0415 44.1332 19.3373 42.7877 17.9832C41.4421 16.629 40.7424 14.8957 40.7424 12.7832C40.7424 10.6707 41.4421 8.93733 42.7877 7.63733C44.1332 6.28316 45.8555 5.63316 47.9007 5.63316C49.946 5.63316 51.6683 6.28316 53.0138 7.63733C54.3593 8.9915 55.059 10.7248 55.059 12.7832C55.0052 14.9498 54.3593 16.629 53.0138 18.0373ZM44.9944 16.304C45.694 17.1707 46.6628 17.604 47.9007 17.604C49.0848 17.604 50.0536 17.1707 50.8071 16.304C51.5068 15.4373 51.8835 14.2998 51.8835 12.8373C51.8835 11.429 51.5068 10.2373 50.8071 9.42483C50.0536 8.55816 49.0848 8.12483 47.9007 8.12483C46.7167 8.12483 45.7479 8.55816 44.9944 9.37066C44.2947 10.2373 43.9179 11.3748 43.9179 12.8373C43.9179 14.2998 44.2947 15.4373 44.9944 16.304Z" fill="white"/>
<path d="M62.0568 20.0425C59.258 20.0425 57.8587 18.5258 57.8587 15.4925V8.55918H55.7596V5.95918H57.9663L58.666 1.89668H60.9265V5.95918H66.3625V8.55918H60.9265V15.4383C60.9265 16.6842 61.4109 17.3342 62.3259 17.3342C63.187 17.3342 63.9405 16.5217 64.6402 14.9508L67.0083 16.1425C65.8243 18.7425 64.2096 20.0425 62.0568 20.0425Z" fill="white"/>
<path d="M67.9771 26C66.6315 26 65.5013 25.6208 64.6401 24.8625L65.7704 22.4792C66.3086 23.1292 66.9006 23.4542 67.5465 23.4542C68.4077 23.4542 68.8382 22.9125 68.8382 21.8292V5.95833H71.8522V21.8292C71.8522 23.2917 71.4755 24.375 70.7758 25.025C70.0223 25.675 69.1073 26 67.9771 26ZM70.3452 3.62917C69.8608 3.62917 69.3764 3.46667 68.9997 3.14167C68.8382 2.97917 68.6768 2.7625 68.5691 2.54583C68.4615 2.32917 68.4077 2.05833 68.4615 1.84167C68.4615 1.57083 68.5153 1.35417 68.5691 1.1375C68.6768 0.920833 68.7844 0.704167 68.9997 0.541667C69.3764 0.216667 69.8608 0 70.3452 0C70.8296 0 71.314 0.1625 71.6908 0.541667C71.8522 0.704167 72.0137 0.920833 72.1214 1.1375C72.229 1.35417 72.2828 1.625 72.229 1.84167C72.229 2.05833 72.1752 2.32917 72.0675 2.54583C71.9599 2.7625 71.8522 2.97917 71.637 3.14167C71.4755 3.30417 71.2602 3.46667 71.0449 3.52083C70.8296 3.62917 70.5605 3.68333 70.3452 3.62917Z" fill="white"/>
<path d="M79.3872 20.0415C77.8264 20.0415 76.5885 19.6623 75.6197 18.8498C74.6509 18.0915 74.1665 17.0082 74.1665 15.7082C74.1665 14.5165 74.6509 13.4873 75.6735 12.6207C76.6961 11.754 77.934 11.3748 79.441 11.3748C81.0019 11.3748 82.2936 11.8623 83.37 12.8915V11.2123C83.37 10.2373 83.1009 9.479 82.6165 8.93733C82.1321 8.39566 81.4324 8.12483 80.5175 8.12483C78.6337 8.12483 77.5034 9.09983 77.0729 10.9957L74.2741 10.3998C74.6509 8.93733 75.4044 7.74566 76.4808 6.93316C77.5573 6.12066 78.9566 5.63316 80.6251 5.63316C82.4012 5.63316 83.8544 6.12066 84.877 7.0415C85.8997 8.0165 86.4379 9.37066 86.4379 11.2123V19.6623H83.4777V17.929C82.5089 19.3373 81.1633 20.0415 79.3872 20.0415ZM79.9793 17.7665C81.3248 17.7665 82.4551 17.0623 83.4238 15.7082V15.2748C82.5089 14.1373 81.3248 13.5957 79.9793 13.5957C79.1719 13.5957 78.5799 13.8123 78.0417 14.1915C77.8264 14.354 77.6111 14.5707 77.5035 14.8415C77.3958 15.1123 77.2882 15.3832 77.342 15.654C77.342 15.9248 77.3958 16.2498 77.5035 16.5207C77.6111 16.7915 77.8264 17.0082 78.0417 17.1707C78.5261 17.604 79.1719 17.7665 79.9793 17.7665Z" fill="white"/>
<path d="M89.3971 19.7168V5.9585H92.3573V8.34184C93.1108 6.6085 94.4025 5.74184 96.2325 5.74184C97.3089 5.74184 98.2239 6.121 98.9236 6.82517C99.6232 7.52934 100 8.50434 100 9.696C100 10.4002 99.8924 11.1585 99.6233 11.8085L96.8245 11.5377C96.8783 11.1585 96.9322 10.7793 96.9322 10.4002C96.9322 8.99184 96.3401 8.28767 95.2099 8.28767C94.4025 8.28767 93.7567 8.721 93.2185 9.5335C92.6802 10.4002 92.4111 11.4835 92.4111 12.8377V19.6627H89.3971V19.7168Z" fill="white"/>
<path d="M7.21212 8.07083C9.47263 6.825 12.5943 5.09167 12.5943 0H8.82677C8.82677 2.81667 7.48122 3.575 5.38218 4.76667C3.12166 6.06667 0 7.8 0 12.8375H3.76752C3.76752 10.0208 5.11307 9.20833 7.21212 8.07083Z" fill="#FF3C00"/>
<path d="M13.6707 6.93367C13.6707 9.75034 12.3251 10.5087 10.2261 11.7003C7.96559 12.9462 4.84392 14.6795 4.84392 19.7712H8.61145C8.61145 16.9545 9.95699 16.1962 12.056 15.0045C14.3166 13.7587 17.4382 12.0253 17.4382 6.93367H13.6707Z" fill="#FF3C00"/>
</g>
</svg>
