<svg width="100" height="30" viewBox="0 0 100 30" fill="none" xmlns="http://www.w3.org/2000/svg">
<g id="Vector">
<path d="M0 5.90665H3.4869V13.6545H10.841V5.90665H14.3324V24.9253H10.841V17.0147H3.4869V24.9253H0V5.90665ZM25.3789 18.7307C25.3789 20.3227 24.0819 21.6183 22.4904 21.6183C20.8984 21.6183 19.6022 20.3227 19.6022 18.7307V10.5424H16.2954V18.7307C16.2954 22.1467 19.0746 24.9253 22.4904 24.9253C25.9055 24.9253 28.6845 22.1467 28.6845 18.7307V10.5424H25.3789V18.7307ZM37.9159 10.6384C36.2755 10.6384 35.1306 11.1144 34.0248 12.2V5.90665H30.7073V17.5699C30.7073 21.9355 33.8633 24.9253 37.409 24.9253C41.3508 24.9253 44.8045 21.8822 44.8045 17.782C44.8045 13.7339 41.6198 10.6384 37.9159 10.6384ZM37.9983 21.8558C35.7503 21.8558 34.0313 19.9781 34.0313 17.782C34.0313 15.5856 35.7503 13.7073 37.9983 13.7073C39.9031 13.7073 41.6231 15.5856 41.6231 17.782C41.6231 19.9781 39.9031 21.8558 37.9983 21.8558ZM50.3765 11.4743C50.3765 9.80638 51.4877 9.27757 52.7041 9.27757C53.6835 9.27757 54.9795 10.0183 55.8252 10.9181L57.9939 8.37839C56.91 6.92343 54.7148 5.91778 52.9159 5.91778C49.3178 5.91778 46.7253 8.00801 46.7253 11.4743C46.7253 17.9032 54.6353 15.8653 54.6353 19.4644C54.6353 20.5744 53.5511 21.5542 52.3084 21.5542C50.3501 21.5542 49.7149 20.6017 48.8159 19.596L46.4081 22.0826C47.9433 23.9613 49.8474 24.9142 52.1227 24.9142C55.535 24.9142 58.2863 22.7976 58.2863 19.49C58.2863 12.3469 50.3765 14.5695 50.3765 11.4743ZM67.0199 10.452C63.4746 10.452 60.3182 13.44 60.3182 17.8067V29.5H63.6356V23.1768C64.7415 24.2615 65.8859 24.7384 67.5268 24.7384C71.2305 24.7384 74.4156 21.6433 74.4156 17.5951C74.4156 13.4944 70.961 10.452 67.0199 10.452ZM67.6094 21.6699C65.3616 21.6699 63.6424 19.7896 63.6424 17.5951C63.6424 15.3986 65.3616 13.5203 67.6094 13.5203C69.5138 13.5203 71.234 15.3986 71.234 17.5951C71.234 19.7896 69.5138 21.6699 67.6094 21.6699ZM98.8351 21.8558C96.8783 21.8558 96.3229 21.0096 96.3229 19.7127V13.9718H99.3644V11.0619H96.3229V7.22525L92.9643 8.73294V20.4271C92.9643 23.4171 95.0269 24.9253 97.8561 24.9253C98.2794 24.9253 98.8621 24.898 99.1798 24.8197L100 21.8039C99.6297 21.8295 99.2066 21.8558 98.8351 21.8558Z" fill="white"/>
<path d="M90.0867 14.141C89.4507 13.0466 88.5561 12.1693 87.4377 11.5088C86.6019 11.0222 85.7353 10.7134 84.7587 10.5807V7.10354C85.7353 6.68882 86.3414 5.77088 86.3414 4.69998C86.3414 3.24034 85.171 2.05751 83.7127 2.05751C82.2532 2.05751 81.0624 3.24034 81.0624 4.69998C81.0624 5.77088 81.6335 6.68882 82.6101 7.10354V10.5823C81.8288 10.6952 81.0186 10.9388 80.2787 11.3131C78.7675 10.1652 73.8122 6.39951 70.9134 4.20009C70.9821 3.95219 71.0351 3.69667 71.0351 3.42709C71.0351 1.81039 69.726 0.5 68.1089 0.5C66.4919 0.5 65.1834 1.81039 65.1834 3.42709C65.1834 5.0436 66.4932 6.35438 68.1103 6.35438C68.6619 6.35438 69.1721 6.19303 69.6123 5.92774L70.2241 6.39189L78.63 12.4492C78.1856 12.8573 77.7718 13.3215 77.4407 13.8423C76.7698 14.904 76.3598 16.0722 76.3598 17.3464V17.6123C76.3598 18.5068 76.5297 19.3513 76.8192 20.1446C77.0741 20.8373 77.4467 21.4671 77.9083 22.0365L75.1185 24.8335C74.7142 24.683 74.2751 24.6521 73.8537 24.7446C73.4323 24.837 73.0464 25.0488 72.7422 25.3547C72.5315 25.5643 72.3646 25.8137 72.251 26.0883C72.1374 26.363 72.0794 26.6574 72.0804 26.9546C72.0806 27.5588 72.316 28.1267 72.7434 28.5539C72.9528 28.7648 73.2021 28.9319 73.4766 29.0457C73.7511 29.1595 74.0455 29.2177 74.3427 29.2169C74.6399 29.2177 74.9344 29.1595 75.209 29.0457C75.4836 28.9319 75.733 28.7647 75.9426 28.5539C76.1531 28.3443 76.32 28.095 76.4336 27.8205C76.5473 27.546 76.6054 27.2517 76.6047 26.9546C76.6047 26.7208 76.5686 26.4926 76.5006 26.2758L79.3842 23.3915C79.7795 23.6646 80.2065 23.8945 80.6655 24.0928C81.5708 24.4842 82.5701 24.7228 83.6637 24.7228H83.8641C85.0731 24.7228 86.2136 24.4387 87.2857 23.8578C88.4155 23.2438 89.2997 22.4042 89.9677 21.3323C90.6392 20.2575 91.009 19.07 91.009 17.7635V17.6982C91.009 16.413 90.7115 15.2273 90.0867 14.141ZM86.5634 20.1915C85.7808 21.0614 84.8811 21.5972 83.8641 21.5972H83.6965C83.1156 21.5972 82.5474 21.4366 81.9911 21.1446C81.3641 20.823 80.8876 20.3644 80.4975 19.7836C80.0943 19.2136 79.8756 18.5912 79.8756 17.9313V17.7309C79.8756 17.0821 80 16.467 80.3137 15.886C80.6491 15.2509 81.102 14.7571 81.7044 14.3644C82.2958 13.9745 82.9275 13.7833 83.6311 13.7833H83.6965C84.3344 13.7833 84.9384 13.9091 85.5083 14.2007C86.089 14.5117 86.5634 14.9366 86.9312 15.4955C87.2885 16.0546 87.501 16.6576 87.5694 17.3146C87.5801 17.4511 87.5856 17.591 87.5856 17.7246C87.5856 18.6162 87.2449 19.4419 86.5634 20.1915Z" fill="#F8761F"/>
</g>
</svg>
