<svg width="100" height="18" viewBox="0 0 100 18" fill="none" xmlns="http://www.w3.org/2000/svg">
<g id="Vector">
<path d="M52.3446 15.2702H49.9018V14.2494H49.8757C49.3321 14.8682 48.3882 15.3774 46.7882 15.3774C44.6072 15.3774 42.7289 13.7651 42.7289 10.9939C42.7289 8.35395 44.5801 6.59166 46.8702 6.59166C48.2879 6.59166 49.1681 7.08709 49.7012 7.71966H49.7273V2.41309H52.3446V15.2702ZM47.528 8.52023C46.0318 8.52023 45.1908 9.56852 45.1908 10.9622C45.1908 12.3568 46.0318 13.4488 47.528 13.4488C49.0259 13.4488 49.9018 12.3851 49.9018 10.9622C49.9018 9.49995 49.0259 8.52023 47.528 8.52023ZM41.5799 13.8894C40.9623 14.6754 39.6903 15.3774 37.6366 15.3774C34.8973 15.3774 33.1524 13.5945 33.1524 10.7942C33.1524 8.30595 34.7324 6.59166 37.7134 6.59166C40.2879 6.59166 41.8757 8.25281 41.8757 11.1748C41.8757 11.4662 41.8277 11.7559 41.8277 11.7559H35.6214L35.6362 12.0208C35.8081 12.7597 36.376 13.6631 37.6794 13.6631C38.817 13.6631 39.5969 13.0622 39.9494 12.5917L41.5799 13.8894ZM39.357 10.1265C39.3745 9.22309 38.6992 8.30595 37.6349 8.30595C36.3681 8.30595 35.692 9.27795 35.6214 10.1274H39.357V10.1265Z" fill="white"/>
<path d="M33.1516 6.69881H30.0981L27.0447 10.1274V2.41309H24.4275V15.2702H27.0447V10.9845L30.2717 15.2702H33.3618L29.6619 10.5842L33.1516 6.69881ZM13.9585 6.69881H16.4248V7.93395H16.4519C16.8279 7.26795 17.9385 6.59167 19.3116 6.59167C21.9472 6.59167 22.6826 8.23481 22.6826 10.5131V15.2702H20.0654V10.982C20.0654 9.72024 19.6022 8.84167 18.5186 8.84167C17.203 8.84167 16.5758 9.8651 16.5758 11.1534V15.2702H13.9585V6.69881ZM9.5965 15.2702H12.2137V6.69881H9.5965V15.2702ZM10.906 5.24167C11.1153 5.24651 11.3234 5.2102 11.5182 5.13487C11.713 5.05953 11.8905 4.94669 12.0402 4.80298C12.19 4.65928 12.309 4.4876 12.3902 4.29805C12.4715 4.1085 12.5133 3.90491 12.5133 3.69924C12.5133 3.49356 12.4715 3.28997 12.3902 3.10042C12.309 2.91087 12.19 2.7392 12.0402 2.59549C11.8905 2.45178 11.713 2.33894 11.5182 2.26361C11.3234 2.18827 11.1153 2.15196 10.906 2.15681C10.496 2.1663 10.1061 2.33298 9.81959 2.6212C9.53307 2.90943 9.37266 3.29634 9.37266 3.69924C9.37266 4.10213 9.53307 4.48904 9.81959 4.77727C10.1061 5.0655 10.496 5.23217 10.906 5.24167ZM2.61723 2.41309H0V15.2702H7.85168V12.6988H2.61723V2.41309Z" fill="white"/>
<path fill-rule="evenodd" clip-rule="evenodd" d="M71.9547 0H56.342C55.5953 0 54.961 0.580286 54.961 1.29514V16.704C54.961 17.4197 55.3772 18 56.1239 18H71.7366C72.4842 18 73.2816 17.4197 73.2816 16.704V1.29514C73.2816 0.580286 72.7023 0 71.9547 0ZM61.9403 6.85714H64.4066V8.09229H64.4336C64.8097 7.42629 65.9202 6.75 67.2934 6.75C69.9289 6.75 70.6644 8.12486 70.6644 10.6714V15.4286H68.0472V11.1403C68.0472 10.0003 67.5839 9 66.5004 9C65.1848 9 64.5575 9.87514 64.5575 11.3117V15.4286H61.9403V6.85714ZM57.5783 15.4286H60.1955V6.85714H57.5783V15.4286ZM60.5226 3.85714C60.5227 4.06817 60.4805 4.27714 60.3984 4.47213C60.3163 4.66712 60.1959 4.84431 60.0441 4.99358C59.8923 5.14285 59.712 5.26128 59.5136 5.34209C59.3152 5.42291 59.1025 5.46453 58.8877 5.46459C58.673 5.46465 58.4603 5.42313 58.2618 5.34242C58.0634 5.26171 57.883 5.14338 57.7311 4.99419C57.5792 4.845 57.4587 4.66787 57.3765 4.47292C57.2943 4.27797 57.252 4.06902 57.252 3.858C57.2519 3.43193 57.4242 3.02328 57.7307 2.72195C58.0373 2.42062 58.4532 2.25127 58.8869 2.25116C59.3205 2.25105 59.7365 2.42017 60.0432 2.72135C60.35 3.02252 60.5224 3.43107 60.5226 3.85714Z" fill="white"/>
<path d="M60.3984 4.47213C60.4805 4.27714 60.5227 4.06817 60.5226 3.85714C60.5224 3.43107 60.35 3.02252 60.0432 2.72135C59.7365 2.42017 59.3205 2.25105 58.8869 2.25116C58.4532 2.25127 58.0373 2.42062 57.7307 2.72195C57.4242 3.02328 57.2519 3.43193 57.252 3.858C57.252 4.06902 57.2943 4.27797 57.3765 4.47292C57.4587 4.66787 57.5792 4.845 57.7311 4.99419C57.883 5.14338 58.0634 5.26171 58.2618 5.34242C58.4603 5.42313 58.673 5.46465 58.8877 5.46459C59.1025 5.46453 59.3152 5.42291 59.5136 5.34209C59.712 5.26128 59.8923 5.14285 60.0441 4.99358C60.1959 4.84431 60.3163 4.66712 60.3984 4.47213Z" fill="#1068BC"/>
<path d="M60.1955 15.4286H57.5783V6.85714H60.1955V15.4286Z" fill="#1068BC"/>
<path d="M64.4066 6.85714H61.9403V15.4286H64.5575V11.3117C64.5575 9.87514 65.1848 9 66.5004 9C67.5839 9 68.0472 10.0003 68.0472 11.1403V15.4286H70.6644V10.6714C70.6644 8.12486 69.9289 6.75 67.2934 6.75C65.9202 6.75 64.8097 7.42629 64.4336 8.09229H64.4066V6.85714Z" fill="#1068BC"/>
<path d="M81.4706 5.08737H82.4093L86.7807 15.4385H85.842L84.4829 12.1288H79.341L77.9819 15.4385H77.0993L81.4706 5.08737ZM84.1887 11.4206L81.919 5.90456L79.6352 11.4206H84.1887Z" fill="white"/>
<path d="M93.9715 15.4385H93.1869L93.1729 13.9403C92.902 14.4851 92.5191 14.9073 92.024 15.2069C91.529 15.5066 90.9639 15.6564 90.3287 15.6564C89.6842 15.6564 89.1051 15.5066 88.5914 15.2069C88.087 14.8982 87.69 14.476 87.4005 13.9403C87.1109 13.4046 86.9661 12.7962 86.9661 12.1152C86.9661 11.4433 87.1203 10.844 87.4285 10.3174C87.7367 9.78168 88.1477 9.35946 88.6614 9.05075C89.1845 8.73295 89.7683 8.57405 90.4128 8.57405C91.0012 8.57405 91.5383 8.72387 92.024 9.02351C92.5097 9.31407 92.888 9.7272 93.1589 10.2629V4.40638H93.9715V15.4385ZM88.143 13.5725C88.3766 13.9993 88.6941 14.3353 89.0958 14.5804C89.5068 14.8256 89.9785 14.9481 90.5109 14.9481C91.0339 14.9481 91.4963 14.8256 91.8979 14.5804C92.3089 14.3353 92.6312 13.9993 92.8647 13.5725C93.0982 13.1458 93.215 12.66 93.215 12.1152C93.215 11.5613 93.0982 11.0756 92.8647 10.6579C92.6312 10.2311 92.3089 9.89518 91.8979 9.65002C91.4963 9.40487 91.0339 9.28229 90.5109 9.28229C89.9785 9.28229 89.5068 9.40487 89.0958 9.65002C88.6941 9.89518 88.3766 10.2311 88.143 10.6579C87.9095 11.0756 87.7928 11.5613 87.7928 12.1152C87.7928 12.66 87.9095 13.1458 88.143 13.5725Z" fill="white"/>
<path d="M99.2714 15.1388C98.7857 15.4839 98.1506 15.6564 97.366 15.6564C96.9363 15.6564 96.5066 15.5974 96.077 15.4793C95.6567 15.3613 95.3064 15.2069 95.0262 15.0162L95.1523 14.308C95.4418 14.5078 95.7874 14.6712 96.1891 14.7983C96.6 14.9254 96.9923 14.989 97.366 14.989C97.9264 14.989 98.3654 14.88 98.683 14.6621C99.0099 14.4442 99.1734 14.1537 99.1734 13.7905C99.1734 13.4454 99.0473 13.1776 98.7951 12.9869C98.5429 12.7871 98.0665 12.5919 97.366 12.4012C96.572 12.1833 96.0069 11.9245 95.6707 11.6249C95.3438 11.3162 95.1803 10.9121 95.1803 10.4127C95.1803 9.84978 95.3998 9.40486 95.8388 9.07799C96.2871 8.74203 96.8803 8.57405 97.6182 8.57405C97.9918 8.57405 98.3607 8.62399 98.725 8.72387C99.0986 8.81467 99.4162 8.93725 99.6777 9.09161L99.5376 9.7726C99.2668 9.60008 98.9585 9.46842 98.6129 9.37762C98.2767 9.28683 97.9357 9.24143 97.5901 9.24143C97.0858 9.24143 96.6888 9.3413 96.3992 9.54106C96.1097 9.73174 95.9649 9.9996 95.9649 10.3446C95.9649 10.6806 96.0863 10.9484 96.3292 11.1482C96.5814 11.3389 97.0297 11.5205 97.6742 11.693C98.5335 11.9291 99.136 12.2015 99.4816 12.5102C99.8272 12.8189 100 13.232 100 13.7496C100 14.3216 99.7571 14.7847 99.2714 15.1388Z" fill="white"/>
</g>
</svg>
