<svg width="100" height="22" viewBox="0 0 100 22" fill="none" xmlns="http://www.w3.org/2000/svg">
<g id="Vector">
<path d="M6.5297 0.5C5.85096 0.5 5.21101 0.865437 4.90073 1.48091C4.59045 2.07714 4.60984 2.80801 4.99769 3.36578L5.79279 2.57721C5.77339 2.50028 5.754 2.42335 5.754 2.32718C5.754 1.90404 6.10307 1.55784 6.5297 1.55784C6.95634 1.55784 7.30541 1.90404 7.30541 2.32718C7.30541 2.75031 6.95634 3.09652 6.5297 3.09652C6.45213 3.09652 6.37456 3.07728 6.2776 3.05805L5.4825 3.84662C6.14185 4.28899 7.01452 4.26976 7.63508 3.78892C8.25564 3.30809 8.52714 2.48105 8.27504 1.75017C8.04232 1.00007 7.3248 0.5 6.5297 0.5Z" fill="#31A853"/>
<path d="M5.79267 5.847C5.79267 5.23153 5.59874 4.61606 5.21089 4.13522L4.18308 5.15459C4.49337 5.7316 4.3964 6.46247 3.91159 6.92407L4.47397 8.27041C5.28846 7.73188 5.79267 6.82791 5.79267 5.847Z" fill="#FBBC08"/>
<path d="M2.92259 7.30865H2.90319C2.28263 7.30865 1.72025 6.90475 1.50693 6.32775C1.29361 5.75074 1.50693 5.07757 1.99174 4.6929C2.49595 4.30823 3.17469 4.289 3.69829 4.6352L4.7067 3.63506C3.71768 2.84649 2.32142 2.76956 1.27422 3.48119C0.227016 4.19283 -0.238406 5.48147 0.130053 6.69318C0.498512 7.90489 1.62328 8.73193 2.8838 8.73193C3.07773 8.73193 3.27165 8.71269 3.46558 8.67423L2.92259 7.30865Z" fill="#E84336"/>
<path d="M6.56835 8.46247C5.9284 8.46247 5.28844 8.55864 4.66788 8.73174L5.48237 10.6936C5.83143 10.6166 6.19989 10.5589 6.56835 10.5589C8.68214 10.5589 10.505 12.0399 10.9123 14.0979C11.3195 16.1559 10.2142 18.2138 8.2749 19.0024C6.33564 19.791 4.06671 19.1563 2.88376 17.4253C1.72021 15.6943 1.93352 13.367 3.42675 11.886C3.73703 11.5783 4.0861 11.309 4.47395 11.1167L3.67886 9.15487C0.692398 10.6166 -0.742653 14.0594 0.382117 17.1752C1.50689 20.291 4.80363 22.0798 8.04219 21.3297C11.3001 20.5795 13.4527 17.5407 13.0843 14.2517C12.7158 10.9628 9.92327 8.46247 6.56835 8.46247Z" fill="#517BBD"/>
<path d="M81.3868 19.395C81.1851 19.395 80.986 19.3616 80.7895 19.2949C80.5929 19.2334 80.4094 19.1411 80.2387 19.018C80.0681 18.8898 79.9155 18.7333 79.7811 18.5487C79.6518 18.364 79.5561 18.1512 79.494 17.9101L79.9595 17.7178C80.006 17.8922 80.0732 18.0537 80.1611 18.2025C80.2542 18.3512 80.3628 18.4794 80.4869 18.5872C80.6111 18.6949 80.7507 18.7795 80.9058 18.841C81.061 18.8975 81.2264 18.9257 81.4023 18.9257C81.5729 18.9257 81.7358 18.9026 81.891 18.8564C82.0461 18.8051 82.1806 18.7333 82.2943 18.641C82.4133 18.5436 82.5064 18.4282 82.5736 18.2948C82.6408 18.1563 82.6744 18.0025 82.6744 17.8332C82.6744 17.5409 82.5658 17.3049 82.3486 17.1254C82.1314 16.9408 81.816 16.7766 81.4023 16.633L81.0532 16.5099C80.8877 16.4535 80.7248 16.3868 80.5645 16.3099C80.4042 16.2278 80.2594 16.1304 80.1301 16.0176C80.006 15.9047 79.9052 15.7714 79.8276 15.6175C79.75 15.4585 79.7112 15.2739 79.7112 15.0636C79.7112 14.8738 79.75 14.6917 79.8276 14.5174C79.9103 14.343 80.0241 14.1917 80.1689 14.0634C80.3137 13.9352 80.4869 13.8326 80.6886 13.7557C80.8903 13.6788 81.1101 13.6403 81.348 13.6403C81.6014 13.6403 81.8237 13.6788 82.0151 13.7557C82.2064 13.8275 82.3693 13.9198 82.5038 14.0327C82.6434 14.1404 82.752 14.2583 82.8296 14.3866C82.9123 14.5148 82.9718 14.6328 83.008 14.7405L82.5425 14.9328C82.5167 14.8405 82.4727 14.7482 82.4107 14.6558C82.3538 14.5584 82.2762 14.4686 82.178 14.3866C82.0797 14.3045 81.9634 14.2378 81.8289 14.1865C81.6945 14.1352 81.5367 14.1096 81.3557 14.1096C81.2006 14.1096 81.0532 14.1327 80.9136 14.1788C80.7791 14.225 80.6576 14.2917 80.549 14.3789C80.4456 14.4609 80.3628 14.5609 80.3008 14.6789C80.2439 14.7969 80.2154 14.9251 80.2154 15.0636C80.2154 15.1969 80.2413 15.3149 80.293 15.4175C80.3499 15.5149 80.4275 15.6047 80.5257 15.6867C80.624 15.7637 80.7403 15.8355 80.8748 15.9022C81.0092 15.9637 81.1566 16.0227 81.3169 16.0791L81.6738 16.2099C81.8806 16.2817 82.0745 16.3638 82.2555 16.4561C82.4417 16.5484 82.602 16.6587 82.7365 16.7869C82.8709 16.91 82.9769 17.0562 83.0545 17.2254C83.1373 17.3947 83.1786 17.5896 83.1786 17.8101C83.1786 18.0871 83.1243 18.3256 83.0157 18.5256C82.9071 18.7256 82.7675 18.8898 82.5968 19.018C82.4262 19.1462 82.2323 19.2411 82.0151 19.3026C81.803 19.3642 81.5936 19.395 81.3868 19.395Z" fill="white"/>
<path d="M84.1917 15.9483H83.5013V15.5021H84.1917V14.3481H84.6882V15.5021H85.6345V15.9483H84.6882V18.2179C84.6882 18.4384 84.7425 18.6025 84.8511 18.7102C84.9545 18.8231 85.0786 18.8795 85.2234 18.8795C85.301 18.8795 85.3656 18.8744 85.4173 18.8641C85.4742 18.8487 85.5363 18.8256 85.6035 18.7949L85.7586 19.218C85.6707 19.259 85.5802 19.2873 85.4871 19.3026C85.3992 19.3232 85.2932 19.3334 85.1691 19.3334C84.9002 19.3334 84.6726 19.2488 84.4865 19.0795C84.3934 18.9923 84.321 18.8872 84.2693 18.7641C84.2176 18.6359 84.1917 18.482 84.1917 18.3025V15.9483Z" fill="white"/>
<path d="M89.1476 18.5641H89.1166C89.0545 18.6769 88.9795 18.7846 88.8916 18.8872C88.8037 18.9846 88.7003 19.0718 88.5813 19.1488C88.4676 19.2257 88.3383 19.2847 88.1935 19.3257C88.0539 19.3719 87.9039 19.395 87.7436 19.395C87.5109 19.395 87.3066 19.3565 87.1308 19.2796C86.9549 19.2078 86.8102 19.1052 86.6964 18.9718C86.5826 18.8333 86.4973 18.6718 86.4404 18.4871C86.3835 18.2974 86.3551 18.0896 86.3551 17.864V15.5021H86.8515V17.7793C86.8515 18.1794 86.9394 18.4743 87.1153 18.6641C87.2963 18.8539 87.5497 18.9487 87.8755 18.9487C88.0564 18.9487 88.2219 18.9077 88.3719 18.8256C88.527 18.7436 88.6589 18.6359 88.7675 18.5025C88.8761 18.3692 88.9614 18.2153 89.0235 18.0409C89.0855 17.8614 89.1166 17.6768 89.1166 17.487V15.5021H89.613V19.2719H89.1476V18.5641Z" fill="white"/>
<path d="M93.5247 18.6102H93.4937C93.4316 18.7128 93.3566 18.8128 93.2687 18.9103C93.1808 19.0026 93.0774 19.0847 92.9584 19.1565C92.8395 19.2283 92.705 19.2847 92.5551 19.3257C92.4051 19.3719 92.2396 19.395 92.0586 19.395C91.8156 19.395 91.5854 19.3462 91.3682 19.2488C91.151 19.1462 90.9597 19.0077 90.7942 18.8333C90.6339 18.6538 90.5046 18.441 90.4064 18.1948C90.3133 17.9486 90.2667 17.6793 90.2667 17.387C90.2667 17.0946 90.3133 16.8254 90.4064 16.5792C90.5046 16.333 90.6339 16.1227 90.7942 15.9483C90.9597 15.7688 91.151 15.6303 91.3682 15.5329C91.5854 15.4303 91.8156 15.379 92.0586 15.379C92.4206 15.379 92.7205 15.4559 92.9584 15.6098C93.1963 15.7637 93.3747 15.9458 93.4937 16.156H93.5247L93.4937 15.6329V13.7634H93.9901V19.2719H93.5247V18.6102ZM92.1439 18.9487C92.3249 18.9487 92.4982 18.9154 92.6637 18.8487C92.8343 18.7769 92.9817 18.6743 93.1058 18.541C93.2351 18.4025 93.3359 18.2384 93.4083 18.0486C93.4859 17.8537 93.5247 17.6332 93.5247 17.387C93.5247 17.1408 93.4859 16.9203 93.4083 16.7254C93.3359 16.5305 93.2351 16.3663 93.1058 16.233C92.9817 16.0996 92.8343 15.9996 92.6637 15.9329C92.4982 15.8611 92.3249 15.8252 92.1439 15.8252C91.9629 15.8252 91.7871 15.8611 91.6165 15.9329C91.451 16.0047 91.3036 16.1099 91.1743 16.2484C91.0502 16.3817 90.9494 16.5458 90.8718 16.7407C90.7994 16.9305 90.7632 17.1459 90.7632 17.387C90.7632 17.628 90.7994 17.846 90.8718 18.0409C90.9494 18.2358 91.0502 18.3999 91.1743 18.5333C91.3036 18.6667 91.451 18.7692 91.6165 18.841C91.7871 18.9128 91.9629 18.9487 92.1439 18.9487Z" fill="white"/>
<path d="M95.2106 14.5789C95.102 14.5789 95.0089 14.543 94.9313 14.4712C94.8589 14.3943 94.8227 14.3045 94.8227 14.2019C94.8227 14.0942 94.8589 14.0045 94.9313 13.9327C95.0089 13.8557 95.102 13.8173 95.2106 13.8173C95.314 13.8173 95.4019 13.8557 95.4743 13.9327C95.5519 14.0045 95.5907 14.0942 95.5907 14.2019C95.5907 14.3045 95.5519 14.3943 95.4743 14.4712C95.4019 14.543 95.314 14.5789 95.2106 14.5789ZM94.9623 19.2719V15.5021H95.4588V19.2719H94.9623Z" fill="white"/>
<path d="M98.0763 15.379C98.3555 15.379 98.6115 15.4303 98.8442 15.5329C99.0821 15.6355 99.2864 15.7765 99.457 15.956C99.6277 16.1355 99.7595 16.3484 99.8526 16.5946C99.9509 16.8356 100 17.0998 100 17.387C100 17.6742 99.9509 17.9409 99.8526 18.1871C99.7595 18.4282 99.6277 18.6384 99.457 18.818C99.2864 18.9975 99.0821 19.1385 98.8442 19.2411C98.6115 19.3437 98.3555 19.395 98.0763 19.395C97.8022 19.395 97.5462 19.3437 97.3083 19.2411C97.0756 19.1385 96.8739 18.9975 96.7033 18.818C96.5326 18.6384 96.3981 18.4282 96.2999 18.1871C96.2068 17.9409 96.1603 17.6742 96.1603 17.387C96.1603 17.0998 96.2068 16.8356 96.2999 16.5946C96.3981 16.3484 96.5326 16.1355 96.7033 15.956C96.8739 15.7765 97.0756 15.6355 97.3083 15.5329C97.5462 15.4303 97.8022 15.379 98.0763 15.379ZM98.0763 18.9487C98.2624 18.9487 98.4408 18.9128 98.6115 18.841C98.7821 18.7641 98.9321 18.659 99.0614 18.5256C99.1959 18.3871 99.3019 18.223 99.3794 18.0332C99.4622 17.8383 99.5035 17.6229 99.5035 17.387C99.5035 17.1511 99.4622 16.9382 99.3794 16.7484C99.3019 16.5535 99.1959 16.3894 99.0614 16.2561C98.9321 16.1176 98.7821 16.0124 98.6115 15.9406C98.4408 15.8637 98.2624 15.8252 98.0763 15.8252C97.8901 15.8252 97.7117 15.8637 97.541 15.9406C97.3704 16.0124 97.2178 16.1176 97.0834 16.2561C96.9541 16.3894 96.8506 16.5535 96.7731 16.7484C96.6955 16.9382 96.6567 17.1511 96.6567 17.387C96.6567 17.6229 96.6955 17.8383 96.7731 18.0332C96.8506 18.223 96.9541 18.3871 97.0834 18.5256C97.2178 18.659 97.3704 18.7641 97.541 18.841C97.7117 18.9128 97.8901 18.9487 98.0763 18.9487Z" fill="white"/>
<path d="M36.5939 8.29725C37.4278 8.77808 38.1065 9.48972 38.5719 10.336C39.0567 11.2207 39.2895 12.2016 39.2701 13.2018C39.2895 14.2019 39.0373 15.1828 38.5719 16.0676C38.1259 16.9138 37.4278 17.6255 36.6133 18.1063C34.8485 19.1065 32.696 19.1065 30.9312 18.1063C30.0974 17.6255 29.4186 16.9138 28.9726 16.0676C28.4878 15.1828 28.2551 14.2019 28.2745 13.2018C28.2551 12.2016 28.5072 11.2207 28.9726 10.3552C29.4186 9.50896 30.1168 8.79732 30.9312 8.31648C32.6766 7.29711 34.8292 7.29711 36.5939 8.29725ZM48.5785 8.29725C49.4124 8.77808 50.0911 9.48972 50.5565 10.336C51.0414 11.2207 51.2741 12.2016 51.2547 13.2018C51.2741 14.2019 51.022 15.1828 50.5565 16.0676C50.1105 16.9138 49.4124 17.6255 48.5979 18.1063C46.8332 19.1065 44.6806 19.1065 42.9159 18.1063C42.082 17.6255 41.4032 16.9138 40.9572 16.0676C40.4724 15.1828 40.2397 14.2019 40.2591 13.2018C40.2397 12.2016 40.4918 11.2207 40.9572 10.3552C41.4032 9.50896 42.1014 8.79732 42.9159 8.31648C44.6612 7.29711 46.8332 7.29711 48.5785 8.29725ZM67.0984 7.54714C68.1456 7.54714 69.0571 7.77795 69.8328 8.23955C70.6085 8.70115 71.229 9.37432 71.6169 10.1821C72.0435 11.0669 72.2568 12.0285 72.2374 13.0094C72.2374 13.1825 72.218 13.3749 72.1987 13.548H63.6853C63.7241 14.3558 63.918 15.0482 64.2671 15.606C64.5968 16.1445 65.0428 16.5676 65.6052 16.8561C66.1288 17.1254 66.7106 17.2793 67.2923 17.2793C68.6886 17.2793 69.7552 16.6446 70.4727 15.3559L71.9853 16.0868C71.5587 16.9138 70.8994 17.6255 70.1043 18.1255C69.3092 18.6256 68.3395 18.8757 67.2148 18.8757C66.2451 18.8949 65.2949 18.6449 64.461 18.1448C63.6465 17.6639 62.9872 16.9715 62.5605 16.1253C62.0951 15.2405 61.8624 14.2404 61.8818 13.221C61.8818 12.2401 62.0951 11.2784 62.5218 10.3937C62.929 9.54742 63.569 8.83578 64.3447 8.31648C65.1979 7.79718 66.1482 7.52791 67.0984 7.54714ZM21.4289 3.31578V17.1254H28.2163V18.8564H19.5866V3.31578H21.4289ZM54.4351 3.31578V13.1441L59.9813 7.54714H62.3278V7.62408L57.6348 12.317L62.0951 18.7795V18.8564H59.8844L56.3355 13.5864L54.4351 15.4906V18.8564H52.5928V3.31578H54.4351ZM79.7812 7.77794V9.73976C79.2963 9.50896 78.7533 9.39356 78.2104 9.39356C77.6868 9.39356 77.1632 9.54742 76.7365 9.85516C76.2905 10.1629 75.9026 10.586 75.6699 11.0669C75.3984 11.5862 75.2627 12.1439 75.2627 12.7209V18.8757H73.4204V7.54714H75.1851V9.66282H75.2627C75.476 9.06659 75.9026 8.56652 76.5232 8.16261C77.105 7.77795 77.7837 7.56638 78.4819 7.56638C78.9279 7.52791 79.3739 7.62408 79.7812 7.77794ZM33.7432 9.16275C32.4051 9.16275 31.164 9.89363 30.5046 11.0669C30.1555 11.7208 29.9616 12.4709 29.981 13.221C29.9616 13.9711 30.1362 14.7212 30.5046 15.3752C30.9894 16.2407 31.7845 16.8754 32.7348 17.1446C33.685 17.4139 34.7128 17.2793 35.5661 16.7792C36.1479 16.4522 36.6133 15.9522 36.9429 15.3752C37.292 14.7212 37.4859 13.9711 37.4666 13.221C37.4859 12.4709 37.3114 11.7208 36.9429 11.0669C36.6327 10.4706 36.1479 9.98979 35.5661 9.66282C35.0425 9.31662 34.4025 9.14352 33.7432 9.16275ZM45.7472 9.16275C45.0878 9.16275 44.4479 9.33585 43.8855 9.64359C43.3037 9.97056 42.8189 10.4706 42.5086 11.0476C42.1596 11.7016 41.9656 12.4517 41.985 13.2018C41.9656 13.9519 42.1402 14.702 42.5086 15.3559C42.8189 15.9522 43.3037 16.433 43.8855 16.76C44.4479 17.0869 45.0878 17.26 45.7472 17.2408C46.4065 17.2408 47.0271 17.0677 47.5895 16.76C48.1712 16.4138 48.6367 15.9329 48.9663 15.3559C49.3154 14.702 49.5093 13.9519 49.49 13.2018C49.5093 12.4517 49.3348 11.7016 48.9663 11.0476C48.6561 10.4514 48.1712 9.97056 47.5895 9.64359C47.0271 9.31662 46.3871 9.14352 45.7472 9.16275ZM64.9652 9.95133C64.3834 10.4899 63.9956 11.2015 63.8017 12.067H70.3564C70.3176 11.6054 70.2012 11.1438 69.9879 10.7399C69.7358 10.2783 69.3867 9.89363 68.9407 9.60512C68.4559 9.29739 67.8547 9.14352 67.1372 9.14352C66.3227 9.14352 65.547 9.43202 64.9652 9.95133Z" fill="white"/>
</g>
</svg>
