<svg width="100" height="18" viewBox="0 0 100 18" fill="none" xmlns="http://www.w3.org/2000/svg">
<g id="Group 5">
<g id="Group 4">
<path id="Logo0" d="M2.79665 11.7644C2.79665 12.7629 3.01365 13.5294 3.29728 13.9932C3.66915 14.6006 4.22379 14.858 4.78925 14.858C5.51857 14.858 6.18577 14.6752 7.47155 12.8793C8.50161 11.4398 9.71536 9.41927 10.532 8.15258L11.915 6.00657C12.8758 4.51618 13.9878 2.85939 15.2627 1.73637C16.3036 0.81977 17.4264 0.310547 18.5564 0.310547C20.4536 0.310547 22.2607 1.42083 23.6437 3.50319C25.1573 5.78378 25.892 8.65634 25.892 11.6207C25.892 13.383 25.5481 14.6779 24.9628 15.7009C24.3973 16.6902 23.2952 17.6787 21.4413 17.6787V14.858C23.0287 14.858 23.4249 13.3848 23.4249 11.6989C23.4249 9.29651 22.8703 6.63037 21.6484 4.72533C20.7813 3.37407 19.6576 2.5484 18.4214 2.5484C17.0843 2.5484 16.0083 3.56684 14.799 5.38277C14.1561 6.34756 13.4962 7.52332 12.7551 8.85003L11.9394 10.3095C10.3006 13.2439 9.88553 13.9123 9.06616 15.0153C7.63002 16.9467 6.40367 17.6787 4.78925 17.6787C2.87409 17.6787 1.66305 16.8412 0.913009 15.579C0.300735 14.5506 0 13.2012 0 11.6635L2.79665 11.7644Z" fill="#0081FB"/>
<path id="Logo1" d="M2.20557 3.70233C3.48774 1.70636 5.33807 0.310547 7.46032 0.310547C8.68938 0.310547 9.91122 0.677915 11.1871 1.73001C12.5827 2.8803 14.0702 4.77443 15.9259 7.89615L16.5913 9.01644C18.1976 11.719 19.1116 13.1093 19.6464 13.7649C20.3343 14.607 20.816 14.858 21.4418 14.858C23.0292 14.858 23.4254 13.3848 23.4254 11.6989L25.8925 11.6207C25.8925 13.383 25.5485 14.6779 24.9633 15.7009C24.3978 16.6902 23.2957 17.6787 21.4418 17.6787C20.2893 17.6787 19.2682 17.4259 18.1391 16.3502C17.2711 15.5245 16.2564 14.0577 15.4757 12.7392L13.1536 8.82184C11.9885 6.85588 10.9197 5.39004 10.3011 4.72624C9.6357 4.01241 8.78032 3.15037 7.4153 3.15037C6.31051 3.15037 5.37229 3.9333 4.58714 5.13089L2.20557 3.70233Z" fill="url(#paint0_linear_99_246)"/>
<path id="Logo2" d="M7.41482 3.15037C6.31003 3.15037 5.37181 3.9333 4.58666 5.13088C3.47646 6.82314 2.79665 9.34379 2.79665 11.7644C2.79665 12.7629 3.01365 13.5294 3.29728 13.9932L0.913009 15.579C0.300735 14.5506 0 13.2012 0 11.6635C0 8.8673 0.759941 5.95291 2.20509 3.70233C3.48726 1.70636 5.33759 0.310547 7.45984 0.310547L7.41482 3.15037Z" fill="url(#paint1_linear_99_246)"/>
</g>
<g id="Vector">
<path d="M31.3291 0.881836H34.5643L40.0648 10.9317L45.5663 0.881836H48.7312V17.3952H46.0921V4.7392L41.2678 13.5033H38.7916L33.9682 4.7392V17.3952H31.3291V0.881836ZM57.0005 7.03889C55.1079 7.03889 53.9679 8.47744 53.6951 10.2588H60.1186C59.9862 8.42379 58.9382 7.03889 57.0005 7.03889ZM51.0786 11.2736C51.0786 7.52538 53.4772 4.7974 57.0464 4.7974C60.5571 4.7974 62.6532 7.49082 62.6532 11.4737V12.2057H53.6951C54.013 14.1435 55.2861 15.4493 57.3391 15.4493C58.9769 15.4493 60.0007 14.9446 60.9713 14.0216L62.3732 15.7557C61.0523 16.9824 59.3722 17.6898 57.2454 17.6898C53.3818 17.6898 51.0786 14.8445 51.0786 11.2736ZM65.8533 7.27531H63.424V5.09293H65.8533V1.48381H68.3996V5.09293H72.0904V7.27531H68.3996V12.8067C68.3996 14.6954 68.9975 15.3665 70.4669 15.3665C71.1377 15.3665 71.5222 15.3083 72.0904 15.2128V17.3716C71.3826 17.5734 70.7073 17.6662 69.9762 17.6662C67.2273 17.6662 65.8533 16.1494 65.8533 13.1132V7.27531ZM82.8124 9.39768C82.3009 8.09371 81.1601 7.13346 79.4836 7.13346C77.3046 7.13346 75.9099 8.69477 75.9099 11.2382C75.9099 13.7179 77.1939 15.3547 79.3791 15.3547C81.0971 15.3547 82.3234 14.3453 82.8124 13.0895V9.39768ZM85.3587 17.3952H82.8592V15.6729C82.1605 16.6868 80.8891 17.6898 78.8299 17.6898C75.5182 17.6898 73.305 14.89 73.305 11.2382C73.305 7.55175 75.5713 4.7974 78.9703 4.7974C80.6505 4.7974 81.9687 5.47576 82.8592 6.67334V5.09293H85.3587V17.3952Z" fill="white"/>
<path d="M87.2531 17.3897L89.2425 11.9407H89.8715L91.8609 17.3897H91.2465L90.7784 16.0585H88.3429L87.8675 17.3897H87.2531ZM88.5331 15.51H90.5736L89.4692 12.3796H89.6448L88.5331 15.51Z" fill="white"/>
<path d="M94.1342 17.4774C93.7685 17.4774 93.4393 17.3897 93.1468 17.2141C92.8542 17.0337 92.6226 16.7899 92.452 16.4827C92.2862 16.1707 92.2033 15.8196 92.2033 15.4295C92.2033 15.0345 92.2862 14.6835 92.452 14.3763C92.6226 14.0691 92.8518 13.8277 93.1395 13.6522C93.432 13.4718 93.7636 13.3816 94.1342 13.3816C94.4706 13.3816 94.7705 13.4547 95.0338 13.601C95.2971 13.7473 95.5043 13.9448 95.6555 14.1934L95.5677 14.347V11.8529H96.1162V17.3897H95.5677V16.512L95.6555 16.5924C95.5189 16.8752 95.3142 17.0947 95.0411 17.2507C94.7729 17.4019 94.4706 17.4774 94.1342 17.4774ZM94.1634 16.9289C94.4267 16.9289 94.6632 16.8631 94.8729 16.7314C95.0874 16.5998 95.2556 16.4218 95.3775 16.1975C95.5043 15.9683 95.5677 15.7123 95.5677 15.4295C95.5677 15.1467 95.5043 14.8931 95.3775 14.6688C95.2556 14.4397 95.0874 14.2593 94.8729 14.1276C94.6632 13.996 94.4267 13.9301 94.1634 13.9301C93.905 13.9301 93.671 13.996 93.4613 14.1276C93.2516 14.2593 93.0858 14.4372 92.9639 14.6615C92.8469 14.8858 92.7884 15.1418 92.7884 15.4295C92.7884 15.7123 92.8469 15.9683 92.9639 16.1975C93.0858 16.4218 93.2492 16.5998 93.454 16.7314C93.6636 16.8631 93.9001 16.9289 94.1634 16.9289Z" fill="white"/>
<path d="M98.6029 17.4774C98.2275 17.4774 97.8984 17.3824 97.6156 17.1922C97.3327 17.002 97.128 16.7436 97.0012 16.4169L97.462 16.1975C97.5741 16.4364 97.7301 16.6266 97.9301 16.768C98.1348 16.9094 98.3591 16.9801 98.6029 16.9801C98.837 16.9801 99.0345 16.924 99.1954 16.8119C99.3563 16.6948 99.4367 16.5437 99.4367 16.3584C99.4367 16.2219 99.3977 16.1146 99.3197 16.0366C99.2417 15.9537 99.1515 15.8903 99.0491 15.8464C98.9467 15.8025 98.8565 15.7708 98.7785 15.7513L98.2153 15.5904C97.8545 15.488 97.5936 15.3442 97.4327 15.1589C97.2718 14.9736 97.1913 14.7591 97.1913 14.5152C97.1913 14.2861 97.2499 14.0862 97.3669 13.9155C97.4839 13.7448 97.6424 13.6132 97.8423 13.5205C98.0422 13.4279 98.2641 13.3816 98.5079 13.3816C98.8394 13.3816 99.1393 13.4693 99.4075 13.6449C99.6805 13.8155 99.8731 14.0545 99.9853 14.3617L99.5172 14.5811C99.4197 14.3617 99.2783 14.191 99.093 14.0691C98.9126 13.9423 98.7102 13.8789 98.4859 13.8789C98.2665 13.8789 98.091 13.935 97.9593 14.0472C97.8277 14.1593 97.7618 14.3007 97.7618 14.4714C97.7618 14.603 97.796 14.7079 97.8642 14.7859C97.9325 14.8639 98.0105 14.9224 98.0983 14.9614C98.1909 15.0004 98.2714 15.0297 98.3396 15.0492L98.9906 15.2393C99.3075 15.332 99.5537 15.4758 99.7293 15.6709C99.9097 15.8659 99.9999 16.0951 99.9999 16.3584C99.9999 16.5729 99.939 16.7655 99.8171 16.9362C99.7 17.1069 99.5367 17.2409 99.327 17.3385C99.1174 17.4311 98.876 17.4774 98.6029 17.4774Z" fill="white"/>
</g>
</g>
<defs>
<linearGradient id="paint0_linear_99_246" x1="5.49294" y1="10.9497" x2="23.3218" y2="11.8413" gradientUnits="userSpaceOnUse">
<stop stop-color="#0064E1"/>
<stop offset="0.4" stop-color="#0064E1"/>
<stop offset="0.83" stop-color="#0073EE"/>
<stop offset="1" stop-color="#0082FB"/>
</linearGradient>
<linearGradient id="paint1_linear_99_246" x1="4.05182" y1="12.9502" x2="4.05182" y2="6.3121" gradientUnits="userSpaceOnUse">
<stop stop-color="#0082FB"/>
<stop offset="1" stop-color="#0064E0"/>
</linearGradient>
</defs>
</svg>
