<svg width="85" height="20" viewBox="0 0 85 20" fill="none" xmlns="http://www.w3.org/2000/svg">
<g id="Lockup_black 1" clip-path="url(#clip0_251_540)">
<g id="Layer 2">
<g id="LOCKUP white">
<path id="Vector" d="M25.4881 10.1778C25.0993 9.84216 24.8405 9.38184 24.7565 8.8764C24.6724 8.37097 24.7684 7.85218 25.0278 7.40972C25.2236 7.07916 25.5005 6.8035 25.8325 6.6086C26.1693 6.40437 26.556 6.29652 26.9503 6.29688H33.1282V7.79313H26.9503C26.8063 7.79552 26.6661 7.84014 26.5474 7.92142C26.4286 8.0027 26.3366 8.11703 26.2828 8.2501C26.229 8.38317 26.2158 8.52909 26.2449 8.66959C26.274 8.81009 26.344 8.93893 26.4462 9.04002C26.5841 9.14507 26.7492 9.20886 26.9222 9.22393C27.1374 9.24742 27.3538 9.25887 27.5703 9.25822H27.7018C28.2811 9.25822 28.8604 9.25822 29.4428 9.25822H29.6119L30.4573 9.24264H30.7704C31.0151 9.23649 31.2599 9.2469 31.5031 9.27381C31.7703 9.30534 32.0305 9.3801 32.2734 9.49513C32.5791 9.64465 32.8452 9.86361 33.0503 10.1344C33.2553 10.4051 33.3936 10.72 33.4539 11.0537C33.5173 11.3803 33.5066 11.7168 33.4226 12.0388C33.3347 12.3781 33.1661 12.6914 32.931 12.9521C32.7214 13.182 32.4667 13.3666 32.1826 13.4945C31.9035 13.6211 31.6001 13.686 31.2933 13.6847H24.9746V12.2165H31.2777C31.4394 12.2089 31.5941 12.1488 31.7181 12.0452C31.8421 11.9417 31.9285 11.8004 31.9641 11.6432C31.9997 11.486 31.9824 11.3216 31.915 11.1751C31.8475 11.0286 31.7336 10.9082 31.5908 10.8324C31.327 10.7394 31.046 10.7043 30.7673 10.7295H30.4761L29.6119 10.7451H29.4397C28.8479 10.7451 28.2561 10.7451 27.658 10.7451H27.5547C27.2117 10.7517 26.8688 10.7256 26.5308 10.6672C26.1472 10.5945 25.7885 10.4261 25.4881 10.1778Z" fill="#94A3B8"/>
<path id="Vector_2" d="M42.6816 8.7689C42.6886 9.20705 42.5737 9.63859 42.3497 10.0158C42.1308 10.3837 41.823 10.6913 41.4541 10.9104C41.0756 11.1346 40.6421 11.25 40.2017 11.244H36.4442V13.7034H34.9631V6.30943H40.2142C40.6548 6.3019 41.0887 6.41745 41.4667 6.64297C41.8356 6.86062 42.1436 7.16721 42.3622 7.53449C42.5795 7.90937 42.6899 8.33617 42.6816 8.7689ZM36.4411 7.79322V9.75706H40.1985C40.4517 9.74288 40.6899 9.63276 40.8641 9.4493C41.0383 9.26583 41.1354 9.02293 41.1354 8.77046C41.1354 8.51799 41.0383 8.2751 40.8641 8.09163C40.6899 7.90816 40.4517 7.79804 40.1985 7.78387L36.4411 7.79322Z" fill="#94A3B8"/>
<path id="Vector_3" d="M45.6468 11.2221V13.6816H44.1658V6.30938H49.4137C49.8542 6.30236 50.288 6.41787 50.6662 6.64293C51.0349 6.8598 51.342 7.16663 51.5586 7.53445C51.7859 7.92361 51.9017 8.36737 51.8934 8.81748C51.8851 9.26758 51.7531 9.70682 51.5116 10.0874C51.2658 10.4711 50.9193 10.7805 50.5096 10.9821L51.9562 13.666H50.2716L48.9534 11.2221H45.6468ZM45.6468 7.77447V9.75702H49.4043C49.6575 9.74284 49.8957 9.63272 50.0699 9.44925C50.2441 9.26579 50.3412 9.02289 50.3412 8.77042C50.3412 8.51795 50.2441 8.27505 50.0699 8.09159C49.8957 7.90812 49.6575 7.798 49.4043 7.78382L45.6468 7.77447Z" fill="#94A3B8"/>
<path id="Vector_4" d="M53.4312 6.30908H54.9122V13.6906H53.4312V6.30908Z" fill="#94A3B8"/>
<path id="Vector_5" d="M57.8773 8.07342V13.6844H56.3962V6.30908H58.1936L63.9362 11.9201V6.30908H65.4173V13.6906H63.62L57.8773 8.07342Z" fill="#94A3B8"/>
<path id="Vector_6" d="M75.1837 6.30908V7.79287H71.7206V13.7156H70.2395V7.79287H66.9016V6.30908H75.1837Z" fill="#94A3B8"/>
<path id="Vector_7" d="M76.3516 10.7418V9.2642C76.3524 8.48178 76.6645 7.73156 77.2197 7.17772C77.7748 6.62389 78.5278 6.31156 79.3137 6.30908H82.0379C82.4276 6.30867 82.8137 6.38485 83.1738 6.53325C83.534 6.68165 83.8612 6.89936 84.1366 7.17389C84.4121 7.44842 84.6305 7.77438 84.7791 8.13307C84.9278 8.49177 85.0039 8.87616 85.0031 9.2642V10.7418C85.0031 11.1293 84.9264 11.513 84.7773 11.871C84.6283 12.2289 84.4098 12.5542 84.1344 12.828C83.859 13.1019 83.5321 13.319 83.1724 13.4671C82.8126 13.6151 82.4271 13.691 82.0379 13.6906H79.3137C78.5289 13.6882 77.7769 13.3767 77.2219 12.8242C76.6669 12.2717 76.354 11.5231 76.3516 10.7418ZM77.8326 9.2642V10.7418C77.8343 11.1323 77.9908 11.5064 78.2682 11.7825C78.5456 12.0587 78.9214 12.2145 79.3137 12.2162H82.0379C82.4307 12.2154 82.8072 12.0599 83.0853 11.7836C83.3634 11.5074 83.5204 11.1328 83.522 10.7418V9.2642C83.5196 8.87366 83.3622 8.49991 83.0842 8.22434C82.8062 7.94877 82.4302 7.79369 82.0379 7.79287H79.3137C78.9203 7.79452 78.5436 7.95125 78.266 8.22875C77.9885 8.50625 77.8326 8.88193 77.8326 9.27355V9.2642Z" fill="#94A3B8"/>
<path id="Vector_8" d="M16.7426 0H3.34727C2.45977 0.00082534 1.60886 0.35217 0.981308 0.976918C0.353753 1.60167 0.00082905 2.44877 0 3.33229L0 16.6677C0 17.5515 0.352658 18.3991 0.980393 19.024C1.60813 19.6489 2.45952 20 3.34727 20H16.7426C17.1824 20.0004 17.618 19.9145 18.0245 19.7472C18.431 19.58 18.8004 19.3346 19.1115 19.0251C19.4227 18.7156 19.6695 18.3481 19.8379 17.9436C20.0063 17.5391 20.093 17.1056 20.093 16.6677V3.33229C20.0922 2.44823 19.7388 1.60065 19.1106 0.975817C18.4824 0.35098 17.6307 -3.86089e-07 16.7426 0ZM16.2823 13.0923C16.1656 13.5666 15.9436 14.0088 15.6325 14.3864C15.3215 14.7641 14.9294 15.0675 14.485 15.2743C14.0808 15.4648 13.639 15.5628 13.1918 15.5611H4.07058V13.3479H13.2043C13.352 13.3458 13.4974 13.3122 13.6309 13.2493C13.7643 13.1863 13.8826 13.0956 13.9777 12.9832C14.0906 12.8536 14.1718 12.6998 14.2147 12.5337C14.2576 12.3676 14.2612 12.1939 14.2251 12.0262C14.2 11.8655 14.1373 11.713 14.0421 11.5809C13.947 11.4488 13.8219 11.3408 13.6772 11.2656C13.2958 11.1226 12.8865 11.0693 12.481 11.1097H12.0583C11.6481 11.1097 11.2285 11.1284 10.8058 11.1315H10.5585C9.70051 11.1315 8.83629 11.1315 7.96895 11.1315H7.80299C7.3047 11.139 6.80679 11.1003 6.31566 11.0162C5.80646 10.9188 5.32866 10.6996 4.92339 10.3776C4.51811 10.0556 4.19751 9.64041 3.98917 9.1677C3.79597 8.73488 3.69572 8.26665 3.69484 7.79302C3.68754 7.20837 3.83784 6.63248 4.13007 6.12531C4.409 5.62948 4.80978 5.21226 5.29489 4.91272C5.78292 4.61212 6.34611 4.4544 6.91999 4.45761H15.8878V6.67706H6.91999C6.77882 6.67347 6.63847 6.69936 6.50796 6.75305C6.37745 6.80673 6.25968 6.88703 6.16223 6.98878C6.0597 7.0914 5.9791 7.21363 5.92528 7.3481C5.87147 7.48257 5.84556 7.62649 5.84911 7.7712C5.84871 7.92104 5.87905 8.06939 5.93827 8.20715C5.9975 8.3449 6.08437 8.46917 6.19355 8.57232C6.39292 8.7291 6.63287 8.82638 6.88554 8.85287C7.16735 8.88092 7.48048 8.89651 7.82491 8.89651H8.01278C8.84777 8.91106 9.69007 8.91106 10.5397 8.89651H10.787C11.2004 8.89651 11.6074 8.89651 12.0145 8.87157C12.1554 8.87157 12.2963 8.87157 12.4435 8.87157C12.7979 8.86306 13.1526 8.87868 13.5049 8.91833C13.8952 8.96383 14.2746 9.0767 14.6259 9.25187C15.0744 9.4821 15.4627 9.81331 15.76 10.2192C16.0574 10.625 16.2555 11.0943 16.3387 11.5898C16.4279 12.0889 16.4086 12.6012 16.2823 13.0923Z" fill="#94A3B8"/>
</g>
</g>
</g>
<defs>
<clipPath id="clip0_251_540">
<rect width="85" height="20" fill="white"/>
</clipPath>
</defs>
</svg>
