<svg width="100" height="18" viewBox="0 0 100 18" fill="none" xmlns="http://www.w3.org/2000/svg">
<g id="Vector">
<path fill-rule="evenodd" clip-rule="evenodd" d="M26.7227 0.665527L18.1958 17.3347H10.1866L13.7551 10.4263H13.5951C10.6511 14.2479 6.2586 16.7638 0 17.3347V10.5219C0 10.5219 4.00378 10.2854 6.35748 7.81081H0V0.665659H7.14513V6.54244L7.3055 6.54178L10.2253 0.665659H15.6289V6.50518L15.7893 6.50492L18.8186 0.665527H26.7227Z" fill="#146EF5"/>
<path d="M73.2201 15.495H75.5212V2.2864H73.2201V15.495Z" fill="white"/>
<path fill-rule="evenodd" clip-rule="evenodd" d="M60.5339 15.3598C61.034 15.5678 61.5426 15.6717 62.0596 15.6717C62.9138 15.6717 63.6779 15.4638 64.3523 15.048C65.0266 14.6321 65.5492 14.0589 65.9201 13.3284C66.2911 12.5922 66.4764 11.7578 66.4764 10.8249C66.4764 9.89205 66.2854 9.05759 65.9033 8.32143C65.5212 7.58529 64.9901 7.01491 64.3102 6.6103C63.6302 6.20008 62.8576 5.99778 61.9921 6.0034C61.4415 6.0034 60.9132 6.11017 60.4075 6.32371C59.9016 6.53725 59.4803 6.8407 59.143 7.23406C59.117 7.26402 59.0917 7.29427 59.0672 7.32481V2.29454H56.7576V15.4947H59.0503L59.0457 14.2616C59.1051 14.3343 59.1684 14.4053 59.2358 14.4747C59.6011 14.8513 60.0338 15.1463 60.5339 15.3598ZM62.894 13.2272C62.5176 13.4576 62.0877 13.5729 61.6044 13.5729C61.1267 13.5729 60.6884 13.4548 60.2894 13.2188C59.8904 12.9771 59.5729 12.6484 59.3369 12.2326C59.1065 11.8168 58.9914 11.3447 58.9914 10.8165C58.9857 10.2883 59.0981 9.81622 59.3285 9.40038C59.5645 8.97892 59.882 8.65299 60.281 8.42259C60.68 8.18657 61.1211 8.07137 61.6044 8.07699C62.0877 8.07137 62.5176 8.18376 62.894 8.41416C63.2762 8.63893 63.5684 8.96205 63.7707 9.38352C63.9786 9.79936 64.0826 10.2771 64.0826 10.8165C64.0826 11.3559 63.9786 11.8336 63.7707 12.2495C63.5684 12.6653 63.2762 12.9912 62.894 13.2272Z" fill="white"/>
<path d="M30.0562 3.08714H32.6861L35.0387 11.6788L37.5414 3.08714H39.733L42.4472 11.5064L44.7062 3.08714H47.1169L43.5598 15.495H41.2923L38.5324 7.27006L35.9988 15.495H33.706L30.0562 3.08714Z" fill="white"/>
<path fill-rule="evenodd" clip-rule="evenodd" d="M51.0015 15.7139C50.0855 15.7195 49.2595 15.5172 48.5233 15.107C47.7928 14.6911 47.2168 14.1151 46.7953 13.379C46.3795 12.6428 46.1715 11.8027 46.1715 10.8586C46.1715 9.94272 46.3851 9.11381 46.8122 8.37203C47.2392 7.63026 47.8181 7.05145 48.5486 6.63561C49.2791 6.21977 50.0939 6.01184 50.9931 6.01184C52.0046 6.01184 52.8897 6.23663 53.6483 6.68619C54.4125 7.13574 54.9829 7.77356 55.3594 8.59962C55.7415 9.42006 55.8792 10.3613 55.7724 11.4234H48.5522C48.5724 11.8465 48.6779 12.2315 48.8689 12.5782C49.0824 12.9603 49.3803 13.2582 49.7624 13.4717C50.1445 13.6852 50.5716 13.792 51.0436 13.792C51.4033 13.7864 51.7376 13.7246 52.0467 13.6066C52.3558 13.483 52.6171 13.3172 52.8307 13.1093C53.0497 12.9013 53.2043 12.6653 53.2942 12.4012H55.705C55.5589 13.0474 55.2667 13.6235 54.8284 14.1292C54.39 14.6293 53.8393 15.0199 53.1762 15.3009C52.5131 15.5818 51.7882 15.7195 51.0015 15.7139ZM48.8774 9.10537C48.7426 9.34021 48.6494 9.59309 48.5975 9.86402H53.3835C53.3488 9.52174 53.2432 9.20986 53.0666 8.92836C52.8644 8.59681 52.589 8.34112 52.2406 8.16131C51.8922 7.97586 51.4988 7.88314 51.0605 7.88314C50.5941 7.88314 50.1699 7.98991 49.7877 8.20345C49.4056 8.41699 49.1021 8.71763 48.8774 9.10537Z" fill="white"/>
<path d="M68.1705 6.2059C68.1705 5.45288 68.342 4.78416 68.6848 4.19974C69.0276 3.60969 69.508 3.1517 70.1262 2.82578C70.7499 2.49422 71.4777 2.32283 72.3093 2.31159V4.35989C71.9216 4.36551 71.5901 4.447 71.3147 4.60434C71.045 4.75606 70.837 4.97803 70.6909 5.27025C70.5564 5.53927 70.4838 5.85115 70.4731 6.2059H72.2588V8.15304H70.4718V15.4949H68.1705V8.15304H66.687V6.2059H68.1705Z" fill="white"/>
<path fill-rule="evenodd" clip-rule="evenodd" d="M81.3715 15.697C80.4331 15.697 79.593 15.4918 78.8511 15.0816C78.115 14.6658 77.5362 14.0925 77.1147 13.3621C76.6989 12.6259 76.4909 11.7914 76.4909 10.8585C76.4909 9.92012 76.6989 9.0828 77.1147 8.34664C77.5362 7.60487 78.115 7.02887 78.8511 6.61865C79.593 6.20843 80.4331 6.00332 81.3715 6.00332C82.3156 6.00332 83.1585 6.20843 83.9003 6.61865C84.6477 7.02887 85.2293 7.60206 85.6451 8.33821C86.0609 9.07436 86.2717 9.91447 86.2773 10.8585C86.2717 11.7914 86.0609 12.6259 85.6451 13.3621C85.2349 14.0925 84.6561 14.6658 83.9087 15.0816C83.1613 15.4918 82.3156 15.697 81.3715 15.697ZM81.3715 13.5812C81.866 13.5812 82.3044 13.4688 82.6865 13.244C83.0686 13.0136 83.3636 12.6933 83.5715 12.2831C83.7794 11.8673 83.8834 11.3924 83.8834 10.8585C83.8834 10.3191 83.7794 9.84143 83.5715 9.42558C83.3636 9.00974 83.0686 8.68944 82.6865 8.46465C82.3044 8.23425 81.866 8.11906 81.3715 8.11906C80.8826 8.11906 80.4471 8.23425 80.065 8.46465C79.6884 8.68944 79.3962 9.00974 79.1883 9.42558C78.9804 9.84143 78.8793 10.3191 78.8849 10.8585C78.8849 11.3924 78.9888 11.8673 79.1968 12.2831C79.4103 12.6933 79.7025 13.0136 80.0734 13.244C80.4499 13.4688 80.8826 13.5812 81.3715 13.5812Z" fill="white"/>
<path d="M88.7638 6.20525H86.2014L88.9746 15.4943H91.2168L93.0408 9.56138L95.0102 15.4943H97.2185L100 6.20525H97.6824L96.1046 11.9871L94.3611 6.20525H92.1187L90.3835 12.1145L88.7638 6.20525Z" fill="white"/>
</g>
</svg>
